<?xml version="1.0" standalone="no"?>
<!DOCTYPE svg PUBLIC "-//W3C//DTD SVG 20010904//EN"
 "http://www.w3.org/TR/2001/REC-SVG-20010904/DTD/svg10.dtd">
<svg version="1.0" xmlns="http://www.w3.org/2000/svg"
 width="500.000000pt" height="369.000000pt" viewBox="0 0 500.000000 369.000000"
 preserveAspectRatio="xMidYMid meet">
<metadata>
Created by potrace 1.16, written by Peter Selinger 2001-2019
</metadata>
<g transform="translate(0.000000,369.000000) scale(0.100000,-0.100000)"
fill="#000000" stroke="none">
<path d="M881 2806 l-154 -51 7 -85 c3 -47 13 -148 21 -225 21 -202 29 -598
16 -809 -6 -99 -8 -182 -6 -185 3 -2 78 7 167 20 l163 25 8 44 c4 25 6 250 3
500 -4 434 -7 484 -41 761 -4 31 -12 56 -19 56 -6 0 -80 -23 -165 -51z"/>
<path d="M4050 2805 l-155 -52 1 -39 c1 -21 9 -100 18 -174 30 -252 41 -565
29 -837 -7 -136 -10 -249 -7 -252 2 -2 77 7 167 20 l162 25 8 69 c13 112 1
890 -17 1040 -8 72 -18 157 -22 191 -4 34 -11 61 -18 61 -6 0 -81 -24 -166
-52z"/>
<path d="M2832 2415 c-85 -145 -89 -156 -72 -167 18 -11 17 -14 -11 -49 -72
-91 -111 -234 -92 -330 6 -30 14 -64 18 -75 6 -20 3 -22 -45 -25 -47 -4 -51
-2 -56 21 -48 223 -163 413 -295 484 -73 40 -175 47 -243 17 -104 -46 -193
-149 -249 -289 -28 -69 -31 -88 -32 -187 0 -98 3 -116 26 -165 65 -139 185
-210 381 -226 l82 -7 -51 -47 c-28 -26 -89 -65 -135 -88 -76 -37 -299 -112
-334 -112 -8 0 -14 -6 -14 -12 0 -14 72 -320 76 -327 2 -2 52 11 111 29 318
93 545 272 639 504 l20 51 70 2 c130 5 284 24 348 43 l64 20 103 -25 c132 -32
262 -41 356 -26 369 63 507 464 244 714 -75 71 -134 104 -422 237 -134 62
-275 129 -314 149 -38 20 -73 37 -76 39 -4 1 -47 -67 -97 -153z m289 -352 c54
-49 72 -87 66 -135 -7 -54 -47 -103 -100 -121 -49 -17 -63 -12 -114 36 -46 43
-58 85 -38 134 19 44 48 78 90 104 41 26 49 24 96 -18z m-930 -105 c35 -24 99
-134 99 -171 0 -19 -5 -19 -92 -15 -54 3 -111 13 -135 23 -37 15 -43 21 -43
46 0 17 9 47 20 69 37 72 89 88 151 48z m1381 -69 c44 -41 49 -73 17 -112 -24
-32 -102 -57 -174 -57 l-52 0 29 58 c15 31 35 87 44 124 l17 68 40 -23 c23
-12 58 -38 79 -58z"/>
<path d="M1456 2029 c-82 -38 -151 -71 -154 -74 -2 -2 18 -66 47 -142 79 -215
84 -234 68 -281 -47 -136 -191 -274 -435 -419 l-32 -19 100 -130 c56 -71 106
-131 111 -132 31 -11 256 153 351 256 100 109 169 230 199 352 21 83 16 248
-10 355 -27 114 -84 305 -91 304 -3 0 -72 -32 -154 -70z"/>
</g>
</svg>
