<svg width="23" height="26" viewBox="0 0 23 26" fill="none" xmlns="http://www.w3.org/2000/svg">
<path d="M9.47059 0.999999C9.47059 0.447714 9.9183 0 10.4706 0H22C22.5523 0 23 0.447715 23 1V12.5294C23 13.0817 22.5523 13.5294 22 13.5294H10.4706C9.9183 13.5294 9.47059 13.0817 9.47059 12.5294V0.999999Z" fill="#556068" fill-opacity="0.4"/>
<path d="M0 15.8824C0 15.3301 0.447715 14.8824 1 14.8824H22C22.5523 14.8824 23 15.3301 23 15.8824V24.7059C23 25.2582 22.5523 25.7059 22 25.7059H1C0.447715 25.7059 0 25.2582 0 24.7059V15.8824Z" fill="#556068" fill-opacity="0.4"/>
<path d="M4.05882 7.76471C4.05882 7.21242 4.50654 6.76471 5.05882 6.76471H16.5882C17.1405 6.76471 17.5882 7.21242 17.5882 7.76471V19.2941C17.5882 19.8464 17.1405 20.2941 16.5882 20.2941H5.05882C4.50654 20.2941 4.05882 19.8464 4.05882 19.2941V7.76471Z" fill="#556068"/>
</svg>
