<svg width="22" height="26" viewBox="0 0 22 26" fill="none" xmlns="http://www.w3.org/2000/svg">
<path d="M0 1C0 0.447716 0.447715 0 1 0H21C21.5523 0 22 0.447715 22 1V25C22 25.5523 21.5523 26 21 26H1C0.447716 26 0 25.5523 0 25V1Z" fill="#556068"/>
<path d="M2 21.5C2 20.1193 3.11929 19 4.5 19H17.5C18.8807 19 20 20.1193 20 21.5V21.5C20 22.8807 18.8807 24 17.5 24H4.5C3.11929 24 2 22.8807 2 21.5V21.5Z" fill="#8E9FAC"/>
<path d="M7 21.5C7 21.2239 7.22386 21 7.5 21H14.5C14.7761 21 15 21.2239 15 21.5V21.5C15 21.7761 14.7761 22 14.5 22H7.5C7.22386 22 7 21.7761 7 21.5V21.5Z" fill="#D5DDE2"/>
</svg>
