<svg width="22" height="26" viewBox="0 0 22 26" fill="none" xmlns="http://www.w3.org/2000/svg">
<path d="M0 1C0 0.447715 0.447715 0 1 0H21C21.5523 0 22 0.447715 22 1V18C22 18.5523 21.5523 19 21 19H1C0.447716 19 0 18.5523 0 18V1Z" fill="#556068"/>
<path d="M0 22C0 21.4477 0.447715 21 1 21H21C21.5523 21 22 21.4477 22 22V25C22 25.5523 21.5523 26 21 26H1C0.447716 26 0 25.5523 0 25V22Z" fill="#8E9FAC"/>
<path d="M7 23.5C7 23.2239 7.22386 23 7.5 23H14.5C14.7761 23 15 23.2239 15 23.5V23.5C15 23.7761 14.7761 24 14.5 24H7.5C7.22386 24 7 23.7761 7 23.5V23.5Z" fill="#D5DDE2"/>
</svg>
