<svg width="20" height="10" viewBox="0 0 20 10" fill="none" xmlns="http://www.w3.org/2000/svg">
<path d="M0 0H6V6H0V0Z" fill="#556068"/>
<path d="M1 7.25C1 7.11193 1.11193 7 1.25 7H4.75C4.88807 7 5 7.11193 5 7.25V7.25C5 7.38807 4.88807 7.5 4.75 7.5H1.25C1.11193 7.5 1 7.38807 1 7.25V7.25Z" fill="#556068" fill-opacity="0.7"/>
<path d="M2 8.75C2 8.61193 2.11193 8.5 2.25 8.5H3.75C3.88807 8.5 4 8.61193 4 8.75V8.75C4 8.88807 3.88807 9 3.75 9H2.25C2.11193 9 2 8.88807 2 8.75V8.75Z" fill="#556068" fill-opacity="0.7"/>
<path d="M1.34001 9.015C1.29134 9.015 1.24267 9.008 1.19401 8.994C1.14601 8.98 1.10467 8.96167 1.07001 8.939L1.10101 8.867C1.13034 8.88567 1.16701 8.90167 1.21101 8.915C1.25501 8.92767 1.29667 8.934 1.33601 8.934C1.39001 8.934 1.43267 8.92434 1.46401 8.905C1.49534 8.88567 1.51101 8.85867 1.51101 8.824C1.51101 8.79934 1.50367 8.77967 1.48901 8.765C1.47434 8.74967 1.45534 8.738 1.43201 8.73C1.40867 8.72134 1.37501 8.71134 1.33101 8.7C1.27301 8.684 1.22701 8.66767 1.19301 8.651C1.15967 8.63367 1.13467 8.61267 1.11801 8.588C1.10201 8.56334 1.09401 8.532 1.09401 8.494C1.09401 8.454 1.10501 8.41934 1.12701 8.39C1.14967 8.36067 1.18034 8.33834 1.21901 8.323C1.25834 8.30767 1.30267 8.3 1.35201 8.3C1.42134 8.3 1.49534 8.315 1.57401 8.345L1.54601 8.42C1.47801 8.39467 1.41334 8.382 1.35201 8.382C1.29934 8.382 1.25767 8.39234 1.22701 8.413C1.19634 8.433 1.18101 8.46034 1.18101 8.495C1.18101 8.52034 1.18767 8.54067 1.20101 8.556C1.21501 8.57067 1.23367 8.58234 1.25701 8.591C1.28101 8.59967 1.31567 8.60967 1.36101 8.621C1.44301 8.64167 1.50301 8.66667 1.54101 8.696C1.57901 8.72467 1.59801 8.765 1.59801 8.817C1.59801 8.879 1.57401 8.92767 1.52601 8.963C1.47801 8.99767 1.41601 9.015 1.34001 9.015ZM1.31801 9H1.38501V9.113H1.31801V9ZM1.31801 8.201H1.38501V8.315H1.31801V8.201Z" fill="#556068"/>
<path d="M7 0H13V6H7V0Z" fill="#556068"/>
<path d="M8 7.25C8 7.11193 8.11193 7 8.25 7H11.75C11.8881 7 12 7.11193 12 7.25V7.25C12 7.38807 11.8881 7.5 11.75 7.5H8.25C8.11193 7.5 8 7.38807 8 7.25V7.25Z" fill="#556068" fill-opacity="0.7"/>
<path d="M9 8.75C9 8.61193 9.11193 8.5 9.25 8.5H10.75C10.8881 8.5 11 8.61193 11 8.75V8.75C11 8.88807 10.8881 9 10.75 9H9.25C9.11193 9 9 8.88807 9 8.75V8.75Z" fill="#556068" fill-opacity="0.7"/>
<path d="M8.34001 9.015C8.29134 9.015 8.24267 9.008 8.19401 8.994C8.14601 8.98 8.10467 8.96167 8.07001 8.939L8.10101 8.867C8.13034 8.88567 8.16701 8.90167 8.21101 8.915C8.25501 8.92767 8.29667 8.934 8.33601 8.934C8.39001 8.934 8.43267 8.92434 8.46401 8.905C8.49534 8.88567 8.51101 8.85867 8.51101 8.824C8.51101 8.79934 8.50367 8.77967 8.48901 8.765C8.47434 8.74967 8.45534 8.738 8.43201 8.73C8.40867 8.72134 8.37501 8.71134 8.33101 8.7C8.27301 8.684 8.22701 8.66767 8.19301 8.651C8.15967 8.63367 8.13467 8.61267 8.11801 8.588C8.10201 8.56334 8.09401 8.532 8.09401 8.494C8.09401 8.454 8.10501 8.41934 8.12701 8.39C8.14967 8.36067 8.18034 8.33834 8.21901 8.323C8.25834 8.30767 8.30267 8.3 8.35201 8.3C8.42134 8.3 8.49534 8.315 8.57401 8.345L8.54601 8.42C8.47801 8.39467 8.41334 8.382 8.35201 8.382C8.29934 8.382 8.25767 8.39234 8.22701 8.413C8.19634 8.433 8.18101 8.46034 8.18101 8.495C8.18101 8.52034 8.18767 8.54067 8.20101 8.556C8.21501 8.57067 8.23367 8.58234 8.25701 8.591C8.28101 8.59967 8.31567 8.60967 8.36101 8.621C8.44301 8.64167 8.50301 8.66667 8.54101 8.696C8.57901 8.72467 8.59801 8.765 8.59801 8.817C8.59801 8.879 8.57401 8.92767 8.52601 8.963C8.47801 8.99767 8.41601 9.015 8.34001 9.015ZM8.31801 9H8.38501V9.113H8.31801V9ZM8.31801 8.201H8.38501V8.315H8.31801V8.201Z" fill="#556068"/>
<path d="M14 0H20V6H14V0Z" fill="#556068"/>
<path d="M15 7.25C15 7.11193 15.1119 7 15.25 7H18.75C18.8881 7 19 7.11193 19 7.25V7.25C19 7.38807 18.8881 7.5 18.75 7.5H15.25C15.1119 7.5 15 7.38807 15 7.25V7.25Z" fill="#556068" fill-opacity="0.7"/>
<path d="M16 8.75C16 8.61193 16.1119 8.5 16.25 8.5H17.75C17.8881 8.5 18 8.61193 18 8.75V8.75C18 8.88807 17.8881 9 17.75 9H16.25C16.1119 9 16 8.88807 16 8.75V8.75Z" fill="#556068" fill-opacity="0.7"/>
<path d="M15.34 9.015C15.2913 9.015 15.2427 9.008 15.194 8.994C15.146 8.98 15.1047 8.96167 15.07 8.939L15.101 8.867C15.1303 8.88567 15.167 8.90167 15.211 8.915C15.255 8.92767 15.2967 8.934 15.336 8.934C15.39 8.934 15.4327 8.92434 15.464 8.905C15.4953 8.88567 15.511 8.85867 15.511 8.824C15.511 8.79934 15.5037 8.77967 15.489 8.765C15.4743 8.74967 15.4553 8.738 15.432 8.73C15.4087 8.72134 15.375 8.71134 15.331 8.7C15.273 8.684 15.227 8.66767 15.193 8.651C15.1597 8.63367 15.1347 8.61267 15.118 8.588C15.102 8.56334 15.094 8.532 15.094 8.494C15.094 8.454 15.105 8.41934 15.127 8.39C15.1497 8.36067 15.1803 8.33834 15.219 8.323C15.2583 8.30767 15.3027 8.3 15.352 8.3C15.4213 8.3 15.4953 8.315 15.574 8.345L15.546 8.42C15.478 8.39467 15.4133 8.382 15.352 8.382C15.2993 8.382 15.2577 8.39234 15.227 8.413C15.1963 8.433 15.181 8.46034 15.181 8.495C15.181 8.52034 15.1877 8.54067 15.201 8.556C15.215 8.57067 15.2337 8.58234 15.257 8.591C15.281 8.59967 15.3157 8.60967 15.361 8.621C15.443 8.64167 15.503 8.66667 15.541 8.696C15.579 8.72467 15.598 8.765 15.598 8.817C15.598 8.879 15.574 8.92767 15.526 8.963C15.478 8.99767 15.416 9.015 15.34 9.015ZM15.318 9H15.385V9.113H15.318V9ZM15.318 8.201H15.385V8.315H15.318V8.201Z" fill="#556068"/>
</svg>
