<svg width="25" height="22" viewBox="0 0 25 22" fill="none" xmlns="http://www.w3.org/2000/svg">
<path d="M13 1C13 0.447715 13.4477 0 14 0H24C24.5523 0 25 0.447715 25 1V7C25 7.55228 24.5523 8 24 8H14C13.4477 8 13 7.55228 13 7V1Z" fill="#556068"/>
<path d="M6 1.5C6 1.22386 6.22386 1 6.5 1H11.5C11.7761 1 12 1.22386 12 1.5V1.5C12 1.77614 11.7761 2 11.5 2H6.5C6.22386 2 6 1.77614 6 1.5V1.5Z" fill="#556068" fill-opacity="0.3"/>
<path d="M3 3.5C3 3.22386 3.22386 3 3.5 3H11.5C11.7761 3 12 3.22386 12 3.5V3.5C12 3.77614 11.7761 4 11.5 4H3.5C3.22386 4 3 3.77614 3 3.5V3.5Z" fill="#556068" fill-opacity="0.3"/>
<path d="M13 11.5C13 11.2239 13.2239 11 13.5 11H16.5C16.7761 11 17 11.2239 17 11.5V11.5C17 11.7761 16.7761 12 16.5 12H13.5C13.2239 12 13 11.7761 13 11.5V11.5Z" fill="#556068" fill-opacity="0.3"/>
<path d="M13 18.5C13 18.2239 13.2239 18 13.5 18H16.5C16.7761 18 17 18.2239 17 18.5V18.5C17 18.7761 16.7761 19 16.5 19H13.5C13.2239 19 13 18.7761 13 18.5V18.5Z" fill="#556068" fill-opacity="0.3"/>
<path d="M0 11.5C0 11.2239 0.223858 11 0.5 11H3.5C3.77614 11 4 11.2239 4 11.5V11.5C4 11.7761 3.77614 12 3.5 12H0.5C0.223858 12 0 11.7761 0 11.5V11.5Z" fill="#556068" fill-opacity="0.3"/>
<path d="M18 11C18 10.4477 18.4477 10 19 10H24C24.5523 10 25 10.4477 25 11V14C25 14.5523 24.5523 15 24 15H19C18.4477 15 18 14.5523 18 14V11Z" fill="#556068"/>
<path d="M18 18C18 17.4477 18.4477 17 19 17H24C24.5523 17 25 17.4477 25 18V21C25 21.5523 24.5523 22 24 22H19C18.4477 22 18 21.5523 18 21V18Z" fill="#556068"/>
<path d="M5 11C5 10.4477 5.44772 10 6 10H11C11.5523 10 12 10.4477 12 11V14C12 14.5523 11.5523 15 11 15H6C5.44772 15 5 14.5523 5 14V11Z" fill="#556068"/>
</svg>
