<svg width="26" height="16" viewBox="0 0 26 16" fill="none" xmlns="http://www.w3.org/2000/svg">
<path d="M14 1C14 0.447715 14.4477 0 15 0H25C25.5523 0 26 0.447715 26 1V7C26 7.55228 25.5523 8 25 8H15C14.4477 8 14 7.55228 14 7V1Z" fill="#556068"/>
<path d="M7 1.5C7 1.22386 7.22386 1 7.5 1H12.5C12.7761 1 13 1.22386 13 1.5V1.5C13 1.77614 12.7761 2 12.5 2H7.5C7.22386 2 7 1.77614 7 1.5V1.5Z" fill="#556068" fill-opacity="0.3"/>
<path d="M4 3.5C4 3.22386 4.22386 3 4.5 3H12.5C12.7761 3 13 3.22386 13 3.5V3.5C13 3.77614 12.7761 4 12.5 4H4.5C4.22386 4 4 3.77614 4 3.5V3.5Z" fill="#556068" fill-opacity="0.3"/>
<path d="M20 15.5C20 15.2239 20.2239 15 20.5 15H23.5C23.7761 15 24 15.2239 24 15.5V15.5C24 15.7761 23.7761 16 23.5 16H20.5C20.2239 16 20 15.7761 20 15.5V15.5Z" fill="#556068" fill-opacity="0.3"/>
<path d="M11 15.5C11 15.2239 11.2239 15 11.5 15H14.5C14.7761 15 15 15.2239 15 15.5V15.5C15 15.7761 14.7761 16 14.5 16H11.5C11.2239 16 11 15.7761 11 15.5V15.5Z" fill="#556068" fill-opacity="0.3"/>
<path d="M2 15.5C2 15.2239 2.22386 15 2.5 15H5.5C5.77614 15 6 15.2239 6 15.5V15.5C6 15.7761 5.77614 16 5.5 16H2.5C2.22386 16 2 15.7761 2 15.5V15.5Z" fill="#556068" fill-opacity="0.3"/>
<path d="M18 10C18 9.44772 18.4477 9 19 9H25C25.5523 9 26 9.44772 26 10V13C26 13.5523 25.5523 14 25 14H19C18.4477 14 18 13.5523 18 13V10Z" fill="#556068"/>
<path d="M9 10C9 9.44772 9.44772 9 10 9H16C16.5523 9 17 9.44772 17 10V13C17 13.5523 16.5523 14 16 14H10C9.44772 14 9 13.5523 9 13V10Z" fill="#556068"/>
<path d="M0 10C0 9.44772 0.447715 9 1 9H7C7.55228 9 8 9.44772 8 10V13C8 13.5523 7.55228 14 7 14H1C0.447715 14 0 13.5523 0 13V10Z" fill="#556068"/>
</svg>
