<svg width="28" height="15" viewBox="0 0 28 15" fill="none" xmlns="http://www.w3.org/2000/svg">
<path d="M18 0H28V15H18V0Z" fill="#556068"/>
<path d="M9 0H17V7H9V0Z" fill="#556068"/>
<path d="M0 0H8V7H0V0Z" fill="#556068"/>
<path d="M9 8H17V15H9V8Z" fill="#556068"/>
<path d="M0 8H8V15H0V8Z" fill="#556068"/>
<path opacity="0.8" d="M22 2.5C22 2.22386 22.2239 2 22.5 2H26.5C26.7761 2 27 2.22386 27 2.5V2.5C27 2.77614 26.7761 3 26.5 3H22.5C22.2239 3 22 2.77614 22 2.5V2.5Z" fill="#E5E5E5"/>
<path opacity="0.5" d="M11 3.25C11 3.11193 11.1119 3 11.25 3H14.75C14.8881 3 15 3.11193 15 3.25V3.25C15 3.38807 14.8881 3.5 14.75 3.5H11.25C11.1119 3.5 11 3.38807 11 3.25V3.25Z" fill="#E5E5E5"/>
<path opacity="0.5" d="M12 2.25C12 2.11193 12.1119 2 12.25 2H13.75C13.8881 2 14 2.11193 14 2.25V2.25C14 2.38807 13.8881 2.5 13.75 2.5H12.25C12.1119 2.5 12 2.38807 12 2.25V2.25Z" fill="#E5E5E5"/>
<path opacity="0.5" d="M3 2.25C3 2.11193 3.11193 2 3.25 2H4.75C4.88807 2 5 2.11193 5 2.25V2.25C5 2.38807 4.88807 2.5 4.75 2.5H3.25C3.11193 2.5 3 2.38807 3 2.25V2.25Z" fill="#E5E5E5"/>
<path opacity="0.5" d="M3 10.25C3 10.1119 3.11193 10 3.25 10H4.75C4.88807 10 5 10.1119 5 10.25V10.25C5 10.3881 4.88807 10.5 4.75 10.5H3.25C3.11193 10.5 3 10.3881 3 10.25V10.25Z" fill="#E5E5E5"/>
<path opacity="0.5" d="M12 10.25C12 10.1119 12.1119 10 12.25 10H13.75C13.8881 10 14 10.1119 14 10.25V10.25C14 10.3881 13.8881 10.5 13.75 10.5H12.25C12.1119 10.5 12 10.3881 12 10.25V10.25Z" fill="#E5E5E5"/>
<path opacity="0.5" d="M2 3.25C2 3.11193 2.11193 3 2.25 3H5.75C5.88807 3 6 3.11193 6 3.25V3.25C6 3.38807 5.88807 3.5 5.75 3.5H2.25C2.11193 3.5 2 3.38807 2 3.25V3.25Z" fill="#E5E5E5"/>
<path opacity="0.5" d="M2 11.25C2 11.1119 2.11193 11 2.25 11H5.75C5.88807 11 6 11.1119 6 11.25V11.25C6 11.3881 5.88807 11.5 5.75 11.5H2.25C2.11193 11.5 2 11.3881 2 11.25V11.25Z" fill="#E5E5E5"/>
<path opacity="0.5" d="M11 11.25C11 11.1119 11.1119 11 11.25 11H14.75C14.8881 11 15 11.1119 15 11.25V11.25C15 11.3881 14.8881 11.5 14.75 11.5H11.25C11.1119 11.5 11 11.3881 11 11.25V11.25Z" fill="#E5E5E5"/>
<path opacity="0.8" d="M20 4.5C20 4.22386 20.2239 4 20.5 4H26.5C26.7761 4 27 4.22386 27 4.5V4.5C27 4.77614 26.7761 5 26.5 5H20.5C20.2239 5 20 4.77614 20 4.5V4.5Z" fill="#E5E5E5"/>
<path opacity="0.8" d="M20 11C20 10.4477 20.4477 10 21 10H26C26.5523 10 27 10.4477 27 11V11C27 11.5523 26.5523 12 26 12H21C20.4477 12 20 11.5523 20 11V11Z" fill="#E5E5E5"/>
</svg>
