<svg width="22" height="22" viewBox="0 0 22 22" fill="none" xmlns="http://www.w3.org/2000/svg">
<path d="M3.00006 20.5C3.00006 21.3284 2.32849 22 1.50006 22C0.671634 22 6.10352e-05 21.3284 6.10352e-05 20.5C6.10352e-05 19.6716 0.671634 19 1.50006 19C2.32849 19 3.00006 19.6716 3.00006 20.5Z" fill="#556068"/>
<path d="M22.0001 1C22.0001 1.55228 21.5523 2 21.0001 2C20.4478 2 20.0001 1.55228 20.0001 1C20.0001 0.447715 20.4478 0 21.0001 0C21.5523 0 22.0001 0.447715 22.0001 1Z" fill="#556068"/>
<path fill-rule="evenodd" clip-rule="evenodd" d="M11.9146 1.00025C15.6203 0.969467 18.5218 3.82742 19.615 7.24856C20.6559 10.506 19.5509 14.0217 16.7298 16.0694C13.7583 18.2264 9.64621 18.7915 6.66245 16.6504C3.75759 14.5659 3.49506 10.6988 4.61111 7.37318C5.72972 4.03998 8.28801 1.03037 11.9146 1.00025Z" fill="#556068"/>
</svg>
