<svg width="22" height="28" viewBox="0 0 22 28" fill="none" xmlns="http://www.w3.org/2000/svg">
<path d="M0 1C0 0.447715 0.447715 0 1 0H21C21.5523 0 22 0.447715 22 1V27C22 27.5523 21.5523 28 21 28H1C0.447716 28 0 27.5523 0 27V1Z" fill="#556068"/>
<path opacity="0.9" d="M6 17.5C6 17.2239 6.22386 17 6.5 17H15.5C15.7761 17 16 17.2239 16 17.5V17.5C16 17.7761 15.7761 18 15.5 18H6.5C6.22386 18 6 17.7761 6 17.5V17.5Z" fill="#E5E5E5"/>
<path opacity="0.9" d="M8 19.5C8 19.2239 8.22386 19 8.5 19H13.5C13.7761 19 14 19.2239 14 19.5V19.5C14 19.7761 13.7761 20 13.5 20H8.5C8.22386 20 8 19.7761 8 19.5V19.5Z" fill="#E5E5E5"/>
<path opacity="0.9" d="M4 24C4 23.4477 4.44772 23 5 23H17C17.5523 23 18 23.4477 18 24V24C18 24.5523 17.5523 25 17 25H5C4.44772 25 4 24.5523 4 24V24Z" fill="#E5E5E5"/>
<path opacity="0.8" d="M2 9C2 8.44772 2.44772 8 3 8H4C4.55228 8 5 8.44772 5 9V10C5 10.5523 4.55228 11 4 11H3C2.44772 11 2 10.5523 2 10V9Z" fill="#E5E5E5"/>
<path opacity="0.7" d="M2 12.25C2 12.1119 2.11193 12 2.25 12H4.75C4.88807 12 5 12.1119 5 12.25V12.25C5 12.3881 4.88807 12.5 4.75 12.5H2.25C2.11193 12.5 2 12.3881 2 12.25V12.25Z" fill="#E5E5E5"/>
<path opacity="0.7" d="M7 12.25C7 12.1119 7.11193 12 7.25 12H9.75C9.88807 12 10 12.1119 10 12.25V12.25C10 12.3881 9.88807 12.5 9.75 12.5H7.25C7.11193 12.5 7 12.3881 7 12.25V12.25Z" fill="#E5E5E5"/>
<path opacity="0.7" d="M12 12.25C12 12.1119 12.1119 12 12.25 12H14.75C14.8881 12 15 12.1119 15 12.25V12.25C15 12.3881 14.8881 12.5 14.75 12.5H12.25C12.1119 12.5 12 12.3881 12 12.25V12.25Z" fill="#E5E5E5"/>
<path opacity="0.7" d="M17 12.25C17 12.1119 17.1119 12 17.25 12H19.75C19.8881 12 20 12.1119 20 12.25V12.25C20 12.3881 19.8881 12.5 19.75 12.5H17.25C17.1119 12.5 17 12.3881 17 12.25V12.25Z" fill="#E5E5E5"/>
<path opacity="0.8" d="M7 9C7 8.44772 7.44772 8 8 8H9C9.55228 8 10 8.44772 10 9V10C10 10.5523 9.55228 11 9 11H8C7.44772 11 7 10.5523 7 10V9Z" fill="#E5E5E5"/>
<path opacity="0.8" d="M12 9C12 8.44772 12.4477 8 13 8H14C14.5523 8 15 8.44772 15 9V10C15 10.5523 14.5523 11 14 11H13C12.4477 11 12 10.5523 12 10V9Z" fill="#E5E5E5"/>
<path opacity="0.8" d="M17 9C17 8.44772 17.4477 8 18 8H19C19.5523 8 20 8.44772 20 9V10C20 10.5523 19.5523 11 19 11H18C17.4477 11 17 10.5523 17 10V9Z" fill="#E5E5E5"/>
</svg>
