<svg width="22" height="28" viewBox="0 0 22 28" fill="none" xmlns="http://www.w3.org/2000/svg">
<path d="M0 1C0 0.447715 0.447715 0 1 0H21C21.5523 0 22 0.447715 22 1V27C22 27.5523 21.5523 28 21 28H1C0.447716 28 0 27.5523 0 27V1Z" fill="#556068"/>
<path opacity="0.9" d="M6 10.5C6 10.2239 6.22386 10 6.5 10H15.5C15.7761 10 16 10.2239 16 10.5V10.5C16 10.7761 15.7761 11 15.5 11H6.5C6.22386 11 6 10.7761 6 10.5V10.5Z" fill="#E5E5E5"/>
<path opacity="0.8" d="M2 17C2 16.4477 2.44772 16 3 16H4C4.55228 16 5 16.4477 5 17V18C5 18.5523 4.55228 19 4 19H3C2.44772 19 2 18.5523 2 18V17Z" fill="#E5E5E5"/>
<path opacity="0.7" d="M2 14.25C2 14.1119 2.11193 14 2.25 14H4.75C4.88807 14 5 14.1119 5 14.25V14.25C5 14.3881 4.88807 14.5 4.75 14.5H2.25C2.11193 14.5 2 14.3881 2 14.25V14.25Z" fill="#E5E5E5"/>
<path opacity="0.7" d="M7 14.25C7 14.1119 7.11193 14 7.25 14H9.75C9.88807 14 10 14.1119 10 14.25V14.25C10 14.3881 9.88807 14.5 9.75 14.5H7.25C7.11193 14.5 7 14.3881 7 14.25V14.25Z" fill="#E5E5E5"/>
<path opacity="0.7" d="M12 14.25C12 14.1119 12.1119 14 12.25 14H14.75C14.8881 14 15 14.1119 15 14.25V14.25C15 14.3881 14.8881 14.5 14.75 14.5H12.25C12.1119 14.5 12 14.3881 12 14.25V14.25Z" fill="#E5E5E5"/>
<path opacity="0.7" d="M17 14.25C17 14.1119 17.1119 14 17.25 14H19.75C19.8881 14 20 14.1119 20 14.25V14.25C20 14.3881 19.8881 14.5 19.75 14.5H17.25C17.1119 14.5 17 14.3881 17 14.25V14.25Z" fill="#E5E5E5"/>
<path opacity="0.8" d="M7 17C7 16.4477 7.44772 16 8 16H9C9.55228 16 10 16.4477 10 17V18C10 18.5523 9.55228 19 9 19H8C7.44772 19 7 18.5523 7 18V17Z" fill="#E5E5E5"/>
<path opacity="0.8" d="M12 17C12 16.4477 12.4477 16 13 16H14C14.5523 16 15 16.4477 15 17V18C15 18.5523 14.5523 19 14 19H13C12.4477 19 12 18.5523 12 18V17Z" fill="#E5E5E5"/>
<path opacity="0.8" d="M17 17C17 16.4477 17.4477 16 18 16H19C19.5523 16 20 16.4477 20 17V18C20 18.5523 19.5523 19 19 19H18C17.4477 19 17 18.5523 17 18V17Z" fill="#E5E5E5"/>
</svg>
