<svg width="25" height="8" viewBox="0 0 25 8" fill="none" xmlns="http://www.w3.org/2000/svg">
<path d="M6 0H11V8H6V0Z" fill="#556068"/>
<path d="M12 0H17V8H12V0Z" fill="#556068"/>
<path d="M18 0H25V8H18V0Z" fill="#556068" fill-opacity="0.5"/>
<path d="M0 0H5V8H0V0Z" fill="#556068"/>
<path d="M0 7H2.5C2.77614 7 3 7.22386 3 7.5V8H0V7Z" fill="#D5DDE2"/>
<path d="M6 7H8.5C8.77614 7 9 7.22386 9 7.5V8H6V7Z" fill="#D5DDE2"/>
<path d="M12 7H14.5C14.7761 7 15 7.22386 15 7.5V8H12V7Z" fill="#D5DDE2"/>
<path d="M22 7.5C22 7.22386 22.2239 7 22.5 7H24.5C24.7761 7 25 7.22386 25 7.5V7.5C25 7.77614 24.7761 8 24.5 8H22.5C22.2239 8 22 7.77614 22 7.5V7.5Z" fill="#D5DDE2"/>
<path d="M22 1.25C22 1.11193 22.1119 1 22.25 1H24.75C24.8881 1 25 1.11193 25 1.25V1.25C25 1.38807 24.8881 1.5 24.75 1.5H22.25C22.1119 1.5 22 1.38807 22 1.25V1.25Z" fill="#D5DDE2"/>
<path d="M21 3.25C21 3.11193 21.1119 3 21.25 3H24.75C24.8881 3 25 3.11193 25 3.25V3.25C25 3.38807 24.8881 3.5 24.75 3.5H21.25C21.1119 3.5 21 3.38807 21 3.25V3.25Z" fill="#D5DDE2"/>
<path d="M20 4.25C20 4.11193 20.1119 4 20.25 4H24.75C24.8881 4 25 4.11193 25 4.25V4.25C25 4.38807 24.8881 4.5 24.75 4.5H20.25C20.1119 4.5 20 4.38807 20 4.25V4.25Z" fill="#D5DDE2"/>
</svg>
