<svg width="26" height="13" viewBox="0 0 26 13" fill="none" xmlns="http://www.w3.org/2000/svg">
<path d="M18 8C18 7.44772 18.4477 7 19 7H25C25.5523 7 26 7.44772 26 8V12C26 12.5523 25.5523 13 25 13H19C18.4477 13 18 12.5523 18 12V8Z" fill="#556068"/>
<path d="M9 1C9 0.447715 9.44772 0 10 0H16C16.5523 0 17 0.447715 17 1V5C17 5.55228 16.5523 6 16 6H10C9.44772 6 9 5.55228 9 5V1Z" fill="#556068"/>
<path d="M18 1C18 0.447715 18.4477 0 19 0H25C25.5523 0 26 0.447715 26 1V5C26 5.55228 25.5523 6 25 6H19C18.4477 6 18 5.55228 18 5V1Z" fill="#556068"/>
<path d="M0 1C0 0.447715 0.447715 0 1 0H7C7.55228 0 8 0.447715 8 1V5C8 5.55228 7.55228 6 7 6H1C0.447715 6 0 5.55228 0 5V1Z" fill="#556068"/>
<path d="M0 8C0 7.44772 0.447715 7 1 7H16C16.5523 7 17 7.44772 17 8V12C17 12.5523 16.5523 13 16 13H1C0.447715 13 0 12.5523 0 12V8Z" fill="#556068"/>
</svg>
