<svg width="25" height="13" viewBox="0 0 25 13" fill="none" xmlns="http://www.w3.org/2000/svg">
<path d="M6 7C6 6.44772 6.44772 6 7 6H10C10.5523 6 11 6.44772 11 7V12C11 12.5523 10.5523 13 10 13H7C6.44772 13 6 12.5523 6 12V7Z" fill="#556068"/>
<path d="M6 1C6 0.447715 6.44772 0 7 0H10C10.5523 0 11 0.447715 11 1V4C11 4.55228 10.5523 5 10 5H7C6.44772 5 6 4.55228 6 4V1Z" fill="#556068"/>
<path d="M0 9C0 8.44772 0.447715 8 1 8H4C4.55228 8 5 8.44772 5 9V12C5 12.5523 4.55228 13 4 13H1C0.447715 13 0 12.5523 0 12V9Z" fill="#556068"/>
<path d="M0 1C0 0.447715 0.447715 0 1 0H4C4.55228 0 5 0.447715 5 1V6C5 6.55228 4.55228 7 4 7H1C0.447715 7 0 6.55228 0 6V1Z" fill="#556068"/>
<path d="M12 1C12 0.447715 12.4477 0 13 0H24C24.5523 0 25 0.447715 25 1V12C25 12.5523 24.5523 13 24 13H13C12.4477 13 12 12.5523 12 12V1Z" fill="#556068"/>
</svg>
