<svg width="16" height="27" viewBox="0 0 16 27" fill="none" xmlns="http://www.w3.org/2000/svg">
<path d="M0 1C0 0.447715 0.447715 0 1 0H15C15.5523 0 16 0.447715 16 1V14C16 14.5523 15.5523 15 15 15H1C0.447715 15 0 14.5523 0 14V1Z" fill="#556068"/>
<path d="M2 17C2 16.4477 2.44772 16 3 16H13C13.5523 16 14 16.4477 14 17V17C14 17.5523 13.5523 18 13 18H3C2.44772 18 2 17.5523 2 17V17Z" fill="#556068" fill-opacity="0.5"/>
<path d="M5 26C5 25.4477 5.44772 25 6 25H10C10.5523 25 11 25.4477 11 26V26C11 26.5523 10.5523 27 10 27H6C5.44772 27 5 26.5523 5 26V26Z" fill="#556068" fill-opacity="0.5"/>
<path d="M6.02 22.045C5.874 22.045 5.728 22.024 5.582 21.982C5.438 21.94 5.314 21.885 5.21 21.817L5.303 21.601C5.391 21.657 5.501 21.705 5.633 21.745C5.765 21.783 5.89 21.802 6.008 21.802C6.17 21.802 6.298 21.773 6.392 21.715C6.486 21.657 6.533 21.576 6.533 21.472C6.533 21.398 6.511 21.339 6.467 21.295C6.423 21.249 6.366 21.214 6.296 21.19C6.226 21.164 6.125 21.134 5.993 21.1C5.819 21.052 5.681 21.003 5.579 20.953C5.479 20.901 5.404 20.838 5.354 20.764C5.306 20.69 5.282 20.596 5.282 20.482C5.282 20.362 5.315 20.258 5.381 20.17C5.449 20.082 5.541 20.015 5.657 19.969C5.775 19.923 5.908 19.9 6.056 19.9C6.264 19.9 6.486 19.945 6.722 20.035L6.638 20.26C6.434 20.184 6.24 20.146 6.056 20.146C5.898 20.146 5.773 20.177 5.681 20.239C5.589 20.299 5.543 20.381 5.543 20.485C5.543 20.561 5.563 20.622 5.603 20.668C5.645 20.712 5.701 20.747 5.771 20.773C5.843 20.799 5.947 20.829 6.083 20.863C6.329 20.925 6.509 21 6.623 21.088C6.737 21.174 6.794 21.295 6.794 21.451C6.794 21.637 6.722 21.783 6.578 21.889C6.434 21.993 6.248 22.045 6.02 22.045ZM5.954 22H6.155V22.339H5.954V22ZM5.954 19.603H6.155V19.945H5.954V19.603Z" fill="black"/>
<path d="M8.26691 21.568V22H8.00891V21.568H7.11191V21.343L7.90091 19.951H8.26691V21.325H8.56991V21.568H8.26691ZM8.00891 20.287L7.38791 21.325H8.00891V20.287Z" fill="black"/>
<path d="M9.55534 22.03C9.42934 22.03 9.31234 22 9.20434 21.94C9.09634 21.878 9.01034 21.795 8.94634 21.691C8.88434 21.585 8.85333 21.47 8.85333 21.346H9.11434C9.11434 21.424 9.13433 21.497 9.17434 21.565C9.21433 21.631 9.26733 21.684 9.33333 21.724C9.40133 21.764 9.47534 21.784 9.55534 21.784C9.63334 21.784 9.70534 21.764 9.77134 21.724C9.83934 21.684 9.89333 21.631 9.93333 21.565C9.97333 21.497 9.99334 21.423 9.99334 21.343C9.99334 21.265 9.97333 21.192 9.93333 21.124C9.89533 21.056 9.84233 21.002 9.77433 20.962C9.70833 20.922 9.63534 20.902 9.55534 20.902C9.39734 20.902 9.25834 20.975 9.13834 21.121L9.05733 20.896C9.12933 20.832 9.20233 20.781 9.27633 20.743C9.35233 20.703 9.44433 20.683 9.55233 20.683C9.68033 20.683 9.79833 20.712 9.90633 20.77C10.0143 20.828 10.0993 20.908 10.1613 21.01C10.2253 21.11 10.2573 21.222 10.2573 21.346C10.2573 21.47 10.2253 21.585 10.1613 21.691C10.0993 21.795 10.0143 21.878 9.90633 21.94C9.79833 22 9.68134 22.03 9.55534 22.03ZM8.88633 21.055L8.99133 19.951H10.1373V20.191H9.22534L9.13834 21.121L8.88633 21.055Z" fill="black"/>
</svg>
