<svg width="24" height="8" viewBox="0 0 24 8" fill="none" xmlns="http://www.w3.org/2000/svg">
<path d="M0 0H22C23.1046 0 24 0.895431 24 2V8H2C0.89543 8 0 7.10457 0 6V0Z" fill="#E5E5E5"/>
<path d="M14 0H22C23.1046 0 24 0.895431 24 2V8H16C14.8954 8 14 7.10457 14 6V0Z" fill="#556068"/>
<path d="M7 2.25C7 2.11193 7.11193 2 7.25 2H12.75C12.8881 2 13 2.11193 13 2.25V2.25C13 2.38807 12.8881 2.5 12.75 2.5H7.25C7.11193 2.5 7 2.38807 7 2.25V2.25Z" fill="#A2A2A2"/>
<path d="M9 3.75C9 3.61193 9.11193 3.5 9.25 3.5H12.75C12.8881 3.5 13 3.61193 13 3.75V3.75C13 3.88807 12.8881 4 12.75 4H9.25C9.11193 4 9 3.88807 9 3.75V3.75Z" fill="#A2A2A2"/>
<path d="M2 6C2 5.44772 2.44772 5 3 5V5C3.55228 5 4 5.44772 4 6V6C4 6.55228 3.55228 7 3 7V7C2.44772 7 2 6.55228 2 6V6Z" fill="#A2A2A2"/>
</svg>
