<svg width="25" height="13" viewBox="0 0 25 13" fill="none" xmlns="http://www.w3.org/2000/svg">
<path d="M0 8C0 7.44772 0.447715 7 1 7H8C8.55228 7 9 7.44772 9 8V12C9 12.5523 8.55228 13 8 13H1C0.447715 13 0 12.5523 0 12V8Z" fill="#556068"/>
<path d="M10 1C10 0.447715 10.4477 0 11 0H24C24.5523 0 25 0.447715 25 1V12C25 12.5523 24.5523 13 24 13H11C10.4477 13 10 12.5523 10 12V1Z" fill="#556068"/>
<path d="M0 1C0 0.447715 0.447715 0 1 0H8C8.55228 0 9 0.447715 9 1V5C9 5.55228 8.55228 6 8 6H1C0.447715 6 0 5.55228 0 5V1Z" fill="#556068"/>
</svg>
