<svg width="22" height="18" viewBox="0 0 22 18" fill="none" xmlns="http://www.w3.org/2000/svg">
<path d="M0 1C0 0.447716 0.447715 0 1 0H21C21.5523 0 22 0.447715 22 1V17C22 17.5523 21.5523 18 21 18H1C0.447716 18 0 17.5523 0 17V1Z" fill="#E5E5E5"/>
<path d="M8 5.5C8 4.94772 8.44772 4.5 9 4.5H13C13.5523 4.5 14 4.94772 14 5.5V9.5C14 10.0523 13.5523 10.5 13 10.5H9C8.44772 10.5 8 10.0523 8 9.5V5.5Z" fill="#556068"/>
<path d="M6 12.0714C6 11.7953 6.22386 11.5714 6.5 11.5714H15.5C15.7761 11.5714 16 11.7953 16 12.0714V12.0714C16 12.3476 15.7761 12.5714 15.5 12.5714H6.5C6.22386 12.5714 6 12.3476 6 12.0714V12.0714Z" fill="#556068"/>
</svg>
