<?xml version="1.0" encoding="UTF-8" standalone="no"?> <svg width="64" height="64" viewBox="0 0 64 64" fill="none" xmlns="http://www.w3.org/2000/svg">
<path d="M57 5H7C5.88052 5.00255 4.80704 5.44566 4.01171 6.23351C3.21638 7.02135 2.76314 8.09059 2.75 9.21V14.21C2.75 15.3372 3.19777 16.4182 3.9948 17.2152C4.79183 18.0122 5.87283 18.46 7 18.46H11.82V54.94C11.8305 56.0187 12.2658 57.0498 13.0314 57.8098C13.797 58.5698 14.8312 58.9974 15.91 59H48.09C49.1757 58.9974 50.2159 58.5642 50.9827 57.7956C51.7494 57.027 52.18 55.9857 52.18 54.9V18.46H57C58.1272 18.46 59.2082 18.0122 60.0052 17.2152C60.8022 16.4182 61.25 15.3372 61.25 14.21V9.21C61.2369 8.09059 60.7836 7.02135 59.9883 6.23351C59.193 5.44566 58.1195 5.00255 57 5V5ZM15.91 56.54C15.4968 56.5402 15.0998 56.3796 14.803 56.0921C14.5062 55.8047 14.333 55.413 14.32 55V50.28C15.8848 50.543 17.3287 51.2873 18.4507 52.4093C19.5727 53.5313 20.317 54.9752 20.58 56.54H15.91ZM43.42 56.54C43.683 54.9752 44.4273 53.5313 45.5493 52.4093C46.6713 51.2873 48.1152 50.543 49.68 50.28V55C49.68 55.2088 49.6389 55.4156 49.559 55.6085C49.4791 55.8014 49.3619 55.9767 49.2143 56.1243C49.0667 56.2719 48.8914 56.3891 48.6985 56.469C48.5056 56.5489 48.2988 56.59 48.09 56.59L43.42 56.54ZM49.68 47.76C47.4503 48.0406 45.3776 49.0561 43.7894 50.6461C42.2012 52.2361 41.1881 54.31 40.91 56.54H23.09C22.8119 54.31 21.7988 52.2361 20.2106 50.6461C18.6224 49.0561 16.5497 48.0406 14.32 47.76V18.46H49.68V47.76ZM58.75 14.21C58.7553 14.4432 58.714 14.675 58.6284 14.892C58.5429 15.1089 58.4148 15.3066 58.2518 15.4734C58.0888 15.6401 57.894 15.7726 57.6791 15.8631C57.4641 15.9535 57.2332 16.0001 57 16H7C6.53587 16 6.09075 15.8156 5.76256 15.4874C5.43437 15.1592 5.25 14.7141 5.25 14.25V9.25C5.24603 9.0172 5.28829 8.78593 5.37433 8.56957C5.46037 8.35322 5.58849 8.15609 5.75125 7.98961C5.91402 7.82312 6.10821 7.69058 6.32256 7.59967C6.53691 7.50876 6.76717 7.46129 7 7.46H57C57.4633 7.46263 57.9069 7.64784 58.2345 7.97546C58.5622 8.30309 58.7474 8.74668 58.75 9.21V14.21Z" fill="black"/>
<path d="M31.9999 42.6C34.2392 42.6 36.4282 41.9358 38.29 40.6915C40.1518 39.4472 41.6027 37.6787 42.4592 35.6096C43.3157 33.5406 43.5393 31.264 43.1017 29.0679C42.6641 26.8717 41.585 24.8547 40.0008 23.272C38.4167 21.6892 36.3987 20.6119 34.2022 20.1763C32.0057 19.7406 29.7293 19.9662 27.661 20.8245C25.5927 21.6828 23.8255 23.1353 22.5828 24.9982C21.3402 26.8611 20.678 29.0507 20.6799 31.29C20.6852 34.2897 21.8799 37.1649 24.0019 39.285C26.124 41.4052 29.0002 42.5973 31.9999 42.6V42.6ZM31.9999 22.46C33.7439 22.46 35.4488 22.977 36.899 23.9457C38.3492 24.9144 39.4797 26.2913 40.1476 27.9024C40.8154 29.5135 40.9907 31.2863 40.6512 32.997C40.3117 34.7076 39.4726 36.2792 38.2401 37.5131C37.0076 38.747 35.437 39.5878 33.7268 39.9293C32.0165 40.2707 30.2434 40.0975 28.6316 39.4314C27.0198 38.7654 25.6416 37.6365 24.6712 36.1874C23.7009 34.7382 23.1819 33.034 23.1799 31.29C23.1826 28.9506 24.1124 26.7077 25.7656 25.0527C27.4188 23.3976 29.6606 22.4653 31.9999 22.46V22.46Z" fill="black"/>
</svg>
