<?xml version="1.0" encoding="UTF-8"?>
<!DOCTYPE svg PUBLIC "-//W3C//DTD SVG 1.1//EN" "http://www.w3.org/Graphics/SVG/1.1/DTD/svg11.dtd">
<!-- Creator: CorelDRAW -->
<svg xmlns="http://www.w3.org/2000/svg" xml:space="preserve" width="1.70666in" height="1.70666in" style="shape-rendering:geometricPrecision; text-rendering:geometricPrecision; image-rendering:optimizeQuality; fill-rule:evenodd; clip-rule:evenodd"
viewBox="0 0 1.70666 1.70666"
 xmlns:xlink="http://www.w3.org/1999/xlink">
 <defs>
  <style type="text/css">
   <![CDATA[
    .fil0 {fill:black}
   ]]>
  </style>
 </defs>
 <g id="Layer_x0020_1">
  <metadata id="CorelCorpID_0Corel-Layer"/>
  <g id="_215481608">
   <g>
    <g id="_215483216">
     <path id="_237840360" class="fil0" d="M1.22469 1.3267l-0.835846 0c-0.0471732,0 -0.0855551,-0.038378 -0.0855551,-0.0855512l0 -0.775622c0,-0.0471732 0.038378,-0.0855512 0.0855551,-0.0855512l0.835846 0c0.0471693,0 0.0855472,0.038374 0.0855472,0.0855512l0 0.775622c0,0.0471732 -0.038374,0.0855512 -0.0855472,0.0855512zm-0.835846 -0.90339c-0.0232795,0 -0.0422205,0.018937 -0.0422205,0.0422165l0 0.775622c0,0.0232795 0.0189409,0.0422205 0.0422205,0.0422205l0.835846 0c0.0232717,0 0.0422126,-0.0189409 0.0422126,-0.0422205l0 -0.775622c0,-0.0232795 -0.0189409,-0.0422165 -0.0422126,-0.0422165l-0.835846 0z"/>
    </g>
    <g id="_215483624">
     <path id="_237840072" class="fil0" d="M0.841169 1.22344l-0.412965 0c-0.0119685,0 -0.0216654,-0.00969685 -0.0216654,-0.0216654l0 -0.352732c0,-0.0119685 0.00969685,-0.0216654 0.0216654,-0.0216654 0.0119685,0 0.0216654,0.00969685 0.0216654,0.0216654l0 0.331067 0.391299 0c0.0119685,0 0.0216693,0.00969685 0.0216693,0.0216654 0,0.0119685 -0.00970079,0.0216654 -0.0216693,0.0216654z"/>
    </g>
    <g id="_215484128">
     <path id="_237839928" class="fil0" d="M0.686311 0.737346c-0.003,0 -0.00602756,-0.000625984 -0.00887008,-0.00190157 -0.00778346,-0.00349606 -0.0127874,-0.0112323 -0.0127874,-0.0197677l0 -0.314039c0,-0.0119685 0.00969685,-0.0216654 0.0216654,-0.0216654l0.240902 0c0.0119646,0 0.0216654,0.00970079 0.0216654,0.0216654l0 0.314039c0,0.0083937 -0.00484646,0.0160354 -0.0124449,0.0196102 -0.00759055,0.0035748 -0.0165669,0.00243701 -0.0230354,-0.00291732l-0.110429 -0.0914016 -0.10226 0.0909055c-0.00405118,0.00359449 -0.00919685,0.00547244 -0.0144055,0.00547244zm0.116161 -0.146587c0.0048937,0 0.00979921,0.00165354 0.013811,0.00497638l0.0892638 0.0738858 0 -0.246315 -0.197567 0 0 0.244122 0.0800906 -0.0711969c0.00409843,-0.00364173 0.00924409,-0.00547244 0.0144016,-0.00547244z"/>
    </g>
    <g id="_215484416">
     <path id="_237839376" class="fil0" d="M0.806768 1.66009c-0.215496,0 -0.418091,-0.0839134 -0.570469,-0.236291 -0.152378,-0.152374 -0.236291,-0.354972 -0.236291,-0.570461 0,-0.215496 0.0839134,-0.418091 0.236291,-0.570469 0.152378,-0.152374 0.354972,-0.236291 0.570472,-0.236291 0.215488,0 0.418087,0.0839134 0.570465,0.236291 0.152378,0.152378 0.236291,0.354972 0.236291,0.570469 0,0.0119646 -0.00970079,0.0216654 -0.0216654,0.0216654 -0.0119685,0 -0.0216654,-0.00970079 -0.0216654,-0.0216654 0,-0.420957 -0.342472,-0.763425 -0.763425,-0.763425 -0.420961,0 -0.763433,0.342469 -0.763433,0.763425 0,0.420949 0.342472,0.763421 0.763429,0.763421 0.0119646,0 0.0216654,0.00969685 0.0216654,0.0216654 0,0.0119685 -0.00970079,0.0216654 -0.0216654,0.0216654z"/>
    </g>
    <g id="_215481296">
     <path id="_237838968" class="fil0" d="M1.59186 0.875c-0.00733465,0 -0.0141732,-0.00370866 -0.0181693,-0.0098622l-0.0931299 -0.143366c-0.00651575,-0.0100354 -0.00366929,-0.0234567 0.00636614,-0.0299724 0.0100394,-0.00651181 0.0234567,-0.00366535 0.0299724,0.00636614l0.0749606 0.115398 0.0749606 -0.115398c0.00651575,-0.0100354 0.019937,-0.0128858 0.0299724,-0.00636614 0.0100354,0.00651969 0.0128819,0.019937 0.00636614,0.0299724l-0.0931299 0.143366c-0.00399606,0.00615354 -0.0108307,0.0098622 -0.0181693,0.0098622z"/>
    </g>
   </g>
  </g>
 </g>
</svg>
