<svg width="22" height="18" viewBox="0 0 22 18" fill="none" xmlns="http://www.w3.org/2000/svg">
<path d="M0 1C0 0.447716 0.447715 0 1 0H21C21.5523 0 22 0.447715 22 1V17C22 17.5523 21.5523 18 21 18H1C0.447716 18 0 17.5523 0 17V1Z" fill="#E5E5E5"/>
<path d="M14 7C14 6.44772 14.4477 6 15 6H19C19.5523 6 20 6.44772 20 7V11C20 11.5523 19.5523 12 19 12H15C14.4477 12 14 11.5523 14 11V7Z" fill="#556068"/>
<path d="M2 9.5C2 9.22386 2.22386 9 2.5 9H10.5C10.7761 9 11 9.22386 11 9.5V9.5C11 9.77614 10.7761 10 10.5 10H2.5C2.22386 10 2 9.77614 2 9.5V9.5Z" fill="#556068"/>
</svg>
