<svg width="22" height="28" viewBox="0 0 22 28" fill="none" xmlns="http://www.w3.org/2000/svg">
<path d="M0 1C0 0.447715 0.447715 0 1 0H21C21.5523 0 22 0.447715 22 1V27C22 27.5523 21.5523 28 21 28H1C0.447716 28 0 27.5523 0 27V1Z" fill="#E5E5E5"/>
<path d="M7 8C7 7.44772 7.44772 7 8 7H14C14.5523 7 15 7.44772 15 8V14C15 14.5523 14.5523 15 14 15H8C7.44772 15 7 14.5523 7 14V8Z" fill="#556068"/>
<path d="M5 19C5 18.4477 5.44772 18 6 18H16C16.5523 18 17 18.4477 17 19V19C17 19.5523 16.5523 20 16 20H6C5.44772 20 5 19.5523 5 19V19Z" fill="#556068"/>
</svg>
