<svg width="22" height="28" viewBox="0 0 22 28" fill="none" xmlns="http://www.w3.org/2000/svg">
<path d="M0 1C0 0.447715 0.447715 0 1 0H21C21.5523 0 22 0.447715 22 1V27C22 27.5523 21.5523 28 21 28H1C0.447716 28 0 27.5523 0 27V1Z" fill="#556068"/>
<path d="M6 10.5C6 10.2239 6.22386 10 6.5 10H15.5C15.7761 10 16 10.2239 16 10.5V10.5C16 10.7761 15.7761 11 15.5 11H6.5C6.22386 11 6 10.7761 6 10.5V10.5Z" fill="#E5E5E5"/>
<path d="M5 13.5C5 13.2239 5.22386 13 5.5 13H16.5C16.7761 13 17 13.2239 17 13.5V13.5C17 13.7761 16.7761 14 16.5 14H5.5C5.22386 14 5 13.7761 5 13.5V13.5Z" fill="#E5E5E5"/>
</svg>
