<svg width="22" height="14" viewBox="0 0 22 14" fill="none" xmlns="http://www.w3.org/2000/svg">
<path d="M0 1C0 0.447716 0.447715 0 1 0H21C21.5523 0 22 0.447715 22 1V13C22 13.5523 21.5523 14 21 14H1C0.447716 14 0 13.5523 0 13V1Z" fill="#556068"/>
<path d="M6 6.5C6 6.22386 6.22386 6 6.5 6H15.5C15.7761 6 16 6.22386 16 6.5V6.5C16 6.77614 15.7761 7 15.5 7H6.5C6.22386 7 6 6.77614 6 6.5V6.5Z" fill="#E5E5E5"/>
<path d="M5 9.5C5 9.22386 5.22386 9 5.5 9H16.5C16.7761 9 17 9.22386 17 9.5V9.5C17 9.77614 16.7761 10 16.5 10H5.5C5.22386 10 5 9.77614 5 9.5V9.5Z" fill="#E5E5E5"/>
</svg>
