<svg width="25" height="11" viewBox="0 0 25 11" fill="none" xmlns="http://www.w3.org/2000/svg">
<path d="M0 0.999999C0 0.447715 0.447715 0 1 0H11C11.5523 0 12 0.447715 12 1V3.8C12 4.35229 11.5523 4.8 11 4.8H1C0.447715 4.8 0 4.35228 0 3.8V0.999999Z" fill="#556068"/>
<path d="M3.2 2C3.2 1.77908 3.37908 1.6 3.6 1.6H6.8C7.02091 1.6 7.2 1.77908 7.2 2V2C7.2 2.22091 7.02091 2.4 6.8 2.4H3.6C3.37908 2.4 3.2 2.22091 3.2 2V2Z" fill="#D5DDE2"/>
<path d="M0.800003 3.6C0.800003 3.37908 0.979089 3.2 1.2 3.2H6.8C7.02092 3.2 7.2 3.37908 7.2 3.6V3.6C7.2 3.82091 7.02092 4 6.8 4H1.2C0.97909 4 0.800003 3.82091 0.800003 3.6V3.6Z" fill="#D5DDE2"/>
<path d="M11.2 2.4C11.2 3.28366 10.4837 4 9.6 4C8.71634 4 8 3.28366 8 2.4C8 1.51635 8.71634 0.800003 9.6 0.800003C10.4837 0.800003 11.2 1.51635 11.2 2.4Z" fill="#D5DDE2"/>
<path d="M13 0.999999C13 0.447715 13.4477 0 14 0H24C24.5523 0 25 0.447715 25 1V3.8C25 4.35229 24.5523 4.8 24 4.8H14C13.4477 4.8 13 4.35228 13 3.8V0.999999Z" fill="#9DAAB5"/>
<path d="M16.2 2C16.2 1.77908 16.3791 1.6 16.6 1.6H19.8C20.0209 1.6 20.2 1.77908 20.2 2V2C20.2 2.22091 20.0209 2.4 19.8 2.4H16.6C16.3791 2.4 16.2 2.22091 16.2 2V2Z" fill="#D5DDE2"/>
<path d="M13.8 3.6C13.8 3.37908 13.9791 3.2 14.2 3.2H19.8C20.0209 3.2 20.2 3.37908 20.2 3.6V3.6C20.2 3.82091 20.0209 4 19.8 4H14.2C13.9791 4 13.8 3.82091 13.8 3.6V3.6Z" fill="#D5DDE2"/>
<path d="M24.2 2.4C24.2 3.28366 23.4837 4 22.6 4C21.7163 4 21 3.28366 21 2.4C21 1.51635 21.7163 0.800003 22.6 0.800003C23.4837 0.800003 24.2 1.51635 24.2 2.4Z" fill="#D5DDE2"/>
<path d="M13 7C13 6.44771 13.4477 6 14 6H24C24.5523 6 25 6.44772 25 7V9.8C25 10.3523 24.5523 10.8 24 10.8H14C13.4477 10.8 13 10.3523 13 9.8V7Z" fill="#9DAAB5"/>
<path d="M16.2 8C16.2 7.77908 16.3791 7.6 16.6 7.6H19.8C20.0209 7.6 20.2 7.77908 20.2 8V8C20.2 8.22091 20.0209 8.4 19.8 8.4H16.6C16.3791 8.4 16.2 8.22091 16.2 8V8Z" fill="#D5DDE2"/>
<path d="M13.8 9.6C13.8 9.37908 13.9791 9.2 14.2 9.2H19.8C20.0209 9.2 20.2 9.37908 20.2 9.6V9.6C20.2 9.82091 20.0209 10 19.8 10H14.2C13.9791 10 13.8 9.82091 13.8 9.6V9.6Z" fill="#D5DDE2"/>
<path d="M24.2 8.4C24.2 9.28366 23.4837 10 22.6 10C21.7163 10 21 9.28366 21 8.4C21 7.51635 21.7163 6.8 22.6 6.8C23.4837 6.8 24.2 7.51635 24.2 8.4Z" fill="#D5DDE2"/>
<path d="M0 7C0 6.44771 0.447715 6 1 6H11C11.5523 6 12 6.44772 12 7V9.8C12 10.3523 11.5523 10.8 11 10.8H1C0.447715 10.8 0 10.3523 0 9.8V7Z" fill="#9DAAB5"/>
<path d="M3.2 8C3.2 7.77908 3.37908 7.6 3.6 7.6H6.8C7.02091 7.6 7.2 7.77908 7.2 8V8C7.2 8.22091 7.02091 8.4 6.8 8.4H3.6C3.37908 8.4 3.2 8.22091 3.2 8V8Z" fill="#D5DDE2"/>
<path d="M0.800003 9.6C0.800003 9.37908 0.979089 9.2 1.2 9.2H6.8C7.02092 9.2 7.2 9.37908 7.2 9.6V9.6C7.2 9.82091 7.02092 10 6.8 10H1.2C0.97909 10 0.800003 9.82091 0.800003 9.6V9.6Z" fill="#D5DDE2"/>
<path d="M11.2 8.4C11.2 9.28366 10.4837 10 9.6 10C8.71634 10 8 9.28366 8 8.4C8 7.51635 8.71634 6.8 9.6 6.8C10.4837 6.8 11.2 7.51635 11.2 8.4Z" fill="#D5DDE2"/>
</svg>
