<svg width="23" height="25" viewBox="0 0 23 25" fill="none" xmlns="http://www.w3.org/2000/svg">
<path d="M0 2C0 1.44772 0.447715 1 1 1H22C22.5523 1 23 1.44772 23 2V24C23 24.5523 22.5523 25 22 25H1C0.447715 25 0 24.5523 0 24V2Z" fill="#556068"/>
<path d="M3 6C3 5.44772 3.44772 5 4 5H19C19.5523 5 20 5.44772 20 6V22C20 22.5523 19.5523 23 19 23H4C3.44772 23 3 22.5523 3 22V6Z" fill="#D5DDE2"/>
<path d="M15 3.5C15 5.433 13.433 7 11.5 7C9.567 7 8 5.433 8 3.5C8 1.567 9.567 0 11.5 0C13.433 0 15 1.567 15 3.5Z" fill="#D5DDE2"/>
<path fill-rule="evenodd" clip-rule="evenodd" d="M11.5 6C12.8807 6 14 4.88071 14 3.5C14 2.11929 12.8807 1 11.5 1C10.1193 1 9 2.11929 9 3.5C9 4.88071 10.1193 6 11.5 6ZM11.5 7C13.433 7 15 5.433 15 3.5C15 1.567 13.433 0 11.5 0C9.567 0 8 1.567 8 3.5C8 5.433 9.567 7 11.5 7Z" fill="#556068"/>
</svg>
