<svg width="19" height="22" viewBox="0 0 19 22" fill="none" xmlns="http://www.w3.org/2000/svg">
<path d="M0 4C0 3.44771 0.447715 3 1 3H18C18.5523 3 19 3.44772 19 4V21C19 21.5523 18.5523 22 18 22H1C0.447715 22 0 21.5523 0 21V4Z" fill="#556068"/>
<path d="M5 9.5C5 9.22386 5.22386 9 5.5 9H13.5C13.7761 9 14 9.22386 14 9.5V9.5C14 9.77614 13.7761 10 13.5 10H5.5C5.22386 10 5 9.77614 5 9.5V9.5Z" fill="#D5DDE2"/>
<path d="M13 3.5C13 5.433 11.433 7 9.5 7C7.567 7 6 5.433 6 3.5C6 1.567 7.567 0 9.5 0C11.433 0 13 1.567 13 3.5Z" fill="#D5DDE2"/>
</svg>
