<svg width="22" height="19" viewBox="0 0 22 19" fill="none" xmlns="http://www.w3.org/2000/svg">
<path d="M0 1C0 0.447716 0.447715 0 1 0H18C18.5523 0 19 0.447715 19 1V9C19 9.55228 18.5523 10 18 10H1C0.447715 10 0 9.55228 0 9V1Z" fill="#A2A2A2"/>
<path d="M10 8C10 7.44772 10.4477 7 11 7H21C21.5523 7 22 7.44772 22 8V18C22 18.5523 21.5523 19 21 19H11C10.4477 19 10 18.5523 10 18V8Z" fill="#556068"/>
<path d="M15 12.5C15 12.2239 15.2239 12 15.5 12H20.5C20.7761 12 21 12.2239 21 12.5V12.5C21 12.7761 20.7761 13 20.5 13H15.5C15.2239 13 15 12.7761 15 12.5V12.5Z" fill="#D5DDE2"/>
<path d="M12.323 8.589C12.1223 8.88767 11.9847 9.12334 11.91 9.296C11.8353 9.464 11.7957 9.555 11.791 9.569C11.8797 9.55967 11.966 9.59467 12.05 9.674C12.134 9.74867 12.176 9.83967 12.176 9.947C12.176 10.0683 12.1317 10.1733 12.043 10.262C11.959 10.346 11.8563 10.388 11.735 10.388C11.609 10.388 11.5063 10.346 11.427 10.262C11.3477 10.1733 11.308 10.0637 11.308 9.933C11.308 9.513 11.532 8.988 11.98 8.358L12.323 8.589ZM13.359 8.589C13.1723 8.85967 13.037 9.086 12.953 9.268C12.8737 9.45 12.8293 9.55034 12.82 9.569C12.9133 9.55967 12.9997 9.59467 13.079 9.674C13.163 9.74867 13.205 9.83967 13.205 9.947C13.205 10.0683 13.163 10.1733 13.079 10.262C12.995 10.346 12.8923 10.388 12.771 10.388C12.645 10.388 12.5423 10.346 12.463 10.262C12.3837 10.1733 12.344 10.0637 12.344 9.933C12.344 9.513 12.568 8.988 13.016 8.358L13.359 8.589Z" fill="#D5DDE2"/>
</svg>
