<svg width="18" height="19" viewBox="0 0 18 19" fill="none" xmlns="http://www.w3.org/2000/svg">
<path d="M0 1C0 0.447715 0.447715 0 1 0H17C17.5523 0 18 0.447715 18 1V18C18 18.5523 17.5523 19 17 19H1C0.447716 19 0 18.5523 0 18V1Z" fill="#556068"/>
<path d="M9 9.5C9 9.22386 9.22386 9 9.5 9H15.5C15.7761 9 16 9.22386 16 9.5V9.5C16 9.77614 15.7761 10 15.5 10H9.5C9.22386 10 9 9.77614 9 9.5V9.5Z" fill="#D5DDE2"/>
<path d="M5 11.5C5 11.2239 5.22386 11 5.5 11H15.5C15.7761 11 16 11.2239 16 11.5V11.5C16 11.7761 15.7761 12 15.5 12H5.5C5.22386 12 5 11.7761 5 11.5V11.5Z" fill="#D5DDE2"/>
<path d="M16 5C16 6.10457 15.1046 7 14 7C12.8954 7 12 6.10457 12 5C12 3.89543 12.8954 3 14 3C15.1046 3 16 3.89543 16 5Z" fill="#D5DDE2"/>
</svg>
