<svg width="27" height="22" viewBox="0 0 27 22" fill="none" xmlns="http://www.w3.org/2000/svg">
<path d="M1.5 11.5C1.5 10.1193 2.61929 9 4 9H23C24.3807 9 25.5 10.1193 25.5 11.5V11.5C25.5 12.8807 24.3807 14 23 14H4C2.61929 14 1.5 12.8807 1.5 11.5V11.5Z" fill="#E5E5E5"/>
<path fill-rule="evenodd" clip-rule="evenodd" d="M3.3757 8.36091C3.57778 8.32093 3.78655 8.3 4 8.3C4.21346 8.3 4.42223 8.32093 4.6243 8.36091C4.73266 8.38234 4.80312 8.48756 4.78169 8.59592C4.76025 8.70428 4.65503 8.77474 4.54668 8.7533C4.37003 8.71836 4.18726 8.7 4 8.7C3.81275 8.7 3.62998 8.71836 3.45333 8.7533C3.34497 8.77474 3.23976 8.70428 3.21832 8.59592C3.19688 8.48756 3.26735 8.38234 3.3757 8.36091ZM5.50066 8.89404C5.56211 8.80226 5.68633 8.77766 5.77811 8.83911C6.12699 9.07268 6.42732 9.37301 6.66089 9.72189C6.72234 9.81368 6.69775 9.9379 6.60596 9.99935C6.51418 10.0608 6.38995 10.0362 6.32851 9.94442C6.12402 9.63899 5.86102 9.37598 5.55559 9.1715C5.4638 9.11005 5.43921 8.98583 5.50066 8.89404ZM2.49935 8.89404C2.5608 8.98583 2.53621 9.11005 2.44442 9.1715C2.13899 9.37598 1.87598 9.63899 1.6715 9.94442C1.61005 10.0362 1.48583 10.0608 1.39404 9.99935C1.30226 9.9379 1.27766 9.81368 1.33911 9.72189C1.57268 9.37301 1.87301 9.07268 2.22189 8.83911C2.31368 8.77766 2.4379 8.80226 2.49935 8.89404ZM6.90409 10.7183C7.01244 10.6969 7.11766 10.7673 7.1391 10.8757C7.17907 11.0778 7.2 11.2865 7.2 11.5C7.2 11.7135 7.17907 11.9222 7.1391 12.1243C7.11766 12.2327 7.01244 12.3031 6.90409 12.2817C6.79573 12.2603 6.72527 12.155 6.7467 12.0467C6.78165 11.87 6.8 11.6873 6.8 11.5C6.8 11.3127 6.78165 11.13 6.7467 10.9533C6.72527 10.845 6.79573 10.7398 6.90409 10.7183ZM1.09592 10.7183C1.20428 10.7398 1.27474 10.845 1.2533 10.9533C1.21836 11.13 1.2 11.3127 1.2 11.5C1.2 11.6873 1.21836 11.87 1.2533 12.0467C1.27474 12.155 1.20428 12.2603 1.09592 12.2817C0.987562 12.3031 0.882344 12.2327 0.860908 12.1243C0.820931 11.9222 0.800003 11.7135 0.800003 11.5C0.800003 11.2865 0.820931 11.0778 0.860908 10.8757C0.882344 10.7673 0.987562 10.6969 1.09592 10.7183ZM6.60596 13.0007C6.69775 13.0621 6.72234 13.1863 6.66089 13.2781C6.42732 13.627 6.12699 13.9273 5.77811 14.1609C5.68633 14.2223 5.56211 14.1977 5.50066 14.106C5.43921 14.0142 5.4638 13.89 5.55559 13.8285C5.86102 13.624 6.12403 13.361 6.32851 13.0556C6.38996 12.9638 6.51418 12.9392 6.60596 13.0007ZM1.39404 13.0007C1.48583 12.9392 1.61005 12.9638 1.6715 13.0556C1.87598 13.361 2.13899 13.624 2.44442 13.8285C2.53621 13.89 2.5608 14.0142 2.49935 14.106C2.4379 14.1977 2.31368 14.2223 2.22189 14.1609C1.87301 13.9273 1.57268 13.627 1.33911 13.2781C1.27766 13.1863 1.30226 13.0621 1.39404 13.0007ZM3.21832 14.4041C3.23976 14.2957 3.34497 14.2253 3.45333 14.2467C3.62998 14.2816 3.81275 14.3 4 14.3C4.18726 14.3 4.37003 14.2816 4.54668 14.2467C4.65503 14.2253 4.76025 14.2957 4.78169 14.4041C4.80312 14.5124 4.73266 14.6177 4.6243 14.6391C4.42223 14.6791 4.21346 14.7 4 14.7C3.78655 14.7 3.57778 14.6791 3.3757 14.6391C3.26735 14.6177 3.19688 14.5124 3.21832 14.4041Z" fill="#556068"/>
<path d="M6.5 11.5C6.5 12.8807 5.38072 14 4 14C2.61929 14 1.5 12.8807 1.5 11.5C1.5 10.1193 2.61929 9 4 9C5.38072 9 6.5 10.1193 6.5 11.5Z" fill="#556068"/>
<path d="M1.5 4C1.5 2.61929 2.61929 1.5 4 1.5H23C24.3807 1.5 25.5 2.61929 25.5 4V4C25.5 5.38071 24.3807 6.5 23 6.5H4C2.61929 6.5 1.5 5.38071 1.5 4V4Z" fill="#E5E5E5"/>
<path fill-rule="evenodd" clip-rule="evenodd" d="M22.8757 0.860908C23.0778 0.820931 23.2865 0.800003 23.5 0.800003C23.7135 0.800003 23.9222 0.820931 24.1243 0.860908C24.2327 0.882344 24.3031 0.987562 24.2817 1.09592C24.2603 1.20428 24.155 1.27474 24.0467 1.2533C23.87 1.21836 23.6873 1.2 23.5 1.2C23.3127 1.2 23.13 1.21836 22.9533 1.2533C22.845 1.27474 22.7398 1.20428 22.7183 1.09592C22.6969 0.987562 22.7673 0.882344 22.8757 0.860908ZM25.0007 1.39404C25.0621 1.30226 25.1863 1.27766 25.2781 1.33911C25.627 1.57268 25.9273 1.87301 26.1609 2.22189C26.2223 2.31368 26.1977 2.4379 26.106 2.49935C26.0142 2.5608 25.89 2.53621 25.8285 2.44442C25.624 2.13899 25.361 1.87598 25.0556 1.6715C24.9638 1.61005 24.9392 1.48583 25.0007 1.39404ZM21.9993 1.39404C22.0608 1.48583 22.0362 1.61005 21.9444 1.6715C21.639 1.87598 21.376 2.13899 21.1715 2.44442C21.1101 2.53621 20.9858 2.5608 20.894 2.49935C20.8023 2.4379 20.7777 2.31368 20.8391 2.22189C21.0727 1.87301 21.373 1.57268 21.7219 1.33911C21.8137 1.27766 21.9379 1.30226 21.9993 1.39404ZM26.4041 3.21832C26.5124 3.19688 26.6177 3.26735 26.6391 3.3757C26.6791 3.57778 26.7 3.78655 26.7 4C26.7 4.21346 26.6791 4.42223 26.6391 4.6243C26.6177 4.73266 26.5124 4.80312 26.4041 4.78169C26.2957 4.76025 26.2253 4.65503 26.2467 4.54668C26.2816 4.37003 26.3 4.18726 26.3 4C26.3 3.81275 26.2816 3.62998 26.2467 3.45333C26.2253 3.34497 26.2957 3.23976 26.4041 3.21832ZM20.5959 3.21832C20.7043 3.23976 20.7747 3.34497 20.7533 3.45333C20.7184 3.62998 20.7 3.81275 20.7 4C20.7 4.18726 20.7184 4.37003 20.7533 4.54668C20.7747 4.65503 20.7043 4.76025 20.5959 4.78169C20.4876 4.80312 20.3823 4.73266 20.3609 4.6243C20.3209 4.42223 20.3 4.21346 20.3 4C20.3 3.78655 20.3209 3.57778 20.3609 3.3757C20.3823 3.26735 20.4876 3.19688 20.5959 3.21832ZM26.106 5.50066C26.1977 5.56211 26.2223 5.68633 26.1609 5.77811C25.9273 6.12699 25.627 6.42732 25.2781 6.66089C25.1863 6.72234 25.0621 6.69775 25.0007 6.60596C24.9392 6.51418 24.9638 6.38995 25.0556 6.32851C25.361 6.12402 25.624 5.86102 25.8285 5.55559C25.89 5.4638 26.0142 5.43921 26.106 5.50066ZM20.894 5.50066C20.9858 5.43921 21.1101 5.4638 21.1715 5.55559C21.376 5.86102 21.639 6.12403 21.9444 6.32851C22.0362 6.38996 22.0608 6.51418 21.9993 6.60596C21.9379 6.69775 21.8137 6.72234 21.7219 6.66089C21.373 6.42732 21.0727 6.12699 20.8391 5.77811C20.7777 5.68633 20.8023 5.56211 20.894 5.50066ZM22.7183 6.90409C22.7398 6.79573 22.845 6.72527 22.9533 6.7467C23.13 6.78165 23.3127 6.8 23.5 6.8C23.6873 6.8 23.87 6.78165 24.0467 6.7467C24.155 6.72527 24.2603 6.79573 24.2817 6.90409C24.3031 7.01244 24.2327 7.11766 24.1243 7.1391C23.9222 7.17907 23.7135 7.2 23.5 7.2C23.2865 7.2 23.0778 7.17907 22.8757 7.1391C22.7673 7.11766 22.6969 7.01244 22.7183 6.90409Z" fill="#556068"/>
<path d="M26 4C26 5.38071 24.8807 6.5 23.5 6.5C22.1193 6.5 21 5.38071 21 4C21 2.61929 22.1193 1.5 23.5 1.5C24.8807 1.5 26 2.61929 26 4Z" fill="#556068"/>
<path d="M1.5 18.5C1.5 17.1193 2.61929 16 4 16H23C24.3807 16 25.5 17.1193 25.5 18.5V18.5C25.5 19.8807 24.3807 21 23 21H4C2.61929 21 1.5 19.8807 1.5 18.5V18.5Z" fill="#E5E5E5"/>
<path fill-rule="evenodd" clip-rule="evenodd" d="M22.8757 15.3609C23.0778 15.3209 23.2865 15.3 23.5 15.3C23.7135 15.3 23.9222 15.3209 24.1243 15.3609C24.2327 15.3823 24.3031 15.4876 24.2817 15.5959C24.2603 15.7043 24.155 15.7747 24.0467 15.7533C23.87 15.7184 23.6873 15.7 23.5 15.7C23.3127 15.7 23.13 15.7184 22.9533 15.7533C22.845 15.7747 22.7398 15.7043 22.7183 15.5959C22.6969 15.4876 22.7673 15.3823 22.8757 15.3609ZM25.0007 15.894C25.0621 15.8023 25.1863 15.7777 25.2781 15.8391C25.627 16.0727 25.9273 16.373 26.1609 16.7219C26.2223 16.8137 26.1977 16.9379 26.106 16.9993C26.0142 17.0608 25.89 17.0362 25.8285 16.9444C25.624 16.639 25.361 16.376 25.0556 16.1715C24.9638 16.1101 24.9392 15.9858 25.0007 15.894ZM21.9993 15.894C22.0608 15.9858 22.0362 16.1101 21.9444 16.1715C21.639 16.376 21.376 16.639 21.1715 16.9444C21.1101 17.0362 20.9858 17.0608 20.894 16.9993C20.8023 16.9379 20.7777 16.8137 20.8391 16.7219C21.0727 16.373 21.373 16.0727 21.7219 15.8391C21.8137 15.7777 21.9379 15.8023 21.9993 15.894ZM26.4041 17.7183C26.5124 17.6969 26.6177 17.7673 26.6391 17.8757C26.6791 18.0778 26.7 18.2865 26.7 18.5C26.7 18.7135 26.6791 18.9222 26.6391 19.1243C26.6177 19.2327 26.5124 19.3031 26.4041 19.2817C26.2957 19.2603 26.2253 19.155 26.2467 19.0467C26.2816 18.87 26.3 18.6873 26.3 18.5C26.3 18.3127 26.2816 18.13 26.2467 17.9533C26.2253 17.845 26.2957 17.7398 26.4041 17.7183ZM20.5959 17.7183C20.7043 17.7398 20.7747 17.845 20.7533 17.9533C20.7184 18.13 20.7 18.3127 20.7 18.5C20.7 18.6873 20.7184 18.87 20.7533 19.0467C20.7747 19.155 20.7043 19.2603 20.5959 19.2817C20.4876 19.3031 20.3823 19.2327 20.3609 19.1243C20.3209 18.9222 20.3 18.7135 20.3 18.5C20.3 18.2865 20.3209 18.0778 20.3609 17.8757C20.3823 17.7673 20.4876 17.6969 20.5959 17.7183ZM26.106 20.0007C26.1977 20.0621 26.2223 20.1863 26.1609 20.2781C25.9273 20.627 25.627 20.9273 25.2781 21.1609C25.1863 21.2223 25.0621 21.1977 25.0007 21.106C24.9392 21.0142 24.9638 20.89 25.0556 20.8285C25.361 20.624 25.624 20.361 25.8285 20.0556C25.89 19.9638 26.0142 19.9392 26.106 20.0007ZM20.894 20.0007C20.9858 19.9392 21.1101 19.9638 21.1715 20.0556C21.376 20.361 21.639 20.624 21.9444 20.8285C22.0362 20.89 22.0608 21.0142 21.9993 21.106C21.9379 21.1977 21.8137 21.2223 21.7219 21.1609C21.373 20.9273 21.0727 20.627 20.8391 20.2781C20.7777 20.1863 20.8023 20.0621 20.894 20.0007ZM22.7183 21.4041C22.7398 21.2957 22.845 21.2253 22.9533 21.2467C23.13 21.2816 23.3127 21.3 23.5 21.3C23.6873 21.3 23.87 21.2816 24.0467 21.2467C24.155 21.2253 24.2603 21.2957 24.2817 21.4041C24.3031 21.5124 24.2327 21.6177 24.1243 21.6391C23.9222 21.6791 23.7135 21.7 23.5 21.7C23.2865 21.7 23.0778 21.6791 22.8757 21.6391C22.7673 21.6177 22.6969 21.5124 22.7183 21.4041Z" fill="#556068"/>
<path d="M26 18.5C26 19.8807 24.8807 21 23.5 21C22.1193 21 21 19.8807 21 18.5C21 17.1193 22.1193 16 23.5 16C24.8807 16 26 17.1193 26 18.5Z" fill="#556068"/>
</svg>
