<svg width="23" height="24" viewBox="0 0 23 24" fill="none" xmlns="http://www.w3.org/2000/svg">
<path d="M0 1C0 0.447716 0.447715 0 1 0H22C22.5523 0 23 0.447715 23 1V23C23 23.5523 22.5523 24 22 24H1C0.447715 24 0 23.5523 0 23V1Z" fill="#556068"/>
<path fill-rule="evenodd" clip-rule="evenodd" d="M21.5 1.5H1.5V22.5H21.5V1.5ZM1 1V23H22V1H1Z" fill="#D5DDE2"/>
<path d="M8 6.5C8 6.22386 8.22386 6 8.5 6H14.5C14.7761 6 15 6.22386 15 6.5V6.5C15 6.77614 14.7761 7 14.5 7H8.5C8.22386 7 8 6.77614 8 6.5V6.5Z" fill="#D5DDE2"/>
<path fill-rule="evenodd" clip-rule="evenodd" d="M6.85 17.7C6.85 17.2306 7.23056 16.85 7.7 16.85H15.3C15.7694 16.85 16.15 17.2306 16.15 17.7V19.3C16.15 19.7694 15.7694 20.15 15.3 20.15H7.7C7.23056 20.15 6.85 19.7694 6.85 19.3V17.7ZM7.7 17.15C7.39624 17.15 7.15 17.3962 7.15 17.7V19.3C7.15 19.6038 7.39624 19.85 7.7 19.85H15.3C15.6038 19.85 15.85 19.6038 15.85 19.3V17.7C15.85 17.3962 15.6038 17.15 15.3 17.15H7.7Z" fill="#D5DDE2"/>
</svg>
