<svg width="25" height="11" viewBox="0 0 25 11" fill="none" xmlns="http://www.w3.org/2000/svg">
<path d="M1 0.75C1 0.335786 1.33579 0 1.75 0V0C2.16421 0 2.5 0.335786 2.5 0.75V0.75C2.5 1.16421 2.16421 1.5 1.75 1.5V1.5C1.33579 1.5 1 1.16421 1 0.75V0.75Z" fill="#E5E5E5"/>
<path d="M22 9.20001C22 8.37159 22.6716 7.70001 23.5 7.70001V7.70001C24.3284 7.70001 25 8.37159 25 9.20001V9.20001C25 10.0284 24.3284 10.7 23.5 10.7V10.7C22.6716 10.7 22 10.0284 22 9.20001V9.20001Z" fill="#E5E5E5"/>
<path d="M0 1.70001C0 1.14773 0.447715 0.700012 1 0.700012H23C23.5523 0.700012 24 1.14773 24 1.70001V8.70001C24 9.2523 23.5523 9.70001 23 9.70001H1C0.447716 9.70001 0 9.2523 0 8.70001V1.70001Z" fill="#556068"/>
<path d="M14 3.20001C14 2.92387 14.2239 2.70001 14.5 2.70001H21.5C21.7761 2.70001 22 2.92387 22 3.20001V3.20001C22 3.47615 21.7761 3.70001 21.5 3.70001H14.5C14.2239 3.70001 14 3.47615 14 3.20001V3.20001Z" fill="#E5E5E5"/>
<path d="M16 5.20001C16 4.92387 16.2239 4.70001 16.5 4.70001H21.5C21.7761 4.70001 22 4.92387 22 5.20001V5.20001C22 5.47615 21.7761 5.70001 21.5 5.70001H16.5C16.2239 5.70001 16 5.47615 16 5.20001V5.20001Z" fill="#E5E5E5"/>
</svg>
