<svg width="26" height="16" viewBox="0 0 26 16" fill="none" xmlns="http://www.w3.org/2000/svg">
<path d="M18 0.5C18 0.223858 18.2239 0 18.5 0H22.5C22.7761 0 23 0.223858 23 0.5V0.5C23 0.776142 22.7761 1 22.5 1H18.5C18.2239 1 18 0.776142 18 0.5V0.5Z" fill="#556068" fill-opacity="0.3"/>
<path d="M9 0.5C9 0.223858 9.22386 0 9.5 0H16.5C16.7761 0 17 0.223858 17 0.5V0.5C17 0.776142 16.7761 1 16.5 1H9.5C9.22386 1 9 0.776142 9 0.5V0.5Z" fill="#556068" fill-opacity="0.3"/>
<path d="M3 0.5C3 0.223858 3.22386 0 3.5 0H7.5C7.77614 0 8 0.223858 8 0.5V0.5C8 0.776142 7.77614 1 7.5 1H3.5C3.22386 1 3 0.776142 3 0.5V0.5Z" fill="#556068" fill-opacity="0.3"/>
<path d="M18 5C18 4.44772 18.4477 4 19 4H25C25.5523 4 26 4.44772 26 5V15C26 15.5523 25.5523 16 25 16H19C18.4477 16 18 15.5523 18 15V5Z" fill="#556068"/>
<path d="M9 5C9 4.44772 9.44772 4 10 4H16C16.5523 4 17 4.44772 17 5V15C17 15.5523 16.5523 16 16 16H10C9.44772 16 9 15.5523 9 15V5Z" fill="#556068"/>
<path d="M0 5C0 4.44772 0.447715 4 1 4H7C7.55228 4 8 4.44772 8 5V15C8 15.5523 7.55228 16 7 16H1C0.447715 16 0 15.5523 0 15V5Z" fill="#556068"/>
</svg>
