<svg width="30" height="6" viewBox="0 0 30 6" fill="none" xmlns="http://www.w3.org/2000/svg">
<path d="M4 2C4 1.44772 4.44772 1 5 1H10C10.5523 1 11 1.44772 11 2V5C11 5.55228 10.5523 6 10 6H5C4.44772 6 4 5.55228 4 5V2Z" fill="#556068"/>
<path d="M5.25 2.5C5.25 2.36193 5.36193 2.25 5.5 2.25H8C8.13807 2.25 8.25 2.36193 8.25 2.5V2.5C8.25 2.63807 8.13807 2.75 8 2.75H5.5C5.36193 2.75 5.25 2.63807 5.25 2.5V2.5Z" fill="#E5E5E5"/>
<path d="M5.25 4.625C5.25 4.34886 5.47386 4.125 5.75 4.125H7.75C8.02614 4.125 8.25 4.34886 8.25 4.625V4.625C8.25 4.90114 8.02614 5.125 7.75 5.125H5.75C5.47386 5.125 5.25 4.90114 5.25 4.625V4.625Z" fill="#E5E5E5"/>
<path d="M11.75 1C11.75 0.447715 12.1977 0 12.75 0H18.25C18.8023 0 19.25 0.447715 19.25 1V5C19.25 5.55228 18.8023 6 18.25 6H12.75C12.1977 6 11.75 5.55228 11.75 5V1Z" fill="#556068"/>
<path d="M13.25 2.5C13.25 2.36193 13.3619 2.25 13.5 2.25H16C16.1381 2.25 16.25 2.36193 16.25 2.5V2.5C16.25 2.63807 16.1381 2.75 16 2.75H13.5C13.3619 2.75 13.25 2.63807 13.25 2.5V2.5Z" fill="#E5E5E5"/>
<path d="M13.25 4.625C13.25 4.34886 13.4739 4.125 13.75 4.125H15.75C16.0261 4.125 16.25 4.34886 16.25 4.625V4.625C16.25 4.90114 16.0261 5.125 15.75 5.125H13.75C13.4739 5.125 13.25 4.90114 13.25 4.625V4.625Z" fill="#E5E5E5"/>
<path d="M20 2C20 1.44772 20.4477 1 21 1H26C26.5523 1 27 1.44772 27 2V5C27 5.55228 26.5523 6 26 6H21C20.4477 6 20 5.55228 20 5V2Z" fill="#556068"/>
<path d="M21.25 2.5C21.25 2.36193 21.3619 2.25 21.5 2.25H24C24.1381 2.25 24.25 2.36193 24.25 2.5V2.5C24.25 2.63807 24.1381 2.75 24 2.75H21.5C21.3619 2.75 21.25 2.63807 21.25 2.5V2.5Z" fill="#E5E5E5"/>
<path d="M21.25 4.625C21.25 4.34886 21.4739 4.125 21.75 4.125H23.75C24.0261 4.125 24.25 4.34886 24.25 4.625V4.625C24.25 4.90114 24.0261 5.125 23.75 5.125H21.75C21.4739 5.125 21.25 4.90114 21.25 4.625V4.625Z" fill="#E5E5E5"/>
<path opacity="0.6" fill-rule="evenodd" clip-rule="evenodd" d="M28.6465 3.00002L27.8232 2.1768L28.1768 1.82324L29.1768 2.82324C29.2744 2.92087 29.2744 3.07916 29.1768 3.1768L28.1768 4.1768L27.8232 3.82324L28.6465 3.00002Z" fill="#556068"/>
<path opacity="0.6" fill-rule="evenodd" clip-rule="evenodd" d="M1.35353 2.99998L2.17676 3.8232L1.8232 4.17676L0.823204 3.17676C0.725573 3.07913 0.725573 2.92084 0.823204 2.8232L1.8232 1.8232L2.17676 2.17676L1.35353 2.99998Z" fill="#556068"/>
</svg>
