<svg width="27" height="7" viewBox="0 0 27 7" fill="none" xmlns="http://www.w3.org/2000/svg">
<path d="M0.413025 2.30401H1.15503L1.17603 2.94101C1.29736 2.72168 1.45836 2.55134 1.65903 2.43001C1.86436 2.30401 2.09069 2.24101 2.33802 2.24101C2.89336 2.24101 3.23402 2.49068 3.36002 2.99001C3.47202 2.75668 3.63069 2.57468 3.83602 2.44401C4.04603 2.30868 4.28169 2.24101 4.54303 2.24101C5.30369 2.24101 5.69103 2.68901 5.70503 3.58501V6.00001H4.91402V3.63401C4.91402 3.36334 4.86269 3.16734 4.76003 3.04601C4.65736 2.92001 4.49169 2.85701 4.26302 2.85701C4.11369 2.85701 3.97836 2.88968 3.85702 2.95501C3.67036 3.05301 3.53503 3.22334 3.45103 3.46601V6.00001H2.66702V3.63401C2.66702 3.36334 2.61569 3.16734 2.51303 3.04601C2.41036 2.92001 2.24236 2.85701 2.00902 2.85701C1.77569 2.85701 1.58436 2.94334 1.43502 3.11601C1.32769 3.22334 1.25069 3.34001 1.20402 3.46601V6.00001H0.413025V2.30401Z" fill="black"/>
<path d="M8.75019 6.00001C8.70352 5.90201 8.66852 5.74801 8.64519 5.53801C8.40252 5.89268 8.03619 6.07001 7.54619 6.07001C7.31752 6.07001 7.10986 6.02334 6.92319 5.93001C6.74119 5.83668 6.59652 5.70834 6.48919 5.54501C6.38652 5.38168 6.33519 5.19968 6.33519 4.99901C6.33519 4.62101 6.47986 4.33401 6.76919 4.13801C7.05852 3.93734 7.47619 3.83701 8.02219 3.83701H8.61719V3.48701C8.61719 3.26301 8.55652 3.09268 8.43519 2.97601C8.31852 2.85468 8.14586 2.79401 7.91719 2.79401C7.70252 2.79401 7.52986 2.85001 7.39919 2.96201C7.27319 3.06934 7.21019 3.21401 7.21019 3.39601L6.42619 3.38901C6.42619 3.16968 6.49152 2.97368 6.62219 2.80101C6.75286 2.62368 6.93486 2.48601 7.16819 2.38801C7.40152 2.28534 7.66286 2.23401 7.95219 2.23401C8.40019 2.23401 8.75252 2.34368 9.00919 2.56301C9.26586 2.78234 9.39652 3.08334 9.40119 3.46601V5.16001C9.41052 5.52868 9.45486 5.79468 9.53419 5.95801V6.00001H8.75019ZM7.12619 4.95701C7.12619 5.12034 7.17986 5.25334 7.28719 5.35601C7.39452 5.45401 7.53919 5.50301 7.72119 5.50301C8.11319 5.50301 8.41186 5.34434 8.61719 5.02701V4.27101H8.06419C7.77019 4.27101 7.53919 4.32701 7.37119 4.43901C7.20786 4.55101 7.12619 4.72368 7.12619 4.95701Z" fill="black"/>
<path d="M11.0971 6.00001H10.3061V2.30401H11.0971V6.00001ZM10.2291 1.30301C10.2291 1.18168 10.2734 1.08134 10.3621 1.00201C10.4508 0.918011 10.5628 0.876011 10.6981 0.876011C10.8334 0.876011 10.9454 0.918011 11.0341 1.00201C11.1228 1.08134 11.1671 1.18168 11.1671 1.30301C11.1671 1.42434 11.1228 1.52468 11.0341 1.60401C10.9454 1.67868 10.8334 1.71601 10.6981 1.71601C10.5628 1.71601 10.4508 1.67868 10.3621 1.60401C10.2734 1.52468 10.2291 1.42434 10.2291 1.30301Z" fill="black"/>
<path d="M12.8403 6.00001H12.0493V0.799011H12.8403V6.00001Z" fill="black"/>
<path d="M15.3604 6.05601C15.0151 6.05601 14.7048 5.98134 14.4294 5.83201C14.1588 5.67801 13.9441 5.46334 13.7854 5.18801C13.6314 4.91268 13.5544 4.59768 13.5544 4.24301V4.12401C13.5544 3.76468 13.6221 3.44268 13.7574 3.15801C13.8974 2.86868 14.0958 2.64234 14.3524 2.47901C14.6091 2.31568 14.9101 2.23401 15.2554 2.23401C15.7361 2.23401 16.1188 2.39034 16.4034 2.70301C16.6881 3.01568 16.8304 3.44034 16.8304 3.97701V4.32701H14.3524L14.3594 4.41101C14.3874 4.72368 14.4971 4.97568 14.6884 5.16701C14.8844 5.35368 15.1224 5.44701 15.4024 5.44701C15.6171 5.44701 15.7991 5.41201 15.9484 5.34201C16.1024 5.26734 16.2378 5.15768 16.3544 5.01301L16.7254 5.44001C16.5808 5.63601 16.3894 5.78768 16.1514 5.89501C15.9134 6.00234 15.6498 6.05601 15.3604 6.05601ZM16.0604 3.83001V3.73901C16.0604 3.47768 15.9881 3.26534 15.8434 3.10201C15.7034 2.93401 15.5051 2.85001 15.2484 2.85001C15.0058 2.85001 14.8051 2.93868 14.6464 3.11601C14.4924 3.28868 14.3968 3.52668 14.3594 3.83001H16.0604Z" fill="black"/>
<path d="M17.4485 2.30401H18.1905L18.2185 2.92701C18.3165 2.70768 18.4472 2.53734 18.6105 2.41601C18.7738 2.29468 18.9628 2.23401 19.1775 2.23401C19.2988 2.23401 19.3968 2.24801 19.4715 2.27601L19.4505 3.00401C19.3712 2.98534 19.2638 2.97601 19.1285 2.97601C18.9092 2.97601 18.7248 3.02734 18.5755 3.13001C18.4262 3.22801 18.3142 3.37734 18.2395 3.57801V6.00001H17.4485V2.30401Z" fill="black"/>
<path d="M20 1.5C20 0.947715 20.4477 0.5 21 0.5H26C26.5523 0.5 27 0.947715 27 1.5V3.5C27 4.05228 26.5523 4.5 26 4.5H21C20.4477 4.5 20 4.05228 20 3.5V1.5Z" fill="#09C269"/>
<path d="M20 6V3.5H22L20 6Z" fill="#09C269"/>
<path d="M21.543 3.5H21.204V1.271H21.543V3.5Z" fill="white"/>
<path d="M22.59 3.5H22.251V1.916H22.59V3.5ZM22.218 1.487C22.218 1.435 22.237 1.392 22.275 1.358C22.313 1.322 22.361 1.304 22.419 1.304C22.477 1.304 22.525 1.322 22.563 1.358C22.601 1.392 22.62 1.435 22.62 1.487C22.62 1.539 22.601 1.582 22.563 1.616C22.525 1.648 22.477 1.664 22.419 1.664C22.361 1.664 22.313 1.648 22.275 1.616C22.237 1.582 22.218 1.539 22.218 1.487Z" fill="white"/>
<path d="M23.7001 1.502V1.913H23.9971V2.15H23.7001V3.032C23.7001 3.1 23.7091 3.152 23.7271 3.188C23.7471 3.222 23.7801 3.243 23.8261 3.251C23.8441 3.257 23.8691 3.26 23.9011 3.26C23.9511 3.26 23.9921 3.255 24.0241 3.245L24.0271 3.491C23.9611 3.513 23.8831 3.524 23.7931 3.524C23.6451 3.524 23.5361 3.487 23.4661 3.413C23.3961 3.339 23.3611 3.225 23.3611 3.071V2.15H23.1271V1.913H23.3611V1.502H23.7001Z" fill="white"/>
<path d="M25.2691 3.524C25.1211 3.524 24.9881 3.492 24.8701 3.428C24.7541 3.362 24.6621 3.27 24.5941 3.152C24.5281 3.034 24.4951 2.899 24.4951 2.747V2.696C24.4951 2.542 24.5241 2.404 24.5821 2.282C24.6421 2.158 24.7271 2.061 24.8371 1.991C24.9471 1.921 25.0761 1.886 25.2241 1.886C25.4301 1.886 25.5941 1.953 25.7161 2.087C25.8381 2.221 25.8991 2.403 25.8991 2.633V2.783H24.8371L24.8401 2.819C24.8521 2.953 24.8991 3.061 24.9811 3.143C25.0651 3.223 25.1671 3.263 25.2871 3.263C25.3791 3.263 25.4571 3.248 25.5211 3.218C25.5871 3.186 25.6451 3.139 25.6951 3.077L25.8541 3.26C25.7921 3.344 25.7101 3.409 25.6081 3.455C25.5061 3.501 25.3931 3.524 25.2691 3.524ZM25.5691 2.57V2.531C25.5691 2.419 25.5381 2.328 25.4761 2.258C25.4161 2.186 25.3311 2.15 25.2211 2.15C25.1171 2.15 25.0311 2.188 24.9631 2.264C24.8971 2.338 24.8561 2.44 24.8401 2.57H25.5691Z" fill="white"/>
</svg>
