<svg width="28" height="6" viewBox="0 0 28 6" fill="none" xmlns="http://www.w3.org/2000/svg">
<path opacity="0.9" d="M0 3C0 1.34315 1.34315 0 3 0H25C26.6569 0 28 1.34315 28 3V3C28 4.65685 26.6569 6 25 6H3C1.34315 6 0 4.65685 0 3V3Z" fill="#E5E5E5"/>
<path d="M1 3C1 1.89543 1.89543 1 3 1H7C8.10457 1 9 1.89543 9 3V3C9 4.10457 8.10457 5 7 5H3C1.89543 5 1 4.10457 1 3V3Z" fill="#556068"/>
<path d="M17 3C17 2.72386 17.2239 2.5 17.5 2.5H25.5C25.7761 2.5 26 2.72386 26 3V3C26 3.27614 25.7761 3.5 25.5 3.5H17.5C17.2239 3.5 17 3.27614 17 3V3Z" fill="#A2A2A2"/>
</svg>
