<svg width="28" height="6" viewBox="0 0 28 6" fill="none" xmlns="http://www.w3.org/2000/svg">
<path opacity="0.9" d="M0 3C0 1.34315 1.34315 0 3 0H22V6H3C1.34315 6 0 4.65685 0 3V3Z" fill="#556068"/>
<path opacity="0.9" d="M22 0H25C26.6569 0 28 1.34315 28 3V3C28 4.65685 26.6569 6 25 6H22V0Z" fill="#E5E5E5"/>
<path d="M1 3C1 1.89543 1.89543 1 3 1H7C8.10457 1 9 1.89543 9 3V3C9 4.10457 8.10457 5 7 5H3C1.89543 5 1 4.10457 1 3V3Z" fill="#E5E5E5"/>
<path d="M14 3C14 2.72386 14.2239 2.5 14.5 2.5H20.5C20.7761 2.5 21 2.72386 21 3V3C21 3.27614 20.7761 3.5 20.5 3.5H14.5C14.2239 3.5 14 3.27614 14 3V3Z" fill="#E5E5E5"/>
<path d="M23.5 3C23.5 2.17157 24.1716 1.5 25 1.5V1.5C25.8284 1.5 26.5 2.17157 26.5 3V3C26.5 3.82843 25.8284 4.5 25 4.5V4.5C24.1716 4.5 23.5 3.82843 23.5 3V3Z" fill="#556068"/>
</svg>
