<svg width="29" height="11" viewBox="0 0 29 11" fill="none" xmlns="http://www.w3.org/2000/svg">
<path d="M0.983521 0.320007H5.01852C5.69852 0.320007 6.32352 0.490007 6.89352 0.830007C7.47352 1.16001 7.92852 1.61501 8.25852 2.19501C8.59852 2.76501 8.76852 3.39001 8.76852 4.07001C8.76852 4.75001 8.59852 5.38001 8.25852 5.96001C7.92852 6.53001 7.47352 6.98501 6.89352 7.32501C6.32352 7.65501 5.69852 7.82001 5.01852 7.82001H3.26352V11H0.983521V0.320007ZM3.26352 5.73501H4.86852C5.30852 5.73501 5.68852 5.57501 6.00852 5.25501C6.33852 4.92501 6.50352 4.53001 6.50352 4.07001C6.50352 3.62001 6.33852 3.23001 6.00852 2.90001C5.68852 2.57001 5.30852 2.40501 4.86852 2.40501H3.26352V5.73501Z" fill="#556068"/>
<path d="M16.712 11V6.63501H12.287V11H10.007V0.320007H12.287V4.70001H16.712V0.320007H18.992V11H16.712Z" fill="#556068"/>
<path d="M20.5831 0.320007H24.6181C25.2981 0.320007 25.9231 0.490007 26.4931 0.830007C27.0731 1.16001 27.5281 1.61501 27.8581 2.19501C28.1981 2.76501 28.3681 3.39001 28.3681 4.07001C28.3681 4.75001 28.1981 5.38001 27.8581 5.96001C27.5281 6.53001 27.0731 6.98501 26.4931 7.32501C25.9231 7.65501 25.2981 7.82001 24.6181 7.82001H22.8631V11H20.5831V0.320007ZM22.8631 5.73501H24.4681C24.9081 5.73501 25.2881 5.57501 25.6081 5.25501C25.9381 4.92501 26.1031 4.53001 26.1031 4.07001C26.1031 3.62001 25.9381 3.23001 25.6081 2.90001C25.2881 2.57001 24.9081 2.40501 24.4681 2.40501H22.8631V5.73501Z" fill="#556068"/>
</svg>
