<svg width="26" height="14" viewBox="0 0 26 14" fill="none" xmlns="http://www.w3.org/2000/svg">
<path d="M0 4C0 3.44771 0.447715 3 1 3H7C7.55228 3 8 3.44772 8 4V13C8 13.5523 7.55228 14 7 14H1C0.447715 14 0 13.5523 0 13V4Z" fill="#556068"/>
<path d="M0 0.5C0 0.223858 0.223858 0 0.5 0H4.5C4.77614 0 5 0.223858 5 0.5V1.5C5 1.77614 4.77614 2 4.5 2H0.5C0.223858 2 0 1.77614 0 1.5V0.5Z" fill="#556068"/>
<path d="M9 4C9 3.44771 9.44772 3 10 3H16C16.5523 3 17 3.44772 17 4V13C17 13.5523 16.5523 14 16 14H10C9.44772 14 9 13.5523 9 13V4Z" fill="#556068"/>
<path d="M18 4C18 3.44771 18.4477 3 19 3H25C25.5523 3 26 3.44772 26 4V13C26 13.5523 25.5523 14 25 14H19C18.4477 14 18 13.5523 18 13V4Z" fill="#556068"/>
</svg>
