<svg width="27" height="7" viewBox="0 0 27 7" fill="none" xmlns="http://www.w3.org/2000/svg">
<path d="M3 1C3 0.447715 3.44772 0 4 0H7C7.55228 0 8 0.447715 8 1V6C8 6.55228 7.55228 7 7 7H4C3.44772 7 3 6.55228 3 6V1Z" fill="#556068"/>
<path d="M9 1C9 0.447715 9.44772 0 10 0H13C13.5523 0 14 0.447715 14 1V6C14 6.55228 13.5523 7 13 7H10C9.44772 7 9 6.55228 9 6V1Z" fill="#556068"/>
<path d="M15 1C15 0.447715 15.4477 0 16 0H19C19.5523 0 20 0.447715 20 1V6C20 6.55228 19.5523 7 19 7H16C15.4477 7 15 6.55228 15 6V1Z" fill="#556068"/>
<path d="M22 0.5C22 0.223858 22.2239 0 22.5 0H26.5C26.7761 0 27 0.223858 27 0.5V0.5C27 0.776142 26.7761 1 26.5 1H22.5C22.2239 1 22 0.776142 22 0.5V0.5Z" fill="#556068" fill-opacity="0.6"/>
<path d="M25 2.5C25 2.22386 25.2239 2 25.5 2H26.5C26.7761 2 27 2.22386 27 2.5V2.5C27 2.77614 26.7761 3 26.5 3H25.5C25.2239 3 25 2.77614 25 2.5V2.5Z" fill="#556068" fill-opacity="0.6"/>
<path fill-rule="evenodd" clip-rule="evenodd" d="M21.6465 4L20.8232 3.17678L21.1768 2.82323L22.1768 3.82323C22.2744 3.92086 22.2744 4.07915 22.1768 4.17678L21.1768 5.17678L20.8232 4.82323L21.6465 4Z" fill="#556068"/>
<path fill-rule="evenodd" clip-rule="evenodd" d="M1.35356 4L2.17679 4.82322L1.82323 5.17677L0.823235 4.17677C0.725604 4.07914 0.725604 3.92085 0.823235 3.82322L1.82323 2.82322L2.17679 3.17677L1.35356 4Z" fill="#556068"/>
</svg>
