<svg width="23" height="10" viewBox="0 0 23 10" fill="none" xmlns="http://www.w3.org/2000/svg">
<path d="M0 2.5C0 2.22386 0.223858 2 0.5 2H7.5C7.77614 2 8 2.22386 8 2.5V2.5C8 2.77614 7.77614 3 7.5 3H0.5C0.223858 3 0 2.77614 0 2.5V2.5Z" fill="#556068" fill-opacity="0.6"/>
<path d="M4 4.5C4 4.22386 4.22386 4 4.5 4H7.5C7.77614 4 8 4.22386 8 4.5V4.5C8 4.77614 7.77614 5 7.5 5H4.5C4.22386 5 4 4.77614 4 4.5V4.5Z" fill="#556068" fill-opacity="0.4"/>
<path d="M0 8C0 7.44772 0.447715 7 1 7H5C5.55228 7 6 7.44772 6 8V8C6 8.55228 5.55228 9 5 9H1C0.447715 9 0 8.55228 0 8V8Z" fill="#556068" fill-opacity="0.4"/>
<path d="M9 1C9 0.447716 9.44772 0 10 0H22C22.5523 0 23 0.447715 23 1V9C23 9.55228 22.5523 10 22 10H10C9.44772 10 9 9.55228 9 9V1Z" fill="#556068"/>
</svg>
