<svg width="28" height="13" viewBox="0 0 28 13" fill="none" xmlns="http://www.w3.org/2000/svg">
<path d="M4 4C4 3.44772 4.44772 3 5 3H9C9.55228 3 10 3.44772 10 4V12C10 12.5523 9.55228 13 9 13H5C4.44772 13 4 12.5523 4 12V4Z" fill="#E5E5E5"/>
<path d="M4 4C4 3.44772 4.44772 3 5 3H9C9.55228 3 10 3.44772 10 4V7H4V4Z" fill="#556068"/>
<path d="M6 8.25C6 8.11193 6.11193 8 6.25 8H8.75C8.88807 8 9 8.11193 9 8.25V8.25C9 8.38807 8.88807 8.5 8.75 8.5H6.25C6.11193 8.5 6 8.38807 6 8.25V8.25Z" fill="#556068" fill-opacity="0.7"/>
<path d="M5 9.25C5 9.11193 5.11193 9 5.25 9H8.75C8.88807 9 9 9.11193 9 9.25V9.25C9 9.38807 8.88807 9.5 8.75 9.5H5.25C5.11193 9.5 5 9.38807 5 9.25V9.25Z" fill="#556068" fill-opacity="0.7"/>
<path d="M11 4C11 3.44772 11.4477 3 12 3H16C16.5523 3 17 3.44772 17 4V12C17 12.5523 16.5523 13 16 13H12C11.4477 13 11 12.5523 11 12V4Z" fill="#E5E5E5"/>
<path d="M11 4C11 3.44772 11.4477 3 12 3H16C16.5523 3 17 3.44772 17 4V7H11V4Z" fill="#556068"/>
<path d="M13 8.25C13 8.11193 13.1119 8 13.25 8H15.75C15.8881 8 16 8.11193 16 8.25V8.25C16 8.38807 15.8881 8.5 15.75 8.5H13.25C13.1119 8.5 13 8.38807 13 8.25V8.25Z" fill="#556068" fill-opacity="0.7"/>
<path d="M12 9.25C12 9.11193 12.1119 9 12.25 9H15.75C15.8881 9 16 9.11193 16 9.25V9.25C16 9.38807 15.8881 9.5 15.75 9.5H12.25C12.1119 9.5 12 9.38807 12 9.25V9.25Z" fill="#556068" fill-opacity="0.7"/>
<path d="M18 4C18 3.44772 18.4477 3 19 3H23C23.5523 3 24 3.44772 24 4V12C24 12.5523 23.5523 13 23 13H19C18.4477 13 18 12.5523 18 12V4Z" fill="#E5E5E5"/>
<path d="M18 4C18 3.44772 18.4477 3 19 3H23C23.5523 3 24 3.44772 24 4V7H18V4Z" fill="#556068"/>
<path d="M20 8.25C20 8.11193 20.1119 8 20.25 8H22.75C22.8881 8 23 8.11193 23 8.25V8.25C23 8.38807 22.8881 8.5 22.75 8.5H20.25C20.1119 8.5 20 8.38807 20 8.25V8.25Z" fill="#556068" fill-opacity="0.7"/>
<path d="M19 9.25C19 9.11193 19.1119 9 19.25 9H22.75C22.8881 9 23 9.11193 23 9.25V9.25C23 9.38807 22.8881 9.5 22.75 9.5H19.25C19.1119 9.5 19 9.38807 19 9.25V9.25Z" fill="#556068" fill-opacity="0.7"/>
<path d="M4 0.5C4 0.223858 4.22386 0 4.5 0H8.5C8.77614 0 9 0.223858 9 0.5V1.5C9 1.77614 8.77614 2 8.5 2H4.5C4.22386 2 4 1.77614 4 1.5V0.5Z" fill="#556068"/>
<path fill-rule="evenodd" clip-rule="evenodd" d="M26.6465 9L25.8232 8.17678L26.1768 7.82323L27.1768 8.82323C27.2744 8.92086 27.2744 9.07915 27.1768 9.17678L26.1768 10.1768L25.8232 9.82323L26.6465 9Z" fill="#556068"/>
<path fill-rule="evenodd" clip-rule="evenodd" d="M1.35356 9L2.17679 9.82322L1.82323 10.1768L0.823235 9.17677C0.725604 9.07914 0.725604 8.92085 0.823235 8.82322L1.82323 7.82322L2.17679 8.17677L1.35356 9Z" fill="#556068"/>
</svg>
