<svg width="26" height="8" viewBox="0 0 26 8" fill="none" xmlns="http://www.w3.org/2000/svg">
<path d="M18 6C18 5.44772 18.4477 5 19 5H25C25.5523 5 26 5.44772 26 6V7C26 7.55228 25.5523 8 25 8H19C18.4477 8 18 7.55228 18 7V6Z" fill="#E5E5E5"/>
<path d="M22 5C22 4.44772 22.4477 4 23 4H24C24.5523 4 25 4.44772 25 5V6C25 6.55228 24.5523 7 24 7H23C22.4477 7 22 6.55228 22 6V5Z" fill="#556068"/>
<path d="M19.1463 6.25C19.1463 6.11193 19.2583 6 19.3963 6H21.2378C21.3759 6 21.4878 6.11193 21.4878 6.25V6.25C21.4878 6.38807 21.3759 6.5 21.2378 6.5H19.3963C19.2583 6.5 19.1463 6.38807 19.1463 6.25V6.25Z" fill="#556068" fill-opacity="0.7"/>
<path d="M9 6C9 5.44772 9.44772 5 10 5H16C16.5523 5 17 5.44772 17 6V7C17 7.55228 16.5523 8 16 8H10C9.44772 8 9 7.55228 9 7V6Z" fill="#E5E5E5"/>
<path d="M13 5C13 4.44772 13.4477 4 14 4H15C15.5523 4 16 4.44772 16 5V6C16 6.55228 15.5523 7 15 7H14C13.4477 7 13 6.55228 13 6V5Z" fill="#556068"/>
<path d="M10.1463 6.25C10.1463 6.11193 10.2583 6 10.3963 6H12.2378C12.3759 6 12.4878 6.11193 12.4878 6.25V6.25C12.4878 6.38807 12.3759 6.5 12.2378 6.5H10.3963C10.2583 6.5 10.1463 6.38807 10.1463 6.25V6.25Z" fill="#556068" fill-opacity="0.7"/>
<path d="M0 6C0 5.44772 0.447715 5 1 5H7C7.55228 5 8 5.44772 8 6V7C8 7.55228 7.55228 8 7 8H1C0.447715 8 0 7.55228 0 7V6Z" fill="#E5E5E5"/>
<path d="M4 5C4 4.44772 4.44772 4 5 4H6C6.55228 4 7 4.44772 7 5V6C7 6.55228 6.55228 7 6 7H5C4.44772 7 4 6.55228 4 6V5Z" fill="#556068"/>
<path d="M1.14633 6.25C1.14633 6.11193 1.25826 6 1.39633 6H3.23779C3.37587 6 3.4878 6.11193 3.4878 6.25V6.25C3.4878 6.38807 3.37587 6.5 3.2378 6.5H1.39633C1.25826 6.5 1.14633 6.38807 1.14633 6.25V6.25Z" fill="#556068" fill-opacity="0.7"/>
<path d="M0 0.5C0 0.223858 0.223858 0 0.5 0H4.5C4.77614 0 5 0.223858 5 0.5V1.5C5 1.77614 4.77614 2 4.5 2H0.5C0.223858 2 0 1.77614 0 1.5V0.5Z" fill="#556068"/>
</svg>
