<svg width="14" height="23" viewBox="0 0 14 23" fill="none" xmlns="http://www.w3.org/2000/svg">
<path d="M0 2.27174C0 1.71946 0.447715 1.27174 1 1.27174H13C13.5523 1.27174 14 1.71946 14 2.27174V5.27174C14 5.82402 13.5523 6.27174 13 6.27174H1C0.447716 6.27174 0 5.82402 0 5.27174V2.27174Z" fill="#E5E5E5"/>
<path d="M8.34784 1C8.34784 0.447715 8.79555 0 9.34784 0H12.3478C12.9001 0 13.3478 0.447715 13.3478 1V4C13.3478 4.55228 12.9001 5 12.3478 5H9.34784C8.79555 5 8.34784 4.55228 8.34784 4V1Z" fill="#556068"/>
<path d="M1.86279 3.6087C1.86279 3.33255 2.08665 3.1087 2.36279 3.1087H5.36279C5.63894 3.1087 5.86279 3.33255 5.86279 3.6087V3.6087C5.86279 3.88484 5.63894 4.1087 5.36279 4.1087H2.36279C2.08665 4.1087 1.86279 3.88484 1.86279 3.6087V3.6087Z" fill="#556068" fill-opacity="0.7"/>
<path d="M0 10.2717C0 9.71946 0.447715 9.27174 1 9.27174H13C13.5523 9.27174 14 9.71946 14 10.2717V13.2717C14 13.824 13.5523 14.2717 13 14.2717H1C0.447716 14.2717 0 13.824 0 13.2717V10.2717Z" fill="#E5E5E5"/>
<path d="M8.34784 9C8.34784 8.44772 8.79555 8 9.34784 8H12.3478C12.9001 8 13.3478 8.44772 13.3478 9V12C13.3478 12.5523 12.9001 13 12.3478 13H9.34784C8.79555 13 8.34784 12.5523 8.34784 12V9Z" fill="#556068"/>
<path d="M1.86279 11.6087C1.86279 11.3326 2.08665 11.1087 2.36279 11.1087H5.36279C5.63894 11.1087 5.86279 11.3326 5.86279 11.6087V11.6087C5.86279 11.8848 5.63894 12.1087 5.36279 12.1087H2.36279C2.08665 12.1087 1.86279 11.8848 1.86279 11.6087V11.6087Z" fill="#556068" fill-opacity="0.7"/>
<path d="M0 18.2717C0 17.7195 0.447715 17.2717 1 17.2717H13C13.5523 17.2717 14 17.7195 14 18.2717V21.2717C14 21.824 13.5523 22.2717 13 22.2717H1C0.447716 22.2717 0 21.824 0 21.2717V18.2717Z" fill="#E5E5E5"/>
<path d="M8.34784 17C8.34784 16.4477 8.79555 16 9.34784 16H12.3478C12.9001 16 13.3478 16.4477 13.3478 17V20C13.3478 20.5523 12.9001 21 12.3478 21H9.34784C8.79555 21 8.34784 20.5523 8.34784 20V17Z" fill="#556068"/>
<path d="M1.86279 19.6087C1.86279 19.3326 2.08665 19.1087 2.36279 19.1087H5.36279C5.63894 19.1087 5.86279 19.3326 5.86279 19.6087V19.6087C5.86279 19.8848 5.63894 20.1087 5.36279 20.1087H2.36279C2.08665 20.1087 1.86279 19.8848 1.86279 19.6087V19.6087Z" fill="#556068" fill-opacity="0.7"/>
</svg>
