<svg width="28" height="10" viewBox="0 0 28 10" fill="none" xmlns="http://www.w3.org/2000/svg">
<path d="M4 1C4 0.447716 4.44772 0 5 0H9C9.55228 0 10 0.447715 10 1V9C10 9.55228 9.55228 10 9 10H5C4.44772 10 4 9.55228 4 9V1Z" fill="#E5E5E5"/>
<path d="M4 1C4 0.447715 4.44772 0 5 0H9C9.55228 0 10 0.447715 10 1V4H4V1Z" fill="#556068"/>
<path d="M5 4C5 3.44772 5.44772 3 6 3H8C8.55228 3 9 3.44772 9 4V4C9 4.55228 8.55228 5 8 5H6C5.44772 5 5 4.55228 5 4V4Z" fill="#E5E5E5"/>
<path d="M6 4.25C6 4.11193 6.11193 4 6.25 4H7.75C7.88807 4 8 4.11193 8 4.25V4.25C8 4.38807 7.88807 4.5 7.75 4.5H6.25C6.11193 4.5 6 4.38807 6 4.25V4.25Z" fill="#556068" fill-opacity="0.7"/>
<path d="M5 5.25C5 5.11193 5.11193 5 5.25 5H8.75C8.88807 5 9 5.11193 9 5.25V5.25C9 5.38807 8.88807 5.5 8.75 5.5H5.25C5.11193 5.5 5 5.38807 5 5.25V5.25Z" fill="#556068" fill-opacity="0.7"/>
<path d="M5 8.5C5 8.22386 5.22386 8 5.5 8H8.5C8.77614 8 9 8.22386 9 8.5V8.5C9 8.77614 8.77614 9 8.5 9H5.5C5.22386 9 5 8.77614 5 8.5V8.5Z" fill="#556068" fill-opacity="0.7"/>
<path d="M11 1C11 0.447716 11.4477 0 12 0H16C16.5523 0 17 0.447715 17 1V9C17 9.55228 16.5523 10 16 10H12C11.4477 10 11 9.55228 11 9V1Z" fill="#E5E5E5"/>
<path d="M11 1C11 0.447715 11.4477 0 12 0H16C16.5523 0 17 0.447715 17 1V4H11V1Z" fill="#556068"/>
<path d="M12 4C12 3.44772 12.4477 3 13 3H15C15.5523 3 16 3.44772 16 4V4C16 4.55228 15.5523 5 15 5H13C12.4477 5 12 4.55228 12 4V4Z" fill="#E5E5E5"/>
<path d="M13 4.25C13 4.11193 13.1119 4 13.25 4H14.75C14.8881 4 15 4.11193 15 4.25V4.25C15 4.38807 14.8881 4.5 14.75 4.5H13.25C13.1119 4.5 13 4.38807 13 4.25V4.25Z" fill="#556068" fill-opacity="0.7"/>
<path d="M12 5.25C12 5.11193 12.1119 5 12.25 5H15.75C15.8881 5 16 5.11193 16 5.25V5.25C16 5.38807 15.8881 5.5 15.75 5.5H12.25C12.1119 5.5 12 5.38807 12 5.25V5.25Z" fill="#556068" fill-opacity="0.7"/>
<path d="M12 8.5C12 8.22386 12.2239 8 12.5 8H15.5C15.7761 8 16 8.22386 16 8.5V8.5C16 8.77614 15.7761 9 15.5 9H12.5C12.2239 9 12 8.77614 12 8.5V8.5Z" fill="#556068" fill-opacity="0.7"/>
<path d="M18 1C18 0.447716 18.4477 0 19 0H23C23.5523 0 24 0.447715 24 1V9C24 9.55228 23.5523 10 23 10H19C18.4477 10 18 9.55228 18 9V1Z" fill="#E5E5E5"/>
<path d="M18 1C18 0.447715 18.4477 0 19 0H23C23.5523 0 24 0.447715 24 1V4H18V1Z" fill="#556068"/>
<path d="M19 4C19 3.44772 19.4477 3 20 3H22C22.5523 3 23 3.44772 23 4V4C23 4.55228 22.5523 5 22 5H20C19.4477 5 19 4.55228 19 4V4Z" fill="#E5E5E5"/>
<path d="M20 4.25C20 4.11193 20.1119 4 20.25 4H21.75C21.8881 4 22 4.11193 22 4.25V4.25C22 4.38807 21.8881 4.5 21.75 4.5H20.25C20.1119 4.5 20 4.38807 20 4.25V4.25Z" fill="#556068" fill-opacity="0.7"/>
<path d="M19 5.25C19 5.11193 19.1119 5 19.25 5H22.75C22.8881 5 23 5.11193 23 5.25V5.25C23 5.38807 22.8881 5.5 22.75 5.5H19.25C19.1119 5.5 19 5.38807 19 5.25V5.25Z" fill="#556068" fill-opacity="0.7"/>
<path d="M19 8.5C19 8.22386 19.2239 8 19.5 8H22.5C22.7761 8 23 8.22386 23 8.5V8.5C23 8.77614 22.7761 9 22.5 9H19.5C19.2239 9 19 8.77614 19 8.5V8.5Z" fill="#556068" fill-opacity="0.7"/>
<path fill-rule="evenodd" clip-rule="evenodd" d="M26.6465 6L25.8232 5.17678L26.1768 4.82323L27.1768 5.82323C27.2744 5.92086 27.2744 6.07915 27.1768 6.17678L26.1768 7.17678L25.8232 6.82323L26.6465 6Z" fill="#556068"/>
<path fill-rule="evenodd" clip-rule="evenodd" d="M1.35353 6L2.17676 6.82322L1.8232 7.17677L0.823204 6.17677C0.725573 6.07914 0.725573 5.92085 0.823204 5.82322L1.8232 4.82322L2.17676 5.17677L1.35353 6Z" fill="#556068"/>
</svg>
