<svg width="28" height="11" viewBox="0 0 28 11" fill="none" xmlns="http://www.w3.org/2000/svg">
<path d="M4 0H10V11H4V0Z" fill="#556068"/>
<path fill-rule="evenodd" clip-rule="evenodd" d="M26.6465 6L25.8232 5.17678L26.1768 4.82323L27.1768 5.82323C27.2744 5.92086 27.2744 6.07915 27.1768 6.17678L26.1768 7.17678L25.8232 6.82323L26.6465 6Z" fill="#556068"/>
<path fill-rule="evenodd" clip-rule="evenodd" d="M1.35356 6L2.17679 6.82322L1.82323 7.17677L0.823235 6.17677C0.725604 6.07914 0.725604 5.92085 0.823235 5.82322L1.82323 4.82322L2.17679 5.17677L1.35356 6Z" fill="#556068"/>
<path d="M11 0H17V11H11V0Z" fill="#556068"/>
<path d="M18 0H24V11H18V0Z" fill="#556068"/>
<path d="M20 9.5C20 9.22386 20.2239 9 20.5 9H22.5C22.7761 9 23 9.22386 23 9.5V9.5C23 9.77614 22.7761 10 22.5 10H20.5C20.2239 10 20 9.77614 20 9.5V9.5Z" fill="#D5DDE2"/>
<path d="M13 9.5C13 9.22386 13.2239 9 13.5 9H15.5C15.7761 9 16 9.22386 16 9.5V9.5C16 9.77614 15.7761 10 15.5 10H13.5C13.2239 10 13 9.77614 13 9.5V9.5Z" fill="#D5DDE2"/>
<path d="M6 9.5C6 9.22386 6.22386 9 6.5 9H8.5C8.77614 9 9 9.22386 9 9.5V9.5C9 9.77614 8.77614 10 8.5 10H6.5C6.22386 10 6 9.77614 6 9.5V9.5Z" fill="#D5DDE2"/>
</svg>
