<svg width="26" height="16" viewBox="0 0 26 16" fill="none" xmlns="http://www.w3.org/2000/svg">
<path d="M0 4H7.99999V16H0V4Z" fill="#E5E5E5"/>
<path d="M0 4H7.99999V13.3333H0V4Z" fill="#556068"/>
<path d="M3 14.5C3 14.2239 3.22386 14 3.5 14H6.5C6.77614 14 7 14.2239 7 14.5V14.5C7 14.7761 6.77614 15 6.5 15H3.5C3.22386 15 3 14.7761 3 14.5V14.5Z" fill="#556068" fill-opacity="0.7"/>
<path d="M9 4H17V16H9V4Z" fill="#E5E5E5"/>
<path d="M9 4H17V13.3333H9V4Z" fill="#556068"/>
<path d="M12 14.5C12 14.2239 12.2239 14 12.5 14H15.5C15.7761 14 16 14.2239 16 14.5V14.5C16 14.7761 15.7761 15 15.5 15H12.5C12.2239 15 12 14.7761 12 14.5V14.5Z" fill="#556068" fill-opacity="0.7"/>
<path d="M18 4H26V16H18V4Z" fill="#E5E5E5"/>
<path d="M18 4H26V13.3333H18V4Z" fill="#556068"/>
<path d="M21 14.5C21 14.2239 21.2239 14 21.5 14H24.5C24.7761 14 25 14.2239 25 14.5V14.5C25 14.7761 24.7761 15 24.5 15H21.5C21.2239 15 21 14.7761 21 14.5V14.5Z" fill="#556068" fill-opacity="0.7"/>
<path d="M0 0.5C0 0.223858 0.223858 0 0.5 0H4.5C4.77614 0 5 0.223858 5 0.5V1.5C5 1.77614 4.77614 2 4.5 2H0.5C0.223858 2 0 1.77614 0 1.5V0.5Z" fill="#556068"/>
<path d="M21 0.5C21 0.223858 21.2239 0 21.5 0H25.5C25.7761 0 26 0.223858 26 0.5V0.5C26 0.776142 25.7761 1 25.5 1H21.5C21.2239 1 21 0.776142 21 0.5V0.5Z" fill="#556068" fill-opacity="0.7"/>
</svg>
