<svg width="18" height="23" viewBox="0 0 18 23" fill="none" xmlns="http://www.w3.org/2000/svg">
<path d="M0 1C0 0.447715 0.447715 0 1 0H17C17.5523 0 18 0.447715 18 1V22C18 22.5523 17.5523 23 17 23H1C0.447716 23 0 22.5523 0 22V1Z" fill="#556068"/>
<path d="M13 4C13 2.89543 13.8954 2 15 2V2C16.1046 2 17 2.89543 17 4V4C17 5.10457 16.1046 6 15 6V6C13.8954 6 13 5.10457 13 4V4Z" fill="#D5DDE2"/>
<path d="M7 10.5C7 10.2239 7.22386 10 7.5 10H14.5C14.7761 10 15 10.2239 15 10.5V10.5C15 10.7761 14.7761 11 14.5 11H7.5C7.22386 11 7 10.7761 7 10.5V10.5Z" fill="#D5DDE2" fill-opacity="0.69"/>
<path d="M16 10.5C16 10.2239 16.2239 10 16.5 10V10C16.7761 10 17 10.2239 17 10.5V10.5C17 10.7761 16.7761 11 16.5 11V11C16.2239 11 16 10.7761 16 10.5V10.5Z" fill="#D5DDE2" fill-opacity="0.69"/>
<path d="M16 12.5C16 12.2239 16.2239 12 16.5 12V12C16.7761 12 17 12.2239 17 12.5V12.5C17 12.7761 16.7761 13 16.5 13V13C16.2239 13 16 12.7761 16 12.5V12.5Z" fill="#D5DDE2" fill-opacity="0.69"/>
<path d="M16 14.5C16 14.2239 16.2239 14 16.5 14V14C16.7761 14 17 14.2239 17 14.5V14.5C17 14.7761 16.7761 15 16.5 15V15C16.2239 15 16 14.7761 16 14.5V14.5Z" fill="#D5DDE2" fill-opacity="0.69"/>
<path d="M7 12.5C7 12.2239 7.22386 12 7.5 12H14.5C14.7761 12 15 12.2239 15 12.5V12.5C15 12.7761 14.7761 13 14.5 13H7.5C7.22386 13 7 12.7761 7 12.5V12.5Z" fill="#D5DDE2" fill-opacity="0.69"/>
<path d="M7 14.5C7 14.2239 7.22386 14 7.5 14H14.5C14.7761 14 15 14.2239 15 14.5V14.5C15 14.7761 14.7761 15 14.5 15H7.5C7.22386 15 7 14.7761 7 14.5V14.5Z" fill="#D5DDE2" fill-opacity="0.69"/>
<path d="M3 20C3 19.4477 3.44772 19 4 19H14C14.5523 19 15 19.4477 15 20V20C15 20.5523 14.5523 21 14 21H4C3.44772 21 3 20.5523 3 20V20Z" fill="#D5DDE2" fill-opacity="0.8"/>
<path fill-rule="evenodd" clip-rule="evenodd" d="M2 5.5C2 5.22386 2.22386 5 2.5 5H11.5C11.7761 5 12 5.22386 12 5.5C12 5.77614 11.7761 6 11.5 6H2.5C2.22386 6 2 5.77614 2 5.5Z" fill="#D5DDE2"/>
<path fill-rule="evenodd" clip-rule="evenodd" d="M6 3.5C6 3.22386 6.22386 3 6.5 3H11.5C11.7761 3 12 3.22386 12 3.5C12 3.77614 11.7761 4 11.5 4H6.5C6.22386 4 6 3.77614 6 3.5Z" fill="#D5DDE2"/>
</svg>
