<svg width="18" height="22" viewBox="0 0 18 22" fill="none" xmlns="http://www.w3.org/2000/svg">
<path d="M0 1C0 0.447716 0.447715 0 1 0H17C17.5523 0 18 0.447715 18 1V21C18 21.5523 17.5523 22 17 22H1C0.447716 22 0 21.5523 0 21V1Z" fill="#E5E5E5"/>
<path d="M0 1C0 0.447715 0.447715 0 1 0H17C17.5523 0 18 0.447715 18 1V8H0V1Z" fill="#556068"/>
<path d="M3 11C3 10.4477 3.44772 10 4 10H14C14.5523 10 15 10.4477 15 11V12C15 12.5523 14.5523 13 14 13H4C3.44772 13 3 12.5523 3 12V11Z" fill="#8E9FAC" fill-opacity="0.8"/>
<path d="M3 15C3 14.4477 3.44772 14 4 14H14C14.5523 14 15 14.4477 15 15V16C15 16.5523 14.5523 17 14 17H4C3.44772 17 3 16.5523 3 16V15Z" fill="#8E9FAC" fill-opacity="0.8"/>
<path d="M3 19C3 18.4477 3.44772 18 4 18H14C14.5523 18 15 18.4477 15 19V20C15 20.5523 14.5523 21 14 21H4C3.44772 21 3 20.5523 3 20V19Z" fill="#8E9FAC" fill-opacity="0.8"/>
<path fill-rule="evenodd" clip-rule="evenodd" d="M4 2.5C4 2.22386 4.22386 2 4.5 2H13.5C13.7761 2 14 2.22386 14 2.5C14 2.77614 13.7761 3 13.5 3H4.5C4.22386 3 4 2.77614 4 2.5Z" fill="#D5DDE2"/>
<path fill-rule="evenodd" clip-rule="evenodd" d="M7 4.5C7 4.22386 7.22386 4 7.5 4H13.5C13.7761 4 14 4.22386 14 4.5C14 4.77614 13.7761 5 13.5 5H7.5C7.22386 5 7 4.77614 7 4.5Z" fill="#D5DDE2"/>
<path d="M5.364 7.056C5.16666 7.056 4.96133 7.02933 4.748 6.976C4.53733 6.92267 4.35466 6.852 4.2 6.764L4.436 6.184C4.548 6.24267 4.692 6.29467 4.868 6.34C5.04666 6.38533 5.20266 6.408 5.336 6.408C5.48266 6.408 5.60133 6.38933 5.692 6.352C5.78533 6.312 5.832 6.256 5.832 6.184C5.832 6.12 5.8 6.072 5.736 6.04C5.672 6.00533 5.56533 5.968 5.416 5.928L5.256 5.884C4.99733 5.80933 4.79466 5.72933 4.648 5.644C4.504 5.556 4.40133 5.45733 4.34 5.348C4.28133 5.23867 4.252 5.10533 4.252 4.948C4.252 4.76667 4.30266 4.608 4.404 4.472C4.508 4.336 4.64933 4.232 4.828 4.16C5.00933 4.088 5.21466 4.052 5.444 4.052C5.74 4.052 6.06533 4.11733 6.42 4.248L6.192 4.848C5.91466 4.74933 5.66266 4.7 5.436 4.7C5.28666 4.7 5.16666 4.72267 5.076 4.768C4.98533 4.81067 4.94 4.87067 4.94 4.948C4.94 5.004 4.95733 5.048 4.992 5.08C5.02933 5.112 5.08266 5.14 5.152 5.164C5.224 5.18533 5.34 5.216 5.5 5.256C5.76666 5.32267 5.97466 5.39867 6.124 5.484C6.276 5.56933 6.38 5.664 6.436 5.768C6.49466 5.86933 6.524 5.98667 6.524 6.12C6.524 6.312 6.47466 6.47867 6.376 6.62C6.27733 6.76133 6.14 6.86933 5.964 6.944C5.79066 7.01867 5.59066 7.056 5.364 7.056ZM5.184 6.94H5.692V7.372H5.184V6.94ZM5.184 3.736H5.692V4.176H5.184V3.736Z" fill="#D5DDE2"/>
</svg>
