<svg width="20" height="28" viewBox="0 0 20 28" fill="none" xmlns="http://www.w3.org/2000/svg">
<path d="M0 0H20V28H0V0Z" fill="#556068"/>
<path d="M9 12.5C9 12.2239 9.22386 12 9.5 12H16.5C16.7761 12 17 12.2239 17 12.5V12.5C17 12.7761 16.7761 13 16.5 13H9.5C9.22386 13 9 12.7761 9 12.5V12.5Z" fill="#D5DDE2" fill-opacity="0.8"/>
<path d="M18 12.5C18 12.2239 18.2239 12 18.5 12V12C18.7761 12 19 12.2239 19 12.5V12.5C19 12.7761 18.7761 13 18.5 13V13C18.2239 13 18 12.7761 18 12.5V12.5Z" fill="#D5DDE2" fill-opacity="0.8"/>
<path d="M18 14.5C18 14.2239 18.2239 14 18.5 14V14C18.7761 14 19 14.2239 19 14.5V14.5C19 14.7761 18.7761 15 18.5 15V15C18.2239 15 18 14.7761 18 14.5V14.5Z" fill="#D5DDE2" fill-opacity="0.8"/>
<path d="M18 16.5C18 16.2239 18.2239 16 18.5 16V16C18.7761 16 19 16.2239 19 16.5V16.5C19 16.7761 18.7761 17 18.5 17V17C18.2239 17 18 16.7761 18 16.5V16.5Z" fill="#D5DDE2" fill-opacity="0.8"/>
<path d="M9 14.5C9 14.2239 9.22386 14 9.5 14H16.5C16.7761 14 17 14.2239 17 14.5V14.5C17 14.7761 16.7761 15 16.5 15H9.5C9.22386 15 9 14.7761 9 14.5V14.5Z" fill="#D5DDE2" fill-opacity="0.8"/>
<path d="M9 16.5C9 16.2239 9.22386 16 9.5 16H16.5C16.7761 16 17 16.2239 17 16.5V16.5C17 16.7761 16.7761 17 16.5 17H9.5C9.22386 17 9 16.7761 9 16.5V16.5Z" fill="#D5DDE2" fill-opacity="0.8"/>
<path d="M7 2.5C7 2.22386 7.22386 2 7.5 2H12.5C12.7761 2 13 2.22386 13 2.5V2.5C13 2.77614 12.7761 3 12.5 3H7.5C7.22386 3 7 2.77614 7 2.5V2.5Z" fill="#D5DDE2" fill-opacity="0.8"/>
<path d="M12 7C12 8.10457 11.1046 9 10 9C8.89543 9 8 8.10457 8 7C8 5.89543 8.89543 5 10 5C11.1046 5 12 5.89543 12 7Z" fill="#D5DDE2" fill-opacity="0.8"/>
<path d="M0 25H20V28H0V25Z" fill="#D5DDE2"/>
<path d="M7.819 22.021C7.629 21.997 7.472 21.93 7.348 21.82C7.226 21.71 7.165 21.559 7.165 21.367H7.402C7.402 21.493 7.438 21.597 7.51 21.679C7.584 21.759 7.687 21.81 7.819 21.832L7.822 20.977C7.706 20.939 7.614 20.902 7.546 20.866C7.438 20.808 7.358 20.74 7.306 20.662C7.256 20.584 7.231 20.493 7.231 20.389C7.231 20.241 7.285 20.12 7.393 20.026C7.503 19.93 7.645 19.87 7.819 19.846V19.594H8.053V19.84C8.175 19.852 8.285 19.886 8.383 19.942C8.481 19.996 8.557 20.069 8.611 20.161C8.667 20.253 8.695 20.359 8.695 20.479H8.458C8.458 20.361 8.421 20.261 8.347 20.179C8.273 20.097 8.175 20.048 8.053 20.032L8.05 20.833C8.14 20.861 8.217 20.888 8.281 20.914C8.347 20.94 8.406 20.971 8.458 21.007C8.626 21.121 8.71 21.274 8.71 21.466C8.71 21.548 8.688 21.63 8.644 21.712C8.602 21.794 8.532 21.865 8.434 21.925C8.338 21.983 8.212 22.017 8.056 22.027V22.276H7.819V22.021ZM7.468 20.389C7.468 20.491 7.509 20.574 7.591 20.638C7.645 20.68 7.722 20.72 7.822 20.758L7.819 20.038C7.711 20.058 7.625 20.1 7.561 20.164C7.499 20.228 7.468 20.303 7.468 20.389ZM8.053 21.841C8.179 21.829 8.28 21.789 8.356 21.721C8.434 21.653 8.473 21.569 8.473 21.469C8.473 21.355 8.432 21.264 8.35 21.196C8.284 21.142 8.184 21.093 8.05 21.049L8.053 21.841Z" fill="white"/>
<path d="M10.1709 21.28H10.4799V21.463H10.1709V22H9.93693V21.463H8.99793L8.99193 21.319L9.92793 19.87L10.1709 19.867V21.28ZM9.93693 21.28V20.164L9.21993 21.28H9.93693Z" fill="white"/>
<path d="M10.8091 20.911L10.9201 19.873H12.0361V20.056H11.1121L11.0431 20.761C11.0891 20.725 11.1481 20.696 11.2201 20.674C11.2941 20.65 11.3661 20.638 11.4361 20.638C11.6341 20.638 11.7901 20.699 11.9041 20.821C12.0201 20.943 12.0781 21.108 12.0781 21.316C12.0781 21.538 12.0201 21.713 11.9041 21.841C11.7901 21.967 11.6301 22.03 11.4241 22.03C11.2941 22.03 11.1791 22.004 11.0791 21.952C10.9791 21.9 10.9001 21.829 10.8421 21.739C10.7841 21.647 10.7531 21.542 10.7491 21.424H10.9831C10.9951 21.558 11.0391 21.662 11.1151 21.736C11.1911 21.81 11.2941 21.847 11.4241 21.847C11.5641 21.847 11.6691 21.801 11.7391 21.709C11.8091 21.617 11.8441 21.483 11.8441 21.307C11.8441 21.153 11.8031 21.031 11.7211 20.941C11.6391 20.851 11.5271 20.806 11.3851 20.806C11.2251 20.806 11.0941 20.857 10.9921 20.959L10.8091 20.911Z" fill="white"/>
</svg>
