<svg width="18" height="23" viewBox="0 0 18 23" fill="none" xmlns="http://www.w3.org/2000/svg">
<path d="M0 1C0 0.447715 0.447715 0 1 0H17C17.5523 0 18 0.447715 18 1V22C18 22.5523 17.5523 23 17 23H1C0.447716 23 0 22.5523 0 22V1Z" fill="#E5E5E5"/>
<path d="M1 2C1 1.44772 1.44772 1 2 1H16C16.5523 1 17 1.44772 17 2V10C17 10.5523 16.5523 11 16 11H2C1.44772 11 1 10.5523 1 10V2Z" fill="#556068"/>
<path d="M7 6C7 4.89543 7.89543 4 9 4V4C10.1046 4 11 4.89543 11 6V6C11 7.10457 10.1046 8 9 8V8C7.89543 8 7 7.10457 7 6V6Z" fill="#D5DDE2"/>
<path d="M5 13.5C5 13.2239 5.22386 13 5.5 13H12.5C12.7761 13 13 13.2239 13 13.5V13.5C13 13.7761 12.7761 14 12.5 14H5.5C5.22386 14 5 13.7761 5 13.5V13.5Z" fill="#8E9FAC" fill-opacity="0.8"/>
<path d="M14 13.5C14 13.2239 14.2239 13 14.5 13V13C14.7761 13 15 13.2239 15 13.5V13.5C15 13.7761 14.7761 14 14.5 14V14C14.2239 14 14 13.7761 14 13.5V13.5Z" fill="#8E9FAC" fill-opacity="0.8"/>
<path d="M14 15.5C14 15.2239 14.2239 15 14.5 15V15C14.7761 15 15 15.2239 15 15.5V15.5C15 15.7761 14.7761 16 14.5 16V16C14.2239 16 14 15.7761 14 15.5V15.5Z" fill="#8E9FAC" fill-opacity="0.8"/>
<path d="M14 17.5C14 17.2239 14.2239 17 14.5 17V17C14.7761 17 15 17.2239 15 17.5V17.5C15 17.7761 14.7761 18 14.5 18V18C14.2239 18 14 17.7761 14 17.5V17.5Z" fill="#8E9FAC" fill-opacity="0.8"/>
<path d="M5 15.5C5 15.2239 5.22386 15 5.5 15H12.5C12.7761 15 13 15.2239 13 15.5V15.5C13 15.7761 12.7761 16 12.5 16H5.5C5.22386 16 5 15.7761 5 15.5V15.5Z" fill="#8E9FAC" fill-opacity="0.8"/>
<path d="M5 17.5C5 17.2239 5.22386 17 5.5 17H12.5C12.7761 17 13 17.2239 13 17.5V17.5C13 17.7761 12.7761 18 12.5 18H5.5C5.22386 18 5 17.7761 5 17.5V17.5Z" fill="#8E9FAC" fill-opacity="0.8"/>
<path d="M3 21C3 20.4477 3.44772 20 4 20H14C14.5523 20 15 20.4477 15 21V21C15 21.5523 14.5523 22 14 22H4C3.44772 22 3 21.5523 3 21V21Z" fill="#8E9FAC" fill-opacity="0.8"/>
<path fill-rule="evenodd" clip-rule="evenodd" d="M4 9.5C4 9.22386 4.22386 9 4.5 9H13.5C13.7761 9 14 9.22386 14 9.5C14 9.77614 13.7761 10 13.5 10H4.5C4.22386 10 4 9.77614 4 9.5Z" fill="#D5DDE2"/>
<path fill-rule="evenodd" clip-rule="evenodd" d="M6 2.5C6 2.22386 6.22386 2 6.5 2H11.5C11.7761 2 12 2.22386 12 2.5C12 2.77614 11.7761 3 11.5 3H6.5C6.22386 3 6 2.77614 6 2.5Z" fill="#D5DDE2"/>
</svg>
