<svg width="18" height="23" viewBox="0 0 18 23" fill="none" xmlns="http://www.w3.org/2000/svg">
<path d="M0 1C0 0.447715 0.447715 0 1 0H17C17.5523 0 18 0.447715 18 1V22C18 22.5523 17.5523 23 17 23H1C0.447716 23 0 22.5523 0 22V1Z" fill="#E5E5E5"/>
<path d="M7 10.5C7 10.2239 7.22386 10 7.5 10H14.5C14.7761 10 15 10.2239 15 10.5V10.5C15 10.7761 14.7761 11 14.5 11H7.5C7.22386 11 7 10.7761 7 10.5V10.5Z" fill="#556068" fill-opacity="0.8"/>
<path d="M16 10.5C16 10.2239 16.2239 10 16.5 10V10C16.7761 10 17 10.2239 17 10.5V10.5C17 10.7761 16.7761 11 16.5 11V11C16.2239 11 16 10.7761 16 10.5V10.5Z" fill="#556068" fill-opacity="0.8"/>
<path d="M16 12.5C16 12.2239 16.2239 12 16.5 12V12C16.7761 12 17 12.2239 17 12.5V12.5C17 12.7761 16.7761 13 16.5 13V13C16.2239 13 16 12.7761 16 12.5V12.5Z" fill="#556068" fill-opacity="0.8"/>
<path d="M16 14.5C16 14.2239 16.2239 14 16.5 14V14C16.7761 14 17 14.2239 17 14.5V14.5C17 14.7761 16.7761 15 16.5 15V15C16.2239 15 16 14.7761 16 14.5V14.5Z" fill="#556068" fill-opacity="0.8"/>
<path d="M7 12.5C7 12.2239 7.22386 12 7.5 12H14.5C14.7761 12 15 12.2239 15 12.5V12.5C15 12.7761 14.7761 13 14.5 13H7.5C7.22386 13 7 12.7761 7 12.5V12.5Z" fill="#556068" fill-opacity="0.8"/>
<path d="M7 14.5C7 14.2239 7.22386 14 7.5 14H14.5C14.7761 14 15 14.2239 15 14.5V14.5C15 14.7761 14.7761 15 14.5 15H7.5C7.22386 15 7 14.7761 7 14.5V14.5Z" fill="#556068" fill-opacity="0.8"/>
<path d="M3 20C3 19.4477 3.44772 19 4 19H14C14.5523 19 15 19.4477 15 20V20C15 20.5523 14.5523 21 14 21H4C3.44772 21 3 20.5523 3 20V20Z" fill="#556068" fill-opacity="0.8"/>
<path d="M0 4H13C14.1046 4 15 4.89543 15 6V6C15 7.10457 14.1046 8 13 8H0V4Z" fill="#556068"/>
<path d="M2.819 7.02099C2.629 6.99699 2.472 6.92999 2.348 6.81999C2.226 6.70999 2.165 6.55899 2.165 6.36699H2.402C2.402 6.49299 2.438 6.59699 2.51 6.67899C2.584 6.75899 2.687 6.80999 2.819 6.83199L2.822 5.97699C2.706 5.93899 2.614 5.90199 2.546 5.86599C2.438 5.80799 2.358 5.73999 2.306 5.66199C2.256 5.58399 2.231 5.49299 2.231 5.38899C2.231 5.24099 2.285 5.11999 2.393 5.02599C2.503 4.92999 2.645 4.86999 2.819 4.84599V4.59399H3.053V4.83999C3.175 4.85199 3.285 4.88599 3.383 4.94199C3.481 4.99599 3.557 5.06899 3.611 5.16099C3.667 5.25299 3.695 5.35899 3.695 5.47899H3.458C3.458 5.36099 3.421 5.26099 3.347 5.17899C3.273 5.09699 3.175 5.04799 3.053 5.03199L3.05 5.83299C3.14 5.86099 3.217 5.88799 3.281 5.91399C3.347 5.93999 3.406 5.97099 3.458 6.00699C3.626 6.12099 3.71 6.27399 3.71 6.46599C3.71 6.54799 3.688 6.62999 3.644 6.71199C3.602 6.79399 3.532 6.86499 3.434 6.92499C3.338 6.98299 3.212 7.01699 3.056 7.02699V7.27599H2.819V7.02099ZM2.468 5.38899C2.468 5.49099 2.509 5.57399 2.591 5.63799C2.645 5.67999 2.722 5.71999 2.822 5.75799L2.819 5.03799C2.711 5.05799 2.625 5.09999 2.561 5.16399C2.499 5.22799 2.468 5.30299 2.468 5.38899ZM3.053 6.84099C3.179 6.82899 3.28 6.78899 3.356 6.72099C3.434 6.65299 3.473 6.56899 3.473 6.46899C3.473 6.35499 3.432 6.26399 3.35 6.19599C3.284 6.14199 3.184 6.09299 3.05 6.04899L3.053 6.84099Z" fill="white"/>
<path d="M5.17093 6.27999H5.47993V6.46299H5.17093V6.99999H4.93693V6.46299H3.99793L3.99193 6.31899L4.92793 4.86999L5.17093 4.86699V6.27999ZM4.93693 6.27999V5.16399L4.21993 6.27999H4.93693Z" fill="white"/>
<path d="M5.80913 5.91099L5.92013 4.87299H7.03613V5.05599H6.11213L6.04313 5.76099C6.08913 5.72499 6.14813 5.69599 6.22013 5.67399C6.29413 5.64999 6.36613 5.63799 6.43613 5.63799C6.63413 5.63799 6.79013 5.69899 6.90413 5.82099C7.02013 5.94299 7.07813 6.10799 7.07813 6.31599C7.07813 6.53799 7.02013 6.71299 6.90413 6.84099C6.79013 6.96699 6.63013 7.02999 6.42413 7.02999C6.29413 7.02999 6.17913 7.00399 6.07913 6.95199C5.97913 6.89999 5.90013 6.82899 5.84213 6.73899C5.78413 6.64699 5.75313 6.54199 5.74913 6.42399H5.98313C5.99513 6.55799 6.03913 6.66199 6.11513 6.73599C6.19113 6.80999 6.29413 6.84699 6.42413 6.84699C6.56413 6.84699 6.66913 6.80099 6.73913 6.70899C6.80913 6.61699 6.84413 6.48299 6.84413 6.30699C6.84413 6.15299 6.80313 6.03099 6.72113 5.94099C6.63913 5.85099 6.52713 5.80599 6.38513 5.80599C6.22513 5.80599 6.09413 5.85699 5.99213 5.95899L5.80913 5.91099Z" fill="white"/>
</svg>
