<svg width="26" height="19" viewBox="0 0 26 19" fill="none" xmlns="http://www.w3.org/2000/svg">
<path d="M0 8C0 7.44772 0.447715 7 1 7H7C7.55228 7 8 7.44772 8 8V14C8 14.5523 7.55228 15 7 15H1C0.447715 15 0 14.5523 0 14V8Z" fill="#556068"/>
<path d="M3 4.75C3 4.61193 3.11193 4.5 3.25 4.5H7.75C7.88807 4.5 8 4.61193 8 4.75V4.75C8 4.88807 7.88807 5 7.75 5H3.25C3.11193 5 3 4.88807 3 4.75V4.75Z" fill="#A2A2A2"/>
<path d="M5 5.75C5 5.61193 5.11193 5.5 5.25 5.5H7.75C7.88807 5.5 8 5.61193 8 5.75V5.75C8 5.88807 7.88807 6 7.75 6H5.25C5.11193 6 5 5.88807 5 5.75V5.75Z" fill="#A2A2A2"/>
<path d="M9 8C9 7.44772 9.44772 7 10 7H16C16.5523 7 17 7.44772 17 8V14C17 14.5523 16.5523 15 16 15H10C9.44772 15 9 14.5523 9 14V8Z" fill="#556068"/>
<path d="M12 4.75C12 4.61193 12.1119 4.5 12.25 4.5H16.75C16.8881 4.5 17 4.61193 17 4.75V4.75C17 4.88807 16.8881 5 16.75 5H12.25C12.1119 5 12 4.88807 12 4.75V4.75Z" fill="#A2A2A2"/>
<path d="M14 5.75C14 5.61193 14.1119 5.5 14.25 5.5H16.75C16.8881 5.5 17 5.61193 17 5.75V5.75C17 5.88807 16.8881 6 16.75 6H14.25C14.1119 6 14 5.88807 14 5.75V5.75Z" fill="#A2A2A2"/>
<path d="M18 8C18 7.44772 18.4477 7 19 7H25C25.5523 7 26 7.44772 26 8V14C26 14.5523 25.5523 15 25 15H19C18.4477 15 18 14.5523 18 14V8Z" fill="#556068"/>
<path d="M21 4.75C21 4.61193 21.1119 4.5 21.25 4.5H25.75C25.8881 4.5 26 4.61193 26 4.75V4.75C26 4.88807 25.8881 5 25.75 5H21.25C21.1119 5 21 4.88807 21 4.75V4.75Z" fill="#A2A2A2"/>
<path d="M23 5.75C23 5.61193 23.1119 5.5 23.25 5.5H25.75C25.8881 5.5 26 5.61193 26 5.75V5.75C26 5.88807 25.8881 6 25.75 6H23.25C23.1119 6 23 5.88807 23 5.75V5.75Z" fill="#A2A2A2"/>
<path d="M21 0.5C21 0.223858 21.2239 0 21.5 0H25.5C25.7761 0 26 0.223858 26 0.5V0.5C26 0.776142 25.7761 1 25.5 1H21.5C21.2239 1 21 0.776142 21 0.5V0.5Z" fill="#E5E5E5"/>
<path d="M0 0.5C0 0.223858 0.223858 0 0.5 0H2.5C2.77614 0 3 0.223858 3 0.5V0.5C3 0.776142 2.77614 1 2.5 1H0.5C0.223858 1 0 0.776142 0 0.5V0.5Z" fill="#E5E5E5"/>
<path d="M11 18.5C11 18.2239 11.2239 18 11.5 18H14.5C14.7761 18 15 18.2239 15 18.5V18.5C15 18.7761 14.7761 19 14.5 19H11.5C11.2239 19 11 18.7761 11 18.5V18.5Z" fill="#E5E5E5"/>
</svg>
