<svg width="25" height="9" viewBox="0 0 25 9" fill="none" xmlns="http://www.w3.org/2000/svg">
<path d="M0 0.5C0 0.223858 0.223858 0 0.5 0H4.5C4.77614 0 5 0.223858 5 0.5V8.5C5 8.77614 4.77614 9 4.5 9H0.5C0.223858 9 0 8.77614 0 8.5V0.5Z" fill="#E5E5E5"/>
<path d="M0 0.5C0 0.223858 0.223858 0 0.5 0H4.5C4.77614 0 5 0.223858 5 0.5V3.5C5 3.77614 4.77614 4 4.5 4H0.5C0.223858 4 0 3.77614 0 3.5V0.5Z" fill="#556068"/>
<path d="M0.5 0.7C0.5 0.589543 0.589543 0.5 0.7 0.5H1.3C1.41046 0.5 1.5 0.589543 1.5 0.7V1.3C1.5 1.41046 1.41046 1.5 1.3 1.5H0.7C0.589543 1.5 0.5 1.41046 0.5 1.3V0.7Z" fill="#D5DDE2"/>
<path d="M1 5.75C1 5.61193 1.11193 5.5 1.25 5.5H3.75C3.88807 5.5 4 5.61193 4 5.75V5.75C4 5.88807 3.88807 6 3.75 6H1.25C1.11193 6 1 5.88807 1 5.75V5.75Z" fill="#A2A2A2"/>
<path d="M2 6.75C2 6.61193 2.11193 6.5 2.25 6.5H3.75C3.88807 6.5 4 6.61193 4 6.75V6.75C4 6.88807 3.88807 7 3.75 7H2.25C2.11193 7 2 6.88807 2 6.75V6.75Z" fill="#A2A2A2"/>
<path d="M6 0.5C6 0.223858 6.22386 0 6.5 0H10.5C10.7761 0 11 0.223858 11 0.5V8.5C11 8.77614 10.7761 9 10.5 9H6.5C6.22386 9 6 8.77614 6 8.5V0.5Z" fill="#E5E5E5"/>
<path d="M6 0.5C6 0.223858 6.22386 0 6.5 0H10.5C10.7761 0 11 0.223858 11 0.5V3.5C11 3.77614 10.7761 4 10.5 4H6.5C6.22386 4 6 3.77614 6 3.5V0.5Z" fill="#556068"/>
<path d="M6.5 0.7C6.5 0.589543 6.58954 0.5 6.7 0.5H7.3C7.41046 0.5 7.5 0.589543 7.5 0.7V1.3C7.5 1.41046 7.41046 1.5 7.3 1.5H6.7C6.58954 1.5 6.5 1.41046 6.5 1.3V0.7Z" fill="#D5DDE2"/>
<path d="M7 5.75C7 5.61193 7.11193 5.5 7.25 5.5H9.75C9.88807 5.5 10 5.61193 10 5.75V5.75C10 5.88807 9.88807 6 9.75 6H7.25C7.11193 6 7 5.88807 7 5.75V5.75Z" fill="#A2A2A2"/>
<path d="M8 6.75C8 6.61193 8.11193 6.5 8.25 6.5H9.75C9.88807 6.5 10 6.61193 10 6.75V6.75C10 6.88807 9.88807 7 9.75 7H8.25C8.11193 7 8 6.88807 8 6.75V6.75Z" fill="#A2A2A2"/>
<path d="M12 0.5C12 0.223858 12.2239 0 12.5 0H16.5C16.7761 0 17 0.223858 17 0.5V8.5C17 8.77614 16.7761 9 16.5 9H12.5C12.2239 9 12 8.77614 12 8.5V0.5Z" fill="#E5E5E5"/>
<path d="M12 0.5C12 0.223858 12.2239 0 12.5 0H16.5C16.7761 0 17 0.223858 17 0.5V3.5C17 3.77614 16.7761 4 16.5 4H12.5C12.2239 4 12 3.77614 12 3.5V0.5Z" fill="#556068"/>
<path d="M12.5 0.7C12.5 0.589543 12.5895 0.5 12.7 0.5H13.3C13.4105 0.5 13.5 0.589543 13.5 0.7V1.3C13.5 1.41046 13.4105 1.5 13.3 1.5H12.7C12.5895 1.5 12.5 1.41046 12.5 1.3V0.7Z" fill="#D5DDE2"/>
<path d="M13 5.75C13 5.61193 13.1119 5.5 13.25 5.5H15.75C15.8881 5.5 16 5.61193 16 5.75V5.75C16 5.88807 15.8881 6 15.75 6H13.25C13.1119 6 13 5.88807 13 5.75V5.75Z" fill="#A2A2A2"/>
<path d="M14 6.75C14 6.61193 14.1119 6.5 14.25 6.5H15.75C15.8881 6.5 16 6.61193 16 6.75V6.75C16 6.88807 15.8881 7 15.75 7H14.25C14.1119 7 14 6.88807 14 6.75V6.75Z" fill="#A2A2A2"/>
<path d="M20 1.25C20 1.11193 20.1119 1 20.25 1H24.75C24.8881 1 25 1.11193 25 1.25V1.25C25 1.38807 24.8881 1.5 24.75 1.5H20.25C20.1119 1.5 20 1.38807 20 1.25V1.25Z" fill="#556068" fill-opacity="0.6"/>
<path d="M23 2.25C23 2.11193 23.1119 2 23.25 2H24.75C24.8881 2 25 2.11193 25 2.25V2.25C25 2.38807 24.8881 2.5 24.75 2.5H23.25C23.1119 2.5 23 2.38807 23 2.25V2.25Z" fill="#556068" fill-opacity="0.6"/>
<path d="M22 7.5C22 7.22386 22.2239 7 22.5 7H24.5C24.7761 7 25 7.22386 25 7.5V7.5C25 7.77614 24.7761 8 24.5 8H22.5C22.2239 8 22 7.77614 22 7.5V7.5Z" fill="#556068" fill-opacity="0.6"/>
<path d="M19.2 7.5C19.2 7.22386 19.4238 7 19.7 7V7C19.9761 7 20.2 7.22386 20.2 7.5V7.5C20.2 7.77614 19.9761 8 19.7 8V8C19.4238 8 19.2 7.77614 19.2 7.5V7.5Z" fill="#556068" fill-opacity="0.6"/>
<path d="M20.5 7.5C20.5 7.22386 20.7239 7 21 7V7C21.2761 7 21.5 7.22386 21.5 7.5V7.5C21.5 7.77614 21.2761 8 21 8V8C20.7239 8 20.5 7.77614 20.5 7.5V7.5Z" fill="#556068" fill-opacity="0.6"/>
</svg>
