<svg width="24" height="10" viewBox="0 0 24 10" fill="none" xmlns="http://www.w3.org/2000/svg">
<path d="M16 2.5C16 2.22386 16.2239 2 16.5 2H23.5C23.7761 2 24 2.22386 24 2.5V2.5C24 2.77614 23.7761 3 23.5 3H16.5C16.2239 3 16 2.77614 16 2.5V2.5Z" fill="#556068" fill-opacity="0.6"/>
<path d="M20 4.5C20 4.22386 20.2239 4 20.5 4H23.5C23.7761 4 24 4.22386 24 4.5V4.5C24 4.77614 23.7761 5 23.5 5H20.5C20.2239 5 20 4.77614 20 4.5V4.5Z" fill="#556068" fill-opacity="0.4"/>
<path d="M16 8C16 7.44772 16.4477 7 17 7H21C21.5523 7 22 7.44772 22 8V8C22 8.55228 21.5523 9 21 9H17C16.4477 9 16 8.55228 16 8V8Z" fill="#556068" fill-opacity="0.4"/>
<path d="M0 1C0 0.447716 0.447715 0 1 0H13C13.5523 0 14 0.447715 14 1V9C14 9.55228 13.5523 10 13 10H1C0.447716 10 0 9.55228 0 9V1Z" fill="#556068"/>
</svg>
