<svg width="28" height="6" viewBox="0 0 28 6" fill="none" xmlns="http://www.w3.org/2000/svg">
<path opacity="0.9" d="M0 0.5C0 0.223858 0.223858 0 0.5 0H27.5C27.7761 0 28 0.223858 28 0.5V5.5C28 5.77614 27.7761 6 27.5 6H0.5C0.223857 6 0 5.77614 0 5.5V0.5Z" fill="#E5E5E5"/>
<path d="M2 1.5C2 1.22386 2.22386 1 2.5 1H9.5C9.77614 1 10 1.22386 10 1.5V4.5C10 4.77614 9.77614 5 9.5 5H2.5C2.22386 5 2 4.77614 2 4.5V1.5Z" fill="#556068"/>
<path d="M18 3C18 2.72386 18.2239 2.5 18.5 2.5H25.5C25.7761 2.5 26 2.72386 26 3V3C26 3.27614 25.7761 3.5 25.5 3.5H18.5C18.2239 3.5 18 3.27614 18 3V3Z" fill="#A2A2A2"/>
</svg>
