<svg width="28" height="24" viewBox="0 0 28 24" fill="none" xmlns="http://www.w3.org/2000/svg">
<path d="M7 4C7 3.44772 7.44772 3 8 3H20C20.5523 3 21 3.44772 21 4V20C21 20.5523 20.5523 21 20 21H8C7.44772 21 7 20.5523 7 20V4Z" fill="#556068"/>
<path d="M7 24H21V23H7V24Z" fill="#556068"/>
<path d="M11 3C11 1.34315 12.3431 0 14 0V0C15.6569 0 17 1.34315 17 3V3C17 4.65685 15.6569 6 14 6V6C12.3431 6 11 4.65685 11 3V3Z" fill="#D5DDE2"/>
<path fill-rule="evenodd" clip-rule="evenodd" d="M11.5 3C11.5 4.38071 12.6193 5.5 14 5.5C15.3807 5.5 16.5 4.38071 16.5 3C16.5 1.61929 15.3807 0.5 14 0.5C12.6193 0.5 11.5 1.61929 11.5 3ZM14 0C12.3431 0 11 1.34315 11 3C11 4.65685 12.3431 6 14 6C15.6569 6 17 4.65685 17 3C17 1.34315 15.6569 0 14 0Z" fill="#3B3F43"/>
<path d="M12 3C12 1.89543 12.8954 1 14 1V1C15.1046 1 16 1.89543 16 3V3C16 4.10457 15.1046 5 14 5V5C12.8954 5 12 4.10457 12 3V3Z" fill="#3B3F43"/>
<path d="M11 10.5C11 10.2239 11.2239 10 11.5 10H16.5C16.7761 10 17 10.2239 17 10.5V10.5C17 10.7761 16.7761 11 16.5 11H11.5C11.2239 11 11 10.7761 11 10.5V10.5Z" fill="#D5DDE2"/>
<path d="M10 12.25C10 12.1119 10.1119 12 10.25 12H17.75C17.8881 12 18 12.1119 18 12.25V12.25C18 12.3881 17.8881 12.5 17.75 12.5H10.25C10.1119 12.5 10 12.3881 10 12.25V12.25Z" fill="#D5DDE2"/>
<g opacity="0.2">
<path d="M0 24H6V23H0V24Z" fill="#556068"/>
<mask id="mask0_26_2733" style="mask-type:alpha" maskUnits="userSpaceOnUse" x="0" y="2" width="6" height="7">
<path d="M0 2H6V9H0V2Z" fill="#D9D9D9"/>
</mask>
<g mask="url(#mask0_26_2733)">
<path d="M-1 6C-1 4.34315 0.343146 3 2 3V3C3.65685 3 5 4.34315 5 6V6C5 7.65685 3.65685 9 2 9V9C0.343146 9 -1 7.65685 -1 6V6Z" fill="#D5DDE2"/>
<path fill-rule="evenodd" clip-rule="evenodd" d="M-0.5 6C-0.5 7.38071 0.619288 8.5 2 8.5C3.38071 8.5 4.5 7.38071 4.5 6C4.5 4.61929 3.38071 3.5 2 3.5C0.619288 3.5 -0.5 4.61929 -0.5 6ZM2 3C0.343146 3 -1 4.34315 -1 6C-1 7.65685 0.343146 9 2 9C3.65685 9 5 7.65685 5 6C5 4.34315 3.65685 3 2 3Z" fill="#556068"/>
<path d="M0 6C0 4.89543 0.895431 4 2 4V4C3.10457 4 4 4.89543 4 6V6C4 7.10457 3.10457 8 2 8V8C0.895431 8 0 7.10457 0 6V6Z" fill="#556068"/>
</g>
<path d="M0 13H4.5C4.77614 13 5 13.2239 5 13.5V13.5C5 13.7761 4.77614 14 4.5 14H0V13Z" fill="#556068"/>
<path d="M0 15H5.75C5.88807 15 6 15.1119 6 15.25V15.25C6 15.3881 5.88807 15.5 5.75 15.5H0V15Z" fill="#556068"/>
</g>
<g opacity="0.2">
<path d="M22 24H28V23H22V24Z" fill="#556068"/>
<mask id="mask1_26_2733" style="mask-type:alpha" maskUnits="userSpaceOnUse" x="22" y="2" width="6" height="7">
<path d="M22 2H28V9H22V2Z" fill="#D9D9D9"/>
</mask>
<g mask="url(#mask1_26_2733)">
<path d="M23 6C23 4.34315 24.3431 3 26 3V3C27.6569 3 29 4.34315 29 6V6C29 7.65685 27.6569 9 26 9V9C24.3431 9 23 7.65685 23 6V6Z" fill="#D5DDE2"/>
<path fill-rule="evenodd" clip-rule="evenodd" d="M23.5 6C23.5 7.38071 24.6193 8.5 26 8.5C27.3807 8.5 28.5 7.38071 28.5 6C28.5 4.61929 27.3807 3.5 26 3.5C24.6193 3.5 23.5 4.61929 23.5 6ZM26 3C24.3431 3 23 4.34315 23 6C23 7.65685 24.3431 9 26 9C27.6569 9 29 7.65685 29 6C29 4.34315 27.6569 3 26 3Z" fill="#556068"/>
<path d="M24 6C24 4.89543 24.8954 4 26 4V4C27.1046 4 28 4.89543 28 6V6C28 7.10457 27.1046 8 26 8V8C24.8954 8 24 7.10457 24 6V6Z" fill="#556068"/>
</g>
<path d="M22 13.5C22 13.2239 22.2239 13 22.5 13H28V14H22.5C22.2239 14 22 13.7761 22 13.5V13.5Z" fill="#556068"/>
<path d="M22 15.25C22 15.1119 22.1119 15 22.25 15H28V15.5H22.25C22.1119 15.5 22 15.3881 22 15.25V15.25Z" fill="#556068"/>
</g>
</svg>
