<svg width="24" height="8" viewBox="0 0 24 8" fill="none" xmlns="http://www.w3.org/2000/svg">
<path d="M0 0H8V8H0V0Z" fill="#E5E5E5"/>
<path d="M3 2C3 1.44772 3.44772 1 4 1V1C4.55228 1 5 1.44772 5 2V2C5 2.55228 4.55228 3 4 3V3C3.44772 3 3 2.55228 3 2V2Z" fill="#556068"/>
<path d="M2 5.25C2 5.11193 2.11193 5 2.25 5H5.75C5.88807 5 6 5.11193 6 5.25V5.25C6 5.38807 5.88807 5.5 5.75 5.5H2.25C2.11193 5.5 2 5.38807 2 5.25V5.25Z" fill="#556068"/>
<path d="M3 6.25C3 6.11193 3.11193 6 3.25 6H4.75C4.88807 6 5 6.11193 5 6.25V6.25C5 6.38807 4.88807 6.5 4.75 6.5H3.25C3.11193 6.5 3 6.38807 3 6.25V6.25Z" fill="#556068"/>
<path d="M8 0H16V8H8V0Z" fill="#556068"/>
<path d="M11 2C11 1.44772 11.4477 1 12 1V1C12.5523 1 13 1.44772 13 2V2C13 2.55228 12.5523 3 12 3V3C11.4477 3 11 2.55228 11 2V2Z" fill="#F4F4F4"/>
<path d="M10 5.25C10 5.11193 10.1119 5 10.25 5H13.75C13.8881 5 14 5.11193 14 5.25V5.25C14 5.38807 13.8881 5.5 13.75 5.5H10.25C10.1119 5.5 10 5.38807 10 5.25V5.25Z" fill="#F4F4F4"/>
<path d="M11 6.25C11 6.11193 11.1119 6 11.25 6H12.75C12.8881 6 13 6.11193 13 6.25V6.25C13 6.38807 12.8881 6.5 12.75 6.5H11.25C11.1119 6.5 11 6.38807 11 6.25V6.25Z" fill="#F4F4F4"/>
<path d="M16 0H24V8H16V0Z" fill="#E5E5E5"/>
<path d="M19 2C19 1.44772 19.4477 1 20 1V1C20.5523 1 21 1.44772 21 2V2C21 2.55228 20.5523 3 20 3V3C19.4477 3 19 2.55228 19 2V2Z" fill="#556068"/>
<path d="M18 5.25C18 5.11193 18.1119 5 18.25 5H21.75C21.8881 5 22 5.11193 22 5.25V5.25C22 5.38807 21.8881 5.5 21.75 5.5H18.25C18.1119 5.5 18 5.38807 18 5.25V5.25Z" fill="#556068"/>
<path d="M19 6.25C19 6.11193 19.1119 6 19.25 6H20.75C20.8881 6 21 6.11193 21 6.25V6.25C21 6.38807 20.8881 6.5 20.75 6.5H19.25C19.1119 6.5 19 6.38807 19 6.25V6.25Z" fill="#556068"/>
</svg>
