<svg width="22" height="28" viewBox="0 0 22 28" fill="none" xmlns="http://www.w3.org/2000/svg">
<path d="M0 1C0 0.447715 0.447715 0 1 0H21C21.5523 0 22 0.447715 22 1V27C22 27.5523 21.5523 28 21 28H1C0.447716 28 0 27.5523 0 27V1Z" fill="#556068"/>
<path d="M12 5C12 4.44772 12.4477 4 13 4H18C18.5523 4 19 4.44772 19 5V10C19 10.5523 18.5523 11 18 11H13C12.4477 11 12 10.5523 12 10V5Z" fill="#D5DDE2"/>
<path d="M5 14C5 13.4477 5.44772 13 6 13H18C18.5523 13 19 13.4477 19 14V14C19 14.5523 18.5523 15 18 15H6C5.44772 15 5 14.5523 5 14V14Z" fill="#D5DDE2"/>
<path d="M6 17.5C6 17.2239 6.22386 17 6.5 17H18.5C18.7761 17 19 17.2239 19 17.5V17.5C19 17.7761 18.7761 18 18.5 18H6.5C6.22386 18 6 17.7761 6 17.5V17.5Z" fill="#D5DDE2"/>
</svg>
