<svg width="24" height="9" viewBox="0 0 24 9" fill="none" xmlns="http://www.w3.org/2000/svg">
<path d="M7 1C7 0.447715 7.44772 0 8 0H11C11.5523 0 12 0.447715 12 1V6H7V1Z" fill="#556068"/>
<path d="M7.5 7.25C7.5 7.11193 7.61193 7 7.75 7H11.25C11.3881 7 11.5 7.11193 11.5 7.25V7.25C11.5 7.38807 11.3881 7.5 11.25 7.5H7.75C7.61193 7.5 7.5 7.38807 7.5 7.25V7.25Z" fill="#556068" fill-opacity="0.7"/>
<path d="M9 8.25C9 8.11193 9.11193 8 9.25 8H10.75C10.8881 8 11 8.11193 11 8.25V8.25C11 8.38807 10.8881 8.5 10.75 8.5H9.25C9.11193 8.5 9 8.38807 9 8.25V8.25Z" fill="#556068" fill-opacity="0.7"/>
<path d="M8.34001 8.51499C8.29134 8.51499 8.24267 8.50799 8.19401 8.49399C8.14601 8.47999 8.10467 8.46166 8.07001 8.43899L8.10101 8.36699C8.13034 8.38566 8.16701 8.40166 8.21101 8.41499C8.25501 8.42766 8.29667 8.43399 8.33601 8.43399C8.39001 8.43399 8.43267 8.42432 8.46401 8.40499C8.49534 8.38566 8.51101 8.35866 8.51101 8.32399C8.51101 8.29932 8.50367 8.27966 8.48901 8.26499C8.47434 8.24966 8.45534 8.23799 8.43201 8.22999C8.40867 8.22132 8.37501 8.21132 8.33101 8.19999C8.27301 8.18399 8.22701 8.16766 8.19301 8.15099C8.15967 8.13366 8.13467 8.11266 8.11801 8.08799C8.10201 8.06332 8.09401 8.03199 8.09401 7.99399C8.09401 7.95399 8.10501 7.91932 8.12701 7.88999C8.14967 7.86066 8.18034 7.83832 8.21901 7.82299C8.25834 7.80766 8.30267 7.79999 8.35201 7.79999C8.42134 7.79999 8.49534 7.81499 8.57401 7.84499L8.54601 7.91999C8.47801 7.89466 8.41334 7.88199 8.35201 7.88199C8.29934 7.88199 8.25767 7.89232 8.22701 7.91299C8.19634 7.93299 8.18101 7.96032 8.18101 7.99499C8.18101 8.02032 8.18767 8.04066 8.20101 8.05599C8.21501 8.07066 8.23367 8.08232 8.25701 8.09099C8.28101 8.09966 8.31567 8.10966 8.36101 8.12099C8.44301 8.14166 8.50301 8.16666 8.54101 8.19599C8.57901 8.22466 8.59801 8.26499 8.59801 8.31699C8.59801 8.37899 8.57401 8.42766 8.52601 8.46299C8.47801 8.49766 8.41601 8.51499 8.34001 8.51499ZM8.31801 8.49999H8.38501V8.61299H8.31801V8.49999ZM8.31801 7.70099H8.38501V7.81499H8.31801V7.70099Z" fill="#556068"/>
<path d="M0 0H5V9H0V0Z" fill="#A2A2A2"/>
<path d="M0.5 1.25C0.5 1.11193 0.611929 1 0.75 1H4.25C4.38807 1 4.5 1.11193 4.5 1.25V1.25C4.5 1.38807 4.38807 1.5 4.25 1.5H0.75C0.611929 1.5 0.5 1.38807 0.5 1.25V1.25Z" fill="#E5E5E5"/>
<path d="M1 3.25C1 3.11193 1.11193 3 1.25 3H3.75C3.88807 3 4 3.11193 4 3.25V3.75C4 3.88807 3.88807 4 3.75 4H1.25C1.11193 4 1 3.88807 1 3.75V3.25Z" fill="#E5E5E5"/>
<path d="M13 1C13 0.447715 13.4477 0 14 0H17C17.5523 0 18 0.447715 18 1V6H13V1Z" fill="#556068"/>
<path d="M13.5 7.25C13.5 7.11193 13.6119 7 13.75 7H17.25C17.3881 7 17.5 7.11193 17.5 7.25V7.25C17.5 7.38807 17.3881 7.5 17.25 7.5H13.75C13.6119 7.5 13.5 7.38807 13.5 7.25V7.25Z" fill="#556068" fill-opacity="0.7"/>
<path d="M15 8.25C15 8.11193 15.1119 8 15.25 8H16.75C16.8881 8 17 8.11193 17 8.25V8.25C17 8.38807 16.8881 8.5 16.75 8.5H15.25C15.1119 8.5 15 8.38807 15 8.25V8.25Z" fill="#556068" fill-opacity="0.7"/>
<path d="M14.34 8.51499C14.2913 8.51499 14.2427 8.50799 14.194 8.49399C14.146 8.47999 14.1047 8.46166 14.07 8.43899L14.101 8.36699C14.1303 8.38566 14.167 8.40166 14.211 8.41499C14.255 8.42766 14.2967 8.43399 14.336 8.43399C14.39 8.43399 14.4327 8.42432 14.464 8.40499C14.4953 8.38566 14.511 8.35866 14.511 8.32399C14.511 8.29932 14.5037 8.27966 14.489 8.26499C14.4743 8.24966 14.4553 8.23799 14.432 8.22999C14.4087 8.22132 14.375 8.21132 14.331 8.19999C14.273 8.18399 14.227 8.16766 14.193 8.15099C14.1597 8.13366 14.1347 8.11266 14.118 8.08799C14.102 8.06332 14.094 8.03199 14.094 7.99399C14.094 7.95399 14.105 7.91932 14.127 7.88999C14.1497 7.86066 14.1803 7.83832 14.219 7.82299C14.2583 7.80766 14.3027 7.79999 14.352 7.79999C14.4213 7.79999 14.4953 7.81499 14.574 7.84499L14.546 7.91999C14.478 7.89466 14.4133 7.88199 14.352 7.88199C14.2993 7.88199 14.2577 7.89232 14.227 7.91299C14.1963 7.93299 14.181 7.96032 14.181 7.99499C14.181 8.02032 14.1877 8.04066 14.201 8.05599C14.215 8.07066 14.2337 8.08232 14.257 8.09099C14.281 8.09966 14.3157 8.10966 14.361 8.12099C14.443 8.14166 14.503 8.16666 14.541 8.19599C14.579 8.22466 14.598 8.26499 14.598 8.31699C14.598 8.37899 14.574 8.42766 14.526 8.46299C14.478 8.49766 14.416 8.51499 14.34 8.51499ZM14.318 8.49999H14.385V8.61299H14.318V8.49999ZM14.318 7.70099H14.385V7.81499H14.318V7.70099Z" fill="#556068"/>
<path d="M19 1C19 0.447715 19.4477 0 20 0H23C23.5523 0 24 0.447715 24 1V6H19V1Z" fill="#556068"/>
<path d="M19.5 7.25C19.5 7.11193 19.6119 7 19.75 7H23.25C23.3881 7 23.5 7.11193 23.5 7.25V7.25C23.5 7.38807 23.3881 7.5 23.25 7.5H19.75C19.6119 7.5 19.5 7.38807 19.5 7.25V7.25Z" fill="#556068" fill-opacity="0.7"/>
<path d="M21 8.25C21 8.11193 21.1119 8 21.25 8H22.75C22.8881 8 23 8.11193 23 8.25V8.25C23 8.38807 22.8881 8.5 22.75 8.5H21.25C21.1119 8.5 21 8.38807 21 8.25V8.25Z" fill="#556068" fill-opacity="0.7"/>
<path d="M20.34 8.51499C20.2913 8.51499 20.2427 8.50799 20.194 8.49399C20.146 8.47999 20.1047 8.46166 20.07 8.43899L20.101 8.36699C20.1303 8.38566 20.167 8.40166 20.211 8.41499C20.255 8.42766 20.2967 8.43399 20.336 8.43399C20.39 8.43399 20.4327 8.42432 20.464 8.40499C20.4953 8.38566 20.511 8.35866 20.511 8.32399C20.511 8.29932 20.5037 8.27966 20.489 8.26499C20.4743 8.24966 20.4553 8.23799 20.432 8.22999C20.4087 8.22132 20.375 8.21132 20.331 8.19999C20.273 8.18399 20.227 8.16766 20.193 8.15099C20.1597 8.13366 20.1347 8.11266 20.118 8.08799C20.102 8.06332 20.094 8.03199 20.094 7.99399C20.094 7.95399 20.105 7.91932 20.127 7.88999C20.1497 7.86066 20.1803 7.83832 20.219 7.82299C20.2583 7.80766 20.3027 7.79999 20.352 7.79999C20.4213 7.79999 20.4953 7.81499 20.574 7.84499L20.546 7.91999C20.478 7.89466 20.4133 7.88199 20.352 7.88199C20.2993 7.88199 20.2577 7.89232 20.227 7.91299C20.1963 7.93299 20.181 7.96032 20.181 7.99499C20.181 8.02032 20.1877 8.04066 20.201 8.05599C20.215 8.07066 20.2337 8.08232 20.257 8.09099C20.281 8.09966 20.3157 8.10966 20.361 8.12099C20.443 8.14166 20.503 8.16666 20.541 8.19599C20.579 8.22466 20.598 8.26499 20.598 8.31699C20.598 8.37899 20.574 8.42766 20.526 8.46299C20.478 8.49766 20.416 8.51499 20.34 8.51499ZM20.318 8.49999H20.385V8.61299H20.318V8.49999ZM20.318 7.70099H20.385V7.81499H20.318V7.70099Z" fill="#556068"/>
</svg>
