<svg width="28" height="13" viewBox="0 0 28 13" fill="none" xmlns="http://www.w3.org/2000/svg">
<path d="M4 4C4 3.44772 4.44772 3 5 3H9C9.55228 3 10 3.44772 10 4V12C10 12.5523 9.55228 13 9 13H5C4.44772 13 4 12.5523 4 12V4Z" fill="#E5E5E5"/>
<path d="M4 4C4 3.44772 4.44772 3 5 3H9C9.55228 3 10 3.44772 10 4V7H4V4Z" fill="#556068"/>
<path d="M7 8.25C7 8.11193 7.11193 8 7.25 8H8.75C8.88807 8 9 8.11193 9 8.25V8.25C9 8.38807 8.88807 8.5 8.75 8.5H7.25C7.11193 8.5 7 8.38807 7 8.25V8.25Z" fill="#556068" fill-opacity="0.7"/>
<path d="M6 9.25C6 9.11193 6.11193 9 6.25 9H8.75C8.88807 9 9 9.11193 9 9.25V9.25C9 9.38807 8.88807 9.5 8.75 9.5H6.25C6.11193 9.5 6 9.38807 6 9.25V9.25Z" fill="#556068" fill-opacity="0.7"/>
<path d="M5 11.5C5 11.2239 5.22386 11 5.5 11H6.5C6.77614 11 7 11.2239 7 11.5V11.5C7 11.7761 6.77614 12 6.5 12H5.5C5.22386 12 5 11.7761 5 11.5V11.5Z" fill="#556068" fill-opacity="0.7"/>
<path d="M5.34001 9.515C5.29134 9.515 5.24267 9.508 5.19401 9.494C5.14601 9.48 5.10467 9.46167 5.07001 9.439L5.10101 9.367C5.13034 9.38567 5.16701 9.40167 5.21101 9.415C5.25501 9.42767 5.29667 9.434 5.33601 9.434C5.39001 9.434 5.43267 9.42434 5.46401 9.405C5.49534 9.38567 5.51101 9.35867 5.51101 9.324C5.51101 9.29934 5.50367 9.27967 5.48901 9.265C5.47434 9.24967 5.45534 9.238 5.43201 9.23C5.40867 9.22134 5.37501 9.21134 5.33101 9.2C5.27301 9.184 5.22701 9.16767 5.19301 9.151C5.15967 9.13367 5.13467 9.11267 5.11801 9.088C5.10201 9.06334 5.09401 9.032 5.09401 8.994C5.09401 8.954 5.10501 8.91934 5.12701 8.89C5.14967 8.86067 5.18034 8.83834 5.21901 8.823C5.25834 8.80767 5.30267 8.8 5.35201 8.8C5.42134 8.8 5.49534 8.815 5.57401 8.845L5.54601 8.92C5.47801 8.89467 5.41334 8.882 5.35201 8.882C5.29934 8.882 5.25767 8.89234 5.22701 8.913C5.19634 8.933 5.18101 8.96034 5.18101 8.995C5.18101 9.02034 5.18767 9.04067 5.20101 9.056C5.21501 9.07067 5.23367 9.08234 5.25701 9.091C5.28101 9.09967 5.31567 9.10967 5.36101 9.121C5.44301 9.14167 5.50301 9.16667 5.54101 9.196C5.57901 9.22467 5.59801 9.265 5.59801 9.317C5.59801 9.379 5.57401 9.42767 5.52601 9.463C5.47801 9.49767 5.41601 9.515 5.34001 9.515ZM5.31801 9.5H5.38501V9.613H5.31801V9.5ZM5.31801 8.701H5.38501V8.815H5.31801V8.701Z" fill="#556068"/>
<path d="M11 4C11 3.44772 11.4477 3 12 3H16C16.5523 3 17 3.44772 17 4V12C17 12.5523 16.5523 13 16 13H12C11.4477 13 11 12.5523 11 12V4Z" fill="#E5E5E5"/>
<path d="M11 4C11 3.44772 11.4477 3 12 3H16C16.5523 3 17 3.44772 17 4V7H11V4Z" fill="#556068"/>
<path d="M14 8.25C14 8.11193 14.1119 8 14.25 8H15.75C15.8881 8 16 8.11193 16 8.25V8.25C16 8.38807 15.8881 8.5 15.75 8.5H14.25C14.1119 8.5 14 8.38807 14 8.25V8.25Z" fill="#556068" fill-opacity="0.7"/>
<path d="M13 9.25C13 9.11193 13.1119 9 13.25 9H15.75C15.8881 9 16 9.11193 16 9.25V9.25C16 9.38807 15.8881 9.5 15.75 9.5H13.25C13.1119 9.5 13 9.38807 13 9.25V9.25Z" fill="#556068" fill-opacity="0.7"/>
<path d="M12 11.5C12 11.2239 12.2239 11 12.5 11H13.5C13.7761 11 14 11.2239 14 11.5V11.5C14 11.7761 13.7761 12 13.5 12H12.5C12.2239 12 12 11.7761 12 11.5V11.5Z" fill="#556068" fill-opacity="0.7"/>
<path d="M12.34 9.515C12.2913 9.515 12.2427 9.508 12.194 9.494C12.146 9.48 12.1047 9.46167 12.07 9.439L12.101 9.367C12.1303 9.38567 12.167 9.40167 12.211 9.415C12.255 9.42767 12.2967 9.434 12.336 9.434C12.39 9.434 12.4327 9.42434 12.464 9.405C12.4953 9.38567 12.511 9.35867 12.511 9.324C12.511 9.29934 12.5037 9.27967 12.489 9.265C12.4743 9.24967 12.4553 9.238 12.432 9.23C12.4087 9.22134 12.375 9.21134 12.331 9.2C12.273 9.184 12.227 9.16767 12.193 9.151C12.1597 9.13367 12.1347 9.11267 12.118 9.088C12.102 9.06334 12.094 9.032 12.094 8.994C12.094 8.954 12.105 8.91934 12.127 8.89C12.1497 8.86067 12.1803 8.83834 12.219 8.823C12.2583 8.80767 12.3027 8.8 12.352 8.8C12.4213 8.8 12.4953 8.815 12.574 8.845L12.546 8.92C12.478 8.89467 12.4133 8.882 12.352 8.882C12.2993 8.882 12.2577 8.89234 12.227 8.913C12.1963 8.933 12.181 8.96034 12.181 8.995C12.181 9.02034 12.1877 9.04067 12.201 9.056C12.215 9.07067 12.2337 9.08234 12.257 9.091C12.281 9.09967 12.3157 9.10967 12.361 9.121C12.443 9.14167 12.503 9.16667 12.541 9.196C12.579 9.22467 12.598 9.265 12.598 9.317C12.598 9.379 12.574 9.42767 12.526 9.463C12.478 9.49767 12.416 9.515 12.34 9.515ZM12.318 9.5H12.385V9.613H12.318V9.5ZM12.318 8.701H12.385V8.815H12.318V8.701Z" fill="#556068"/>
<path d="M18 4C18 3.44772 18.4477 3 19 3H23C23.5523 3 24 3.44772 24 4V12C24 12.5523 23.5523 13 23 13H19C18.4477 13 18 12.5523 18 12V4Z" fill="#E5E5E5"/>
<path d="M18 4C18 3.44772 18.4477 3 19 3H23C23.5523 3 24 3.44772 24 4V7H18V4Z" fill="#556068"/>
<path d="M21 8.25C21 8.11193 21.1119 8 21.25 8H22.75C22.8881 8 23 8.11193 23 8.25V8.25C23 8.38807 22.8881 8.5 22.75 8.5H21.25C21.1119 8.5 21 8.38807 21 8.25V8.25Z" fill="#556068" fill-opacity="0.7"/>
<path d="M20 9.25C20 9.11193 20.1119 9 20.25 9H22.75C22.8881 9 23 9.11193 23 9.25V9.25C23 9.38807 22.8881 9.5 22.75 9.5H20.25C20.1119 9.5 20 9.38807 20 9.25V9.25Z" fill="#556068" fill-opacity="0.7"/>
<path d="M19 11.5C19 11.2239 19.2239 11 19.5 11H20.5C20.7761 11 21 11.2239 21 11.5V11.5C21 11.7761 20.7761 12 20.5 12H19.5C19.2239 12 19 11.7761 19 11.5V11.5Z" fill="#556068" fill-opacity="0.7"/>
<path d="M19.34 9.515C19.2913 9.515 19.2427 9.508 19.194 9.494C19.146 9.48 19.1047 9.46167 19.07 9.439L19.101 9.367C19.1303 9.38567 19.167 9.40167 19.211 9.415C19.255 9.42767 19.2967 9.434 19.336 9.434C19.39 9.434 19.4327 9.42434 19.464 9.405C19.4953 9.38567 19.511 9.35867 19.511 9.324C19.511 9.29934 19.5037 9.27967 19.489 9.265C19.4743 9.24967 19.4553 9.238 19.432 9.23C19.4087 9.22134 19.375 9.21134 19.331 9.2C19.273 9.184 19.227 9.16767 19.193 9.151C19.1597 9.13367 19.1347 9.11267 19.118 9.088C19.102 9.06334 19.094 9.032 19.094 8.994C19.094 8.954 19.105 8.91934 19.127 8.89C19.1497 8.86067 19.1803 8.83834 19.219 8.823C19.2583 8.80767 19.3027 8.8 19.352 8.8C19.4213 8.8 19.4953 8.815 19.574 8.845L19.546 8.92C19.478 8.89467 19.4133 8.882 19.352 8.882C19.2993 8.882 19.2577 8.89234 19.227 8.913C19.1963 8.933 19.181 8.96034 19.181 8.995C19.181 9.02034 19.1877 9.04067 19.201 9.056C19.215 9.07067 19.2337 9.08234 19.257 9.091C19.281 9.09967 19.3157 9.10967 19.361 9.121C19.443 9.14167 19.503 9.16667 19.541 9.196C19.579 9.22467 19.598 9.265 19.598 9.317C19.598 9.379 19.574 9.42767 19.526 9.463C19.478 9.49767 19.416 9.515 19.34 9.515ZM19.318 9.5H19.385V9.613H19.318V9.5ZM19.318 8.701H19.385V8.815H19.318V8.701Z" fill="#556068"/>
<path d="M4 0.5C4 0.223858 4.22386 0 4.5 0H8.5C8.77614 0 9 0.223858 9 0.5V1.5C9 1.77614 8.77614 2 8.5 2H4.5C4.22386 2 4 1.77614 4 1.5V0.5Z" fill="#556068"/>
<path opacity="0.6" fill-rule="evenodd" clip-rule="evenodd" d="M26.6465 9L25.8232 8.17678L26.1768 7.82323L27.1768 8.82323C27.2744 8.92086 27.2744 9.07915 27.1768 9.17678L26.1768 10.1768L25.8232 9.82323L26.6465 9Z" fill="#556068"/>
<path opacity="0.6" fill-rule="evenodd" clip-rule="evenodd" d="M1.35353 9L2.17676 9.82322L1.8232 10.1768L0.823204 9.17677C0.725573 9.07914 0.725573 8.92085 0.823204 8.82322L1.8232 7.82322L2.17676 8.17677L1.35353 9Z" fill="#556068"/>
</svg>
