<svg width="23" height="11" viewBox="0 0 23 11" fill="none" xmlns="http://www.w3.org/2000/svg">
<path d="M12 0.5C12 0.223858 12.2239 0 12.5 0H22.5C22.7761 0 23 0.223858 23 0.5V4.5C23 4.77614 22.7761 5 22.5 5H12.5C12.2239 5 12 4.77614 12 4.5V0.5Z" fill="#E5E5E5"/>
<path d="M19 1H22V4H19V1Z" fill="#556068"/>
<path d="M15 1.25C15 1.11193 15.1119 1 15.25 1H17.75C17.8881 1 18 1.11193 18 1.25V1.25C18 1.38807 17.8881 1.5 17.75 1.5H15.25C15.1119 1.5 15 1.38807 15 1.25V1.25Z" fill="#556068" fill-opacity="0.7"/>
<path d="M16 2.25C16 2.11193 16.1119 2 16.25 2H17.75C17.8881 2 18 2.11193 18 2.25V2.25C18 2.38807 17.8881 2.5 17.75 2.5H16.25C16.1119 2.5 16 2.38807 16 2.25V2.25Z" fill="#556068" fill-opacity="0.7"/>
<path d="M13 4C13 3.72386 13.2239 3.5 13.5 3.5H15C15.2761 3.5 15.5 3.72386 15.5 4V4C15.5 4.27614 15.2761 4.5 15 4.5H13.5C13.2239 4.5 13 4.27614 13 4V4Z" fill="#556068" fill-opacity="0.7"/>
<path d="M15.34 2.51499C15.2913 2.51499 15.2427 2.50799 15.194 2.49399C15.146 2.47999 15.1047 2.46166 15.07 2.43899L15.101 2.36699C15.1303 2.38566 15.167 2.40166 15.211 2.41499C15.255 2.42766 15.2967 2.43399 15.336 2.43399C15.39 2.43399 15.4327 2.42432 15.464 2.40499C15.4953 2.38566 15.511 2.35866 15.511 2.32399C15.511 2.29932 15.5037 2.27966 15.489 2.26499C15.4743 2.24966 15.4553 2.23799 15.432 2.22999C15.4087 2.22132 15.375 2.21132 15.331 2.19999C15.273 2.18399 15.227 2.16766 15.193 2.15099C15.1597 2.13366 15.1347 2.11266 15.118 2.08799C15.102 2.06332 15.094 2.03199 15.094 1.99399C15.094 1.95399 15.105 1.91932 15.127 1.88999C15.1497 1.86066 15.1803 1.83832 15.219 1.82299C15.2583 1.80766 15.3027 1.79999 15.352 1.79999C15.4213 1.79999 15.4953 1.81499 15.574 1.84499L15.546 1.91999C15.478 1.89466 15.4133 1.88199 15.352 1.88199C15.2993 1.88199 15.2577 1.89232 15.227 1.91299C15.1963 1.93299 15.181 1.96032 15.181 1.99499C15.181 2.02032 15.1877 2.04066 15.201 2.05599C15.215 2.07066 15.2337 2.08232 15.257 2.09099C15.281 2.09966 15.3157 2.10966 15.361 2.12099C15.443 2.14166 15.503 2.16666 15.541 2.19599C15.579 2.22466 15.598 2.26499 15.598 2.31699C15.598 2.37899 15.574 2.42766 15.526 2.46299C15.478 2.49766 15.416 2.51499 15.34 2.51499ZM15.318 2.49999H15.385V2.61299H15.318V2.49999ZM15.318 1.70099H15.385V1.81499H15.318V1.70099Z" fill="#556068"/>
<path d="M12 6.5C12 6.22386 12.2239 6 12.5 6H22.5C22.7761 6 23 6.22386 23 6.5V10.5C23 10.7761 22.7761 11 22.5 11H12.5C12.2239 11 12 10.7761 12 10.5V6.5Z" fill="#E5E5E5"/>
<path d="M19 7H22V10H19V7Z" fill="#556068"/>
<path d="M15 7.25C15 7.11193 15.1119 7 15.25 7H17.75C17.8881 7 18 7.11193 18 7.25V7.25C18 7.38807 17.8881 7.5 17.75 7.5H15.25C15.1119 7.5 15 7.38807 15 7.25V7.25Z" fill="#556068" fill-opacity="0.7"/>
<path d="M16 8.25C16 8.11193 16.1119 8 16.25 8H17.75C17.8881 8 18 8.11193 18 8.25V8.25C18 8.38807 17.8881 8.5 17.75 8.5H16.25C16.1119 8.5 16 8.38807 16 8.25V8.25Z" fill="#556068" fill-opacity="0.7"/>
<path d="M13 10C13 9.72386 13.2239 9.5 13.5 9.5H15C15.2761 9.5 15.5 9.72386 15.5 10V10C15.5 10.2761 15.2761 10.5 15 10.5H13.5C13.2239 10.5 13 10.2761 13 10V10Z" fill="#556068" fill-opacity="0.7"/>
<path d="M15.34 8.51499C15.2913 8.51499 15.2427 8.50799 15.194 8.49399C15.146 8.47999 15.1047 8.46166 15.07 8.43899L15.101 8.36699C15.1303 8.38566 15.167 8.40166 15.211 8.41499C15.255 8.42766 15.2967 8.43399 15.336 8.43399C15.39 8.43399 15.4327 8.42432 15.464 8.40499C15.4953 8.38566 15.511 8.35866 15.511 8.32399C15.511 8.29932 15.5037 8.27966 15.489 8.26499C15.4743 8.24966 15.4553 8.23799 15.432 8.22999C15.4087 8.22132 15.375 8.21132 15.331 8.19999C15.273 8.18399 15.227 8.16766 15.193 8.15099C15.1597 8.13366 15.1347 8.11266 15.118 8.08799C15.102 8.06332 15.094 8.03199 15.094 7.99399C15.094 7.95399 15.105 7.91932 15.127 7.88999C15.1497 7.86066 15.1803 7.83832 15.219 7.82299C15.2583 7.80766 15.3027 7.79999 15.352 7.79999C15.4213 7.79999 15.4953 7.81499 15.574 7.84499L15.546 7.91999C15.478 7.89466 15.4133 7.88199 15.352 7.88199C15.2993 7.88199 15.2577 7.89232 15.227 7.91299C15.1963 7.93299 15.181 7.96032 15.181 7.99499C15.181 8.02032 15.1877 8.04066 15.201 8.05599C15.215 8.07066 15.2337 8.08232 15.257 8.09099C15.281 8.09966 15.3157 8.10966 15.361 8.12099C15.443 8.14166 15.503 8.16666 15.541 8.19599C15.579 8.22466 15.598 8.26499 15.598 8.31699C15.598 8.37899 15.574 8.42766 15.526 8.46299C15.478 8.49766 15.416 8.51499 15.34 8.51499ZM15.318 8.49999H15.385V8.61299H15.318V8.49999ZM15.318 7.70099H15.385V7.81499H15.318V7.70099Z" fill="#556068"/>
<path d="M0 0.5C0 0.223858 0.223858 0 0.5 0H10.5C10.7761 0 11 0.223858 11 0.5V4.5C11 4.77614 10.7761 5 10.5 5H0.5C0.223858 5 0 4.77614 0 4.5V0.5Z" fill="#E5E5E5"/>
<path d="M7 1H10V4H7V1Z" fill="#556068"/>
<path d="M3 1.25C3 1.11193 3.11193 1 3.25 1H5.75C5.88807 1 6 1.11193 6 1.25V1.25C6 1.38807 5.88807 1.5 5.75 1.5H3.25C3.11193 1.5 3 1.38807 3 1.25V1.25Z" fill="#556068" fill-opacity="0.7"/>
<path d="M4 2.25C4 2.11193 4.11193 2 4.25 2H5.75C5.88807 2 6 2.11193 6 2.25V2.25C6 2.38807 5.88807 2.5 5.75 2.5H4.25C4.11193 2.5 4 2.38807 4 2.25V2.25Z" fill="#556068" fill-opacity="0.7"/>
<path d="M1 4C1 3.72386 1.22386 3.5 1.5 3.5H3C3.27614 3.5 3.5 3.72386 3.5 4V4C3.5 4.27614 3.27614 4.5 3 4.5H1.5C1.22386 4.5 1 4.27614 1 4V4Z" fill="#556068" fill-opacity="0.7"/>
<path d="M3.34001 2.51499C3.29134 2.51499 3.24267 2.50799 3.19401 2.49399C3.14601 2.47999 3.10467 2.46166 3.07001 2.43899L3.10101 2.36699C3.13034 2.38566 3.16701 2.40166 3.21101 2.41499C3.25501 2.42766 3.29667 2.43399 3.33601 2.43399C3.39001 2.43399 3.43267 2.42432 3.46401 2.40499C3.49534 2.38566 3.51101 2.35866 3.51101 2.32399C3.51101 2.29932 3.50367 2.27966 3.48901 2.26499C3.47434 2.24966 3.45534 2.23799 3.43201 2.22999C3.40867 2.22132 3.37501 2.21132 3.33101 2.19999C3.27301 2.18399 3.22701 2.16766 3.19301 2.15099C3.15967 2.13366 3.13467 2.11266 3.11801 2.08799C3.10201 2.06332 3.09401 2.03199 3.09401 1.99399C3.09401 1.95399 3.10501 1.91932 3.12701 1.88999C3.14967 1.86066 3.18034 1.83832 3.21901 1.82299C3.25834 1.80766 3.30267 1.79999 3.35201 1.79999C3.42134 1.79999 3.49534 1.81499 3.57401 1.84499L3.54601 1.91999C3.47801 1.89466 3.41334 1.88199 3.35201 1.88199C3.29934 1.88199 3.25767 1.89232 3.22701 1.91299C3.19634 1.93299 3.18101 1.96032 3.18101 1.99499C3.18101 2.02032 3.18767 2.04066 3.20101 2.05599C3.21501 2.07066 3.23367 2.08232 3.25701 2.09099C3.28101 2.09966 3.31567 2.10966 3.36101 2.12099C3.44301 2.14166 3.50301 2.16666 3.54101 2.19599C3.57901 2.22466 3.59801 2.26499 3.59801 2.31699C3.59801 2.37899 3.57401 2.42766 3.52601 2.46299C3.47801 2.49766 3.41601 2.51499 3.34001 2.51499ZM3.31801 2.49999H3.38501V2.61299H3.31801V2.49999ZM3.31801 1.70099H3.38501V1.81499H3.31801V1.70099Z" fill="#556068"/>
<path d="M0 6.5C0 6.22386 0.223858 6 0.5 6H10.5C10.7761 6 11 6.22386 11 6.5V10.5C11 10.7761 10.7761 11 10.5 11H0.5C0.223858 11 0 10.7761 0 10.5V6.5Z" fill="#E5E5E5"/>
<path d="M7 7H10V10H7V7Z" fill="#556068"/>
<path d="M3 7.25C3 7.11193 3.11193 7 3.25 7H5.75C5.88807 7 6 7.11193 6 7.25V7.25C6 7.38807 5.88807 7.5 5.75 7.5H3.25C3.11193 7.5 3 7.38807 3 7.25V7.25Z" fill="#556068" fill-opacity="0.7"/>
<path d="M4 8.25C4 8.11193 4.11193 8 4.25 8H5.75C5.88807 8 6 8.11193 6 8.25V8.25C6 8.38807 5.88807 8.5 5.75 8.5H4.25C4.11193 8.5 4 8.38807 4 8.25V8.25Z" fill="#556068" fill-opacity="0.7"/>
<path d="M1 10C1 9.72386 1.22386 9.5 1.5 9.5H3C3.27614 9.5 3.5 9.72386 3.5 10V10C3.5 10.2761 3.27614 10.5 3 10.5H1.5C1.22386 10.5 1 10.2761 1 10V10Z" fill="#556068" fill-opacity="0.7"/>
<path d="M3.34001 8.51499C3.29134 8.51499 3.24267 8.50799 3.19401 8.49399C3.14601 8.47999 3.10467 8.46166 3.07001 8.43899L3.10101 8.36699C3.13034 8.38566 3.16701 8.40166 3.21101 8.41499C3.25501 8.42766 3.29667 8.43399 3.33601 8.43399C3.39001 8.43399 3.43267 8.42432 3.46401 8.40499C3.49534 8.38566 3.51101 8.35866 3.51101 8.32399C3.51101 8.29932 3.50367 8.27966 3.48901 8.26499C3.47434 8.24966 3.45534 8.23799 3.43201 8.22999C3.40867 8.22132 3.37501 8.21132 3.33101 8.19999C3.27301 8.18399 3.22701 8.16766 3.19301 8.15099C3.15967 8.13366 3.13467 8.11266 3.11801 8.08799C3.10201 8.06332 3.09401 8.03199 3.09401 7.99399C3.09401 7.95399 3.10501 7.91932 3.12701 7.88999C3.14967 7.86066 3.18034 7.83832 3.21901 7.82299C3.25834 7.80766 3.30267 7.79999 3.35201 7.79999C3.42134 7.79999 3.49534 7.81499 3.57401 7.84499L3.54601 7.91999C3.47801 7.89466 3.41334 7.88199 3.35201 7.88199C3.29934 7.88199 3.25767 7.89232 3.22701 7.91299C3.19634 7.93299 3.18101 7.96032 3.18101 7.99499C3.18101 8.02032 3.18767 8.04066 3.20101 8.05599C3.21501 8.07066 3.23367 8.08232 3.25701 8.09099C3.28101 8.09966 3.31567 8.10966 3.36101 8.12099C3.44301 8.14166 3.50301 8.16666 3.54101 8.19599C3.57901 8.22466 3.59801 8.26499 3.59801 8.31699C3.59801 8.37899 3.57401 8.42766 3.52601 8.46299C3.47801 8.49766 3.41601 8.51499 3.34001 8.51499ZM3.31801 8.49999H3.38501V8.61299H3.31801V8.49999ZM3.31801 7.70099H3.38501V7.81499H3.31801V7.70099Z" fill="#556068"/>
</svg>
