<svg width="20" height="12" viewBox="0 0 20 12" fill="none" xmlns="http://www.w3.org/2000/svg">
<path d="M0 2H6V8H0V2Z" fill="#556068"/>
<path d="M1 9.25C1 9.11193 1.11193 9 1.25 9H4.75C4.88807 9 5 9.11193 5 9.25V9.25C5 9.38807 4.88807 9.5 4.75 9.5H1.25C1.11193 9.5 1 9.38807 1 9.25V9.25Z" fill="#556068" fill-opacity="0.7"/>
<path d="M3 10.75C3 10.6119 3.11193 10.5 3.25 10.5H4.75C4.88807 10.5 5 10.6119 5 10.75V10.75C5 10.8881 4.88807 11 4.75 11H3.25C3.11193 11 3 10.8881 3 10.75V10.75Z" fill="#556068" fill-opacity="0.7"/>
<path d="M2.34001 11.015C2.29134 11.015 2.24267 11.008 2.19401 10.994C2.14601 10.98 2.10467 10.9617 2.07001 10.939L2.10101 10.867C2.13034 10.8857 2.16701 10.9017 2.21101 10.915C2.25501 10.9277 2.29667 10.934 2.33601 10.934C2.39001 10.934 2.43267 10.9243 2.46401 10.905C2.49534 10.8857 2.51101 10.8587 2.51101 10.824C2.51101 10.7993 2.50367 10.7797 2.48901 10.765C2.47434 10.7497 2.45534 10.738 2.43201 10.73C2.40867 10.7213 2.37501 10.7113 2.33101 10.7C2.27301 10.684 2.22701 10.6677 2.19301 10.651C2.15967 10.6337 2.13467 10.6127 2.11801 10.588C2.10201 10.5633 2.09401 10.532 2.09401 10.494C2.09401 10.454 2.10501 10.4193 2.12701 10.39C2.14967 10.3607 2.18034 10.3383 2.21901 10.323C2.25834 10.3077 2.30267 10.3 2.35201 10.3C2.42134 10.3 2.49534 10.315 2.57401 10.345L2.54601 10.42C2.47801 10.3947 2.41334 10.382 2.35201 10.382C2.29934 10.382 2.25767 10.3923 2.22701 10.413C2.19634 10.433 2.18101 10.4603 2.18101 10.495C2.18101 10.5203 2.18767 10.5407 2.20101 10.556C2.21501 10.5707 2.23367 10.5823 2.25701 10.591C2.28101 10.5997 2.31567 10.6097 2.36101 10.621C2.44301 10.6417 2.50301 10.6667 2.54101 10.696C2.57901 10.7247 2.59801 10.765 2.59801 10.817C2.59801 10.879 2.57401 10.9277 2.52601 10.963C2.47801 10.9977 2.41601 11.015 2.34001 11.015ZM2.31801 11H2.38501V11.113H2.31801V11ZM2.31801 10.201H2.38501V10.315H2.31801V10.201Z" fill="#556068"/>
<path d="M7 2H13V8H7V2Z" fill="#556068"/>
<path d="M8 9.25C8 9.11193 8.11193 9 8.25 9H11.75C11.8881 9 12 9.11193 12 9.25V9.25C12 9.38807 11.8881 9.5 11.75 9.5H8.25C8.11193 9.5 8 9.38807 8 9.25V9.25Z" fill="#556068" fill-opacity="0.7"/>
<path d="M10 10.75C10 10.6119 10.1119 10.5 10.25 10.5H11.75C11.8881 10.5 12 10.6119 12 10.75V10.75C12 10.8881 11.8881 11 11.75 11H10.25C10.1119 11 10 10.8881 10 10.75V10.75Z" fill="#556068" fill-opacity="0.7"/>
<path d="M9.34001 11.015C9.29134 11.015 9.24267 11.008 9.19401 10.994C9.14601 10.98 9.10467 10.9617 9.07001 10.939L9.10101 10.867C9.13034 10.8857 9.16701 10.9017 9.21101 10.915C9.25501 10.9277 9.29667 10.934 9.33601 10.934C9.39001 10.934 9.43267 10.9243 9.46401 10.905C9.49534 10.8857 9.51101 10.8587 9.51101 10.824C9.51101 10.7993 9.50367 10.7797 9.48901 10.765C9.47434 10.7497 9.45534 10.738 9.43201 10.73C9.40867 10.7213 9.37501 10.7113 9.33101 10.7C9.27301 10.684 9.22701 10.6677 9.19301 10.651C9.15967 10.6337 9.13467 10.6127 9.11801 10.588C9.10201 10.5633 9.09401 10.532 9.09401 10.494C9.09401 10.454 9.10501 10.4193 9.12701 10.39C9.14967 10.3607 9.18034 10.3383 9.21901 10.323C9.25834 10.3077 9.30267 10.3 9.35201 10.3C9.42134 10.3 9.49534 10.315 9.57401 10.345L9.54601 10.42C9.47801 10.3947 9.41334 10.382 9.35201 10.382C9.29934 10.382 9.25767 10.3923 9.22701 10.413C9.19634 10.433 9.18101 10.4603 9.18101 10.495C9.18101 10.5203 9.18767 10.5407 9.20101 10.556C9.21501 10.5707 9.23367 10.5823 9.25701 10.591C9.28101 10.5997 9.31567 10.6097 9.36101 10.621C9.44301 10.6417 9.50301 10.6667 9.54101 10.696C9.57901 10.7247 9.59801 10.765 9.59801 10.817C9.59801 10.879 9.57401 10.9277 9.52601 10.963C9.47801 10.9977 9.41601 11.015 9.34001 11.015ZM9.31801 11H9.38501V11.113H9.31801V11ZM9.31801 10.201H9.38501V10.315H9.31801V10.201Z" fill="#556068"/>
<path d="M14 2H20V8H14V2Z" fill="#556068"/>
<path d="M15 9.25C15 9.11193 15.1119 9 15.25 9H18.75C18.8881 9 19 9.11193 19 9.25V9.25C19 9.38807 18.8881 9.5 18.75 9.5H15.25C15.1119 9.5 15 9.38807 15 9.25V9.25Z" fill="#556068" fill-opacity="0.7"/>
<path d="M17 10.75C17 10.6119 17.1119 10.5 17.25 10.5H18.75C18.8881 10.5 19 10.6119 19 10.75V10.75C19 10.8881 18.8881 11 18.75 11H17.25C17.1119 11 17 10.8881 17 10.75V10.75Z" fill="#556068" fill-opacity="0.7"/>
<path d="M16.34 11.015C16.2913 11.015 16.2427 11.008 16.194 10.994C16.146 10.98 16.1047 10.9617 16.07 10.939L16.101 10.867C16.1303 10.8857 16.167 10.9017 16.211 10.915C16.255 10.9277 16.2967 10.934 16.336 10.934C16.39 10.934 16.4327 10.9243 16.464 10.905C16.4953 10.8857 16.511 10.8587 16.511 10.824C16.511 10.7993 16.5037 10.7797 16.489 10.765C16.4743 10.7497 16.4553 10.738 16.432 10.73C16.4087 10.7213 16.375 10.7113 16.331 10.7C16.273 10.684 16.227 10.6677 16.193 10.651C16.1597 10.6337 16.1347 10.6127 16.118 10.588C16.102 10.5633 16.094 10.532 16.094 10.494C16.094 10.454 16.105 10.4193 16.127 10.39C16.1497 10.3607 16.1803 10.3383 16.219 10.323C16.2583 10.3077 16.3027 10.3 16.352 10.3C16.4213 10.3 16.4953 10.315 16.574 10.345L16.546 10.42C16.478 10.3947 16.4133 10.382 16.352 10.382C16.2993 10.382 16.2577 10.3923 16.227 10.413C16.1963 10.433 16.181 10.4603 16.181 10.495C16.181 10.5203 16.1877 10.5407 16.201 10.556C16.215 10.5707 16.2337 10.5823 16.257 10.591C16.281 10.5997 16.3157 10.6097 16.361 10.621C16.443 10.6417 16.503 10.6667 16.541 10.696C16.579 10.7247 16.598 10.765 16.598 10.817C16.598 10.879 16.574 10.9277 16.526 10.963C16.478 10.9977 16.416 11.015 16.34 11.015ZM16.318 11H16.385V11.113H16.318V11ZM16.318 10.201H16.385V10.315H16.318V10.201Z" fill="#556068"/>
<path d="M0 0.25C0 0.111929 0.111929 0 0.25 0H6.75C6.88807 0 7 0.111929 7 0.25V0.25C7 0.388071 6.88807 0.5 6.75 0.5H0.25C0.111929 0.5 0 0.388071 0 0.25V0.25Z" fill="#E5E5E5"/>
<path d="M8.5 0.25C8.5 0.111929 8.61193 0 8.75 0H11.25C11.3881 0 11.5 0.111929 11.5 0.25V0.25C11.5 0.388071 11.3881 0.5 11.25 0.5H8.75C8.61193 0.5 8.5 0.388071 8.5 0.25V0.25Z" fill="#A2A2A2"/>
<path d="M13 0.25C13 0.111929 13.1119 0 13.25 0H19.75C19.8881 0 20 0.111929 20 0.25V0.25C20 0.388071 19.8881 0.5 19.75 0.5H13.25C13.1119 0.5 13 0.388071 13 0.25V0.25Z" fill="#E5E5E5"/>
</svg>
