<svg width="22" height="28" viewBox="0 0 22 28" fill="none" xmlns="http://www.w3.org/2000/svg">
<path d="M0 1C0 0.447715 0.447715 0 1 0H21C21.5523 0 22 0.447715 22 1V27C22 27.5523 21.5523 28 21 28H1C0.447716 28 0 27.5523 0 27V1Z" fill="#556068"/>
<path opacity="0.9" d="M6 10.5C6 10.2239 6.22386 10 6.5 10H15.5C15.7761 10 16 10.2239 16 10.5V10.5C16 10.7761 15.7761 11 15.5 11H6.5C6.22386 11 6 10.7761 6 10.5V10.5Z" fill="#E5E5E5"/>
<path opacity="0.8" d="M2 15C2 14.4477 2.44772 14 3 14H4C4.55228 14 5 14.4477 5 15V16C5 16.5523 4.55228 17 4 17H3C2.44772 17 2 16.5523 2 16V15Z" fill="#E5E5E5"/>
<path opacity="0.7" d="M2 18.75C2 18.6119 2.11193 18.5 2.25 18.5H4.75C4.88807 18.5 5 18.6119 5 18.75V18.75C5 18.8881 4.88807 19 4.75 19H2.25C2.11193 19 2 18.8881 2 18.75V18.75Z" fill="#E5E5E5"/>
<path opacity="0.7" d="M7 18.75C7 18.6119 7.11193 18.5 7.25 18.5H9.75C9.88807 18.5 10 18.6119 10 18.75V18.75C10 18.8881 9.88807 19 9.75 19H7.25C7.11193 19 7 18.8881 7 18.75V18.75Z" fill="#E5E5E5"/>
<path opacity="0.7" d="M12 18.75C12 18.6119 12.1119 18.5 12.25 18.5H14.75C14.8881 18.5 15 18.6119 15 18.75V18.75C15 18.8881 14.8881 19 14.75 19H12.25C12.1119 19 12 18.8881 12 18.75V18.75Z" fill="#E5E5E5"/>
<path opacity="0.7" d="M17 18.75C17 18.6119 17.1119 18.5 17.25 18.5H19.75C19.8881 18.5 20 18.6119 20 18.75V18.75C20 18.8881 19.8881 19 19.75 19H17.25C17.1119 19 17 18.8881 17 18.75V18.75Z" fill="#E5E5E5"/>
<path opacity="0.8" d="M7 15C7 14.4477 7.44772 14 8 14H9C9.55228 14 10 14.4477 10 15V16C10 16.5523 9.55228 17 9 17H8C7.44772 17 7 16.5523 7 16V15Z" fill="#E5E5E5"/>
<path opacity="0.8" d="M12 15C12 14.4477 12.4477 14 13 14H14C14.5523 14 15 14.4477 15 15V16C15 16.5523 14.5523 17 14 17H13C12.4477 17 12 16.5523 12 16V15Z" fill="#E5E5E5"/>
<path opacity="0.8" d="M17 15C17 14.4477 17.4477 14 18 14H19C19.5523 14 20 14.4477 20 15V16C20 16.5523 19.5523 17 19 17H18C17.4477 17 17 16.5523 17 16V15Z" fill="#E5E5E5"/>
</svg>
