<svg width="28" height="10" viewBox="0 0 28 10" fill="none" xmlns="http://www.w3.org/2000/svg">
<path d="M4 1C4 0.447716 4.44772 0 5 0H9C9.55228 0 10 0.447715 10 1V9C10 9.55228 9.55228 10 9 10H5C4.44772 10 4 9.55228 4 9V1Z" fill="#E5E5E5"/>
<path d="M4 1C4 0.447715 4.44772 0 5 0H9C9.55228 0 10 0.447715 10 1V4H4V1Z" fill="#556068"/>
<path d="M6 5.25C6 5.11193 6.11193 5 6.25 5H7.75C7.88807 5 8 5.11193 8 5.25V5.25C8 5.38807 7.88807 5.5 7.75 5.5H6.25C6.11193 5.5 6 5.38807 6 5.25V5.25Z" fill="#556068" fill-opacity="0.7"/>
<path d="M6 8.25C6 8.11193 6.11193 8 6.25 8H8.75C8.88807 8 9 8.11193 9 8.25V8.25C9 8.38807 8.88807 8.5 8.75 8.5H6.25C6.11193 8.5 6 8.38807 6 8.25V8.25Z" fill="#556068" fill-opacity="0.7"/>
<path d="M5.34001 8.515C5.29134 8.515 5.24267 8.508 5.19401 8.494C5.14601 8.48 5.10467 8.46167 5.07001 8.439L5.10101 8.367C5.13034 8.38567 5.16701 8.40167 5.21101 8.415C5.25501 8.42767 5.29667 8.434 5.33601 8.434C5.39001 8.434 5.43267 8.42434 5.46401 8.405C5.49534 8.38567 5.51101 8.35867 5.51101 8.324C5.51101 8.29934 5.50367 8.27967 5.48901 8.265C5.47434 8.24967 5.45534 8.238 5.43201 8.23C5.40867 8.22134 5.37501 8.21134 5.33101 8.2C5.27301 8.184 5.22701 8.16767 5.19301 8.151C5.15967 8.13367 5.13467 8.11267 5.11801 8.088C5.10201 8.06334 5.09401 8.032 5.09401 7.994C5.09401 7.954 5.10501 7.91934 5.12701 7.89C5.14967 7.86067 5.18034 7.83834 5.21901 7.823C5.25834 7.80767 5.30267 7.8 5.35201 7.8C5.42134 7.8 5.49534 7.815 5.57401 7.845L5.54601 7.92C5.47801 7.89467 5.41334 7.882 5.35201 7.882C5.29934 7.882 5.25767 7.89234 5.22701 7.913C5.19634 7.933 5.18101 7.96034 5.18101 7.995C5.18101 8.02034 5.18767 8.04067 5.20101 8.056C5.21501 8.07067 5.23367 8.08234 5.25701 8.091C5.28101 8.09967 5.31567 8.10967 5.36101 8.121C5.44301 8.14167 5.50301 8.16667 5.54101 8.196C5.57901 8.22467 5.59801 8.265 5.59801 8.317C5.59801 8.379 5.57401 8.42767 5.52601 8.463C5.47801 8.49767 5.41601 8.515 5.34001 8.515ZM5.31801 8.5H5.38501V8.613H5.31801V8.5ZM5.31801 7.701H5.38501V7.815H5.31801V7.701Z" fill="#556068"/>
<path d="M11 1C11 0.447716 11.4477 0 12 0H16C16.5523 0 17 0.447715 17 1V9C17 9.55228 16.5523 10 16 10H12C11.4477 10 11 9.55228 11 9V1Z" fill="#E5E5E5"/>
<path d="M11 1C11 0.447715 11.4477 0 12 0H16C16.5523 0 17 0.447715 17 1V4H11V1Z" fill="#556068"/>
<path d="M13 5.25C13 5.11193 13.1119 5 13.25 5H14.75C14.8881 5 15 5.11193 15 5.25V5.25C15 5.38807 14.8881 5.5 14.75 5.5H13.25C13.1119 5.5 13 5.38807 13 5.25V5.25Z" fill="#556068" fill-opacity="0.7"/>
<path d="M13 8.25C13 8.11193 13.1119 8 13.25 8H15.75C15.8881 8 16 8.11193 16 8.25V8.25C16 8.38807 15.8881 8.5 15.75 8.5H13.25C13.1119 8.5 13 8.38807 13 8.25V8.25Z" fill="#556068" fill-opacity="0.7"/>
<path d="M12.34 8.515C12.2913 8.515 12.2427 8.508 12.194 8.494C12.146 8.48 12.1047 8.46167 12.07 8.439L12.101 8.367C12.1303 8.38567 12.167 8.40167 12.211 8.415C12.255 8.42767 12.2967 8.434 12.336 8.434C12.39 8.434 12.4327 8.42434 12.464 8.405C12.4953 8.38567 12.511 8.35867 12.511 8.324C12.511 8.29934 12.5037 8.27967 12.489 8.265C12.4743 8.24967 12.4553 8.238 12.432 8.23C12.4087 8.22134 12.375 8.21134 12.331 8.2C12.273 8.184 12.227 8.16767 12.193 8.151C12.1597 8.13367 12.1347 8.11267 12.118 8.088C12.102 8.06334 12.094 8.032 12.094 7.994C12.094 7.954 12.105 7.91934 12.127 7.89C12.1497 7.86067 12.1803 7.83834 12.219 7.823C12.2583 7.80767 12.3027 7.8 12.352 7.8C12.4213 7.8 12.4953 7.815 12.574 7.845L12.546 7.92C12.478 7.89467 12.4133 7.882 12.352 7.882C12.2993 7.882 12.2577 7.89234 12.227 7.913C12.1963 7.933 12.181 7.96034 12.181 7.995C12.181 8.02034 12.1877 8.04067 12.201 8.056C12.215 8.07067 12.2337 8.08234 12.257 8.091C12.281 8.09967 12.3157 8.10967 12.361 8.121C12.443 8.14167 12.503 8.16667 12.541 8.196C12.579 8.22467 12.598 8.265 12.598 8.317C12.598 8.379 12.574 8.42767 12.526 8.463C12.478 8.49767 12.416 8.515 12.34 8.515ZM12.318 8.5H12.385V8.613H12.318V8.5ZM12.318 7.701H12.385V7.815H12.318V7.701Z" fill="#556068"/>
<path d="M18 1C18 0.447716 18.4477 0 19 0H23C23.5523 0 24 0.447715 24 1V9C24 9.55228 23.5523 10 23 10H19C18.4477 10 18 9.55228 18 9V1Z" fill="#E5E5E5"/>
<path d="M18 1C18 0.447715 18.4477 0 19 0H23C23.5523 0 24 0.447715 24 1V4H18V1Z" fill="#556068"/>
<path d="M20 5.25C20 5.11193 20.1119 5 20.25 5H21.75C21.8881 5 22 5.11193 22 5.25V5.25C22 5.38807 21.8881 5.5 21.75 5.5H20.25C20.1119 5.5 20 5.38807 20 5.25V5.25Z" fill="#556068" fill-opacity="0.7"/>
<path d="M20 8.25C20 8.11193 20.1119 8 20.25 8H22.75C22.8881 8 23 8.11193 23 8.25V8.25C23 8.38807 22.8881 8.5 22.75 8.5H20.25C20.1119 8.5 20 8.38807 20 8.25V8.25Z" fill="#556068" fill-opacity="0.7"/>
<path d="M19.34 8.515C19.2913 8.515 19.2427 8.508 19.194 8.494C19.146 8.48 19.1047 8.46167 19.07 8.439L19.101 8.367C19.1303 8.38567 19.167 8.40167 19.211 8.415C19.255 8.42767 19.2967 8.434 19.336 8.434C19.39 8.434 19.4327 8.42434 19.464 8.405C19.4953 8.38567 19.511 8.35867 19.511 8.324C19.511 8.29934 19.5037 8.27967 19.489 8.265C19.4743 8.24967 19.4553 8.238 19.432 8.23C19.4087 8.22134 19.375 8.21134 19.331 8.2C19.273 8.184 19.227 8.16767 19.193 8.151C19.1597 8.13367 19.1347 8.11267 19.118 8.088C19.102 8.06334 19.094 8.032 19.094 7.994C19.094 7.954 19.105 7.91934 19.127 7.89C19.1497 7.86067 19.1803 7.83834 19.219 7.823C19.2583 7.80767 19.3027 7.8 19.352 7.8C19.4213 7.8 19.4953 7.815 19.574 7.845L19.546 7.92C19.478 7.89467 19.4133 7.882 19.352 7.882C19.2993 7.882 19.2577 7.89234 19.227 7.913C19.1963 7.933 19.181 7.96034 19.181 7.995C19.181 8.02034 19.1877 8.04067 19.201 8.056C19.215 8.07067 19.2337 8.08234 19.257 8.091C19.281 8.09967 19.3157 8.10967 19.361 8.121C19.443 8.14167 19.503 8.16667 19.541 8.196C19.579 8.22467 19.598 8.265 19.598 8.317C19.598 8.379 19.574 8.42767 19.526 8.463C19.478 8.49767 19.416 8.515 19.34 8.515ZM19.318 8.5H19.385V8.613H19.318V8.5ZM19.318 7.701H19.385V7.815H19.318V7.701Z" fill="#556068"/>
<path opacity="0.6" fill-rule="evenodd" clip-rule="evenodd" d="M26.6465 6L25.8232 5.17678L26.1768 4.82323L27.1768 5.82323C27.2744 5.92086 27.2744 6.07915 27.1768 6.17678L26.1768 7.17678L25.8232 6.82323L26.6465 6Z" fill="#556068"/>
<path opacity="0.6" fill-rule="evenodd" clip-rule="evenodd" d="M1.35356 6L2.17679 6.82322L1.82323 7.17677L0.823235 6.17677C0.725604 6.07914 0.725604 5.92085 0.823235 5.82322L1.82323 4.82322L2.17679 5.17677L1.35356 6Z" fill="#556068"/>
</svg>
