<svg width="25" height="16" viewBox="0 0 25 16" fill="none" xmlns="http://www.w3.org/2000/svg">
<path d="M2.44797 0.763004H3.48297L1.12497 7H0.0899658L2.44797 0.763004ZM2.54697 0.763004H3.57297L5.93097 7H4.89597L2.54697 0.763004ZM1.62897 4.678H4.44597V5.587H1.62897V4.678Z" fill="#556068"/>
<path d="M9.86347 4.525C9.86347 4.207 9.75247 3.937 9.53047 3.715C9.30847 3.493 9.03847 3.382 8.72047 3.382C8.52247 3.382 8.33647 3.433 8.16247 3.535C7.98847 3.637 7.85047 3.778 7.74847 3.958C7.64647 4.132 7.59547 4.321 7.59547 4.525H7.07347C7.07347 4.165 7.14547 3.826 7.28947 3.508C7.43947 3.184 7.65247 2.923 7.92847 2.725C8.20447 2.527 8.52547 2.428 8.89147 2.428C9.25747 2.428 9.58747 2.521 9.88147 2.707C10.1815 2.893 10.4155 3.145 10.5835 3.463C10.7515 3.775 10.8355 4.12 10.8355 4.498V7H9.86347V4.525ZM6.61447 0.493004H7.59547V7H6.61447V0.493004Z" fill="#556068"/>
<path d="M13.4834 7.081C13.1174 7.081 12.7844 6.988 12.4844 6.802C12.1904 6.616 11.9564 6.364 11.7824 6.046C11.6144 5.728 11.5304 5.38 11.5304 5.002V2.491H12.5114V4.975C12.5114 5.293 12.6224 5.563 12.8444 5.785C13.0664 6.007 13.3364 6.118 13.6544 6.118C13.8524 6.118 14.0384 6.067 14.2124 5.965C14.3864 5.863 14.5244 5.725 14.6264 5.551C14.7284 5.371 14.7794 5.179 14.7794 4.975H15.3014C15.3014 5.335 15.2264 5.677 15.0764 6.001C14.9324 6.325 14.7224 6.586 14.4464 6.784C14.1704 6.982 13.8494 7.081 13.4834 7.081ZM14.9414 5.893L14.7794 5.83V2.491H15.7604V7H14.9414V5.893Z" fill="#556068"/>
<path d="M16.7725 2.491H17.5915V3.661H17.7535V7H16.7725V2.491ZM17.2315 4.849C17.2315 4.447 17.3125 4.066 17.4745 3.706C17.6425 3.34 17.8825 3.046 18.1945 2.824C18.5065 2.596 18.8665 2.482 19.2745 2.482H19.5085V3.382H19.0045C18.7825 3.382 18.5755 3.439 18.3835 3.553C18.1915 3.667 18.0385 3.823 17.9245 4.021C17.8105 4.213 17.7535 4.42 17.7535 4.642L17.2315 4.849Z" fill="#556068"/>
<path d="M22.2563 7.081C21.8303 7.081 21.4373 6.976 21.0773 6.766C20.7233 6.556 20.4413 6.271 20.2313 5.911C20.0213 5.551 19.9163 5.161 19.9163 4.741C19.9163 4.321 20.0213 3.934 20.2313 3.58C20.4413 3.226 20.7233 2.944 21.0773 2.734C21.4373 2.524 21.8303 2.419 22.2563 2.419C22.6643 2.419 23.0183 2.524 23.3183 2.734C23.6243 2.938 23.8553 3.217 24.0113 3.571C24.1673 3.919 24.2453 4.309 24.2453 4.741C24.2453 5.173 24.1673 5.569 24.0113 5.929C23.8553 6.283 23.6243 6.565 23.3183 6.775C23.0183 6.979 22.6643 7.081 22.2563 7.081ZM22.3103 6.163C22.5623 6.163 22.7963 6.1 23.0123 5.974C23.2283 5.848 23.3993 5.677 23.5253 5.461C23.6513 5.239 23.7143 4.999 23.7143 4.741C23.7143 4.483 23.6513 4.246 23.5253 4.03C23.3993 3.814 23.2283 3.643 23.0123 3.517C22.7963 3.391 22.5623 3.328 22.3103 3.328C22.0523 3.328 21.8153 3.391 21.5993 3.517C21.3833 3.643 21.2123 3.814 21.0863 4.03C20.9603 4.246 20.8973 4.483 20.8973 4.741C20.8973 4.999 20.9603 5.239 21.0863 5.461C21.2123 5.677 21.3833 5.848 21.5993 5.974C21.8153 6.1 22.0523 6.163 22.3103 6.163ZM23.8763 5.47H23.7143V4.165H24.6953V7H23.8763V5.47ZM23.7143 4.021H23.8763V2.491H24.6953V5.335H23.7143V4.021Z" fill="#556068"/>
<path fill-rule="evenodd" clip-rule="evenodd" d="M23.6289 10.1383C14.2022 7.68169 4.85631 10.544 1.37541 12.2768C1.25181 12.3384 1.10173 12.288 1.0402 12.1644C0.978669 12.0408 1.02899 11.8908 1.15259 11.8292C4.70509 10.0607 14.1772 7.15848 23.755 9.65447C23.8886 9.68929 23.9687 9.82583 23.9339 9.95944C23.899 10.093 23.7625 10.1731 23.6289 10.1383Z" fill="#556068"/>
</svg>
