<svg width="26" height="9" viewBox="0 0 26 9" fill="none" xmlns="http://www.w3.org/2000/svg">
<path d="M0 3.1377C0 2.58541 0.447715 2.1377 1 2.1377H7C7.55228 2.1377 8 2.58541 8 3.1377V7.1377C8 7.68998 7.55228 8.1377 7 8.1377H1C0.447715 8.1377 0 7.68998 0 7.1377V3.1377Z" fill="#D9D9D9"/>
<path d="M2 6.8877C2 6.74962 2.11193 6.6377 2.25 6.6377H5.75C5.88807 6.6377 6 6.74962 6 6.8877V6.8877C6 7.02577 5.88807 7.1377 5.75 7.1377H2.25C2.11193 7.1377 2 7.02577 2 6.8877V6.8877Z" fill="#A2A2A2"/>
<path d="M1.94463 1.89585C2.18276 1.1871 2.30182 0.832717 2.54291 0.619959C2.70085 0.48058 2.89269 0.385229 3.09916 0.343491C3.41432 0.27978 3.7687 0.398846 4.47746 0.636978V0.636978C5.18621 0.87511 5.54059 0.994176 5.75335 1.23526C5.89273 1.3932 5.98808 1.58504 6.02982 1.79151C6.09353 2.10667 5.97446 2.46105 5.73633 3.16981V3.16981C5.4982 3.87857 5.37913 4.23295 5.13805 4.4457C4.98011 4.58508 4.78827 4.68043 4.5818 4.72217C4.26664 4.78588 3.91226 4.66682 3.2035 4.42868V4.42868C2.49474 4.19055 2.14036 4.07149 1.92761 3.8304C1.78823 3.67246 1.69288 3.48062 1.65114 3.27415C1.58743 2.95899 1.70649 2.60461 1.94463 1.89585V1.89585Z" fill="#556068"/>
<path d="M9 3.1377C9 2.58541 9.44772 2.1377 10 2.1377H16C16.5523 2.1377 17 2.58541 17 3.1377V7.1377C17 7.68998 16.5523 8.1377 16 8.1377H10C9.44772 8.1377 9 7.68998 9 7.1377V3.1377Z" fill="#D9D9D9"/>
<path d="M11 6.8877C11 6.74962 11.1119 6.6377 11.25 6.6377H14.75C14.8881 6.6377 15 6.74962 15 6.8877V6.8877C15 7.02577 14.8881 7.1377 14.75 7.1377H11.25C11.1119 7.1377 11 7.02577 11 6.8877V6.8877Z" fill="#A2A2A2"/>
<path d="M10.9446 1.89585C11.1828 1.1871 11.3018 0.832717 11.5429 0.619959C11.7008 0.48058 11.8927 0.385229 12.0992 0.343491C12.4143 0.27978 12.7687 0.398846 13.4775 0.636978V0.636978C14.1862 0.87511 14.5406 0.994176 14.7534 1.23526C14.8927 1.3932 14.9881 1.58504 15.0298 1.79151C15.0935 2.10667 14.9745 2.46105 14.7363 3.16981V3.16981C14.4982 3.87857 14.3791 4.23295 14.1381 4.4457C13.9801 4.58508 13.7883 4.68043 13.5818 4.72217C13.2666 4.78588 12.9123 4.66682 12.2035 4.42868V4.42868C11.4947 4.19055 11.1404 4.07149 10.9276 3.8304C10.7882 3.67246 10.6929 3.48062 10.6511 3.27415C10.5874 2.95899 10.7065 2.60461 10.9446 1.89585V1.89585Z" fill="#556068"/>
<path d="M18 3.1377C18 2.58541 18.4477 2.1377 19 2.1377H25C25.5523 2.1377 26 2.58541 26 3.1377V7.1377C26 7.68998 25.5523 8.1377 25 8.1377H19C18.4477 8.1377 18 7.68998 18 7.1377V3.1377Z" fill="#D9D9D9"/>
<path d="M20 6.8877C20 6.74962 20.1119 6.6377 20.25 6.6377H23.75C23.8881 6.6377 24 6.74962 24 6.8877V6.8877C24 7.02577 23.8881 7.1377 23.75 7.1377H20.25C20.1119 7.1377 20 7.02577 20 6.8877V6.8877Z" fill="#A2A2A2"/>
<path d="M19.9446 1.89585C20.1828 1.1871 20.3018 0.832717 20.5429 0.619959C20.7008 0.48058 20.8927 0.385229 21.0992 0.343491C21.4143 0.27978 21.7687 0.398846 22.4775 0.636978V0.636978C23.1862 0.87511 23.5406 0.994176 23.7534 1.23526C23.8927 1.3932 23.9881 1.58504 24.0298 1.79151C24.0935 2.10667 23.9745 2.46105 23.7363 3.16981V3.16981C23.4982 3.87857 23.3791 4.23295 23.1381 4.4457C22.9801 4.58508 22.7883 4.68043 22.5818 4.72217C22.2666 4.78588 21.9123 4.66682 21.2035 4.42868V4.42868C20.4947 4.19055 20.1404 4.07149 19.9276 3.8304C19.7882 3.67246 19.6929 3.48062 19.6511 3.27415C19.5874 2.95899 19.7065 2.60461 19.9446 1.89585V1.89585Z" fill="#556068"/>
</svg>
