<svg width="22" height="16" viewBox="0 0 22 16" fill="none" xmlns="http://www.w3.org/2000/svg">
<path d="M0 1C0 0.447715 0.447715 0 1 0H21C21.5523 0 22 0.447715 22 1V15C22 15.5523 21.5523 16 21 16H1C0.447716 16 0 15.5523 0 15V1Z" fill="#556068"/>
<path d="M7 2.75C7 2.61193 7.11193 2.5 7.25 2.5H12.75C12.8881 2.5 13 2.61193 13 2.75V2.75C13 2.88807 12.8881 3 12.75 3H7.25C7.11193 3 7 2.88807 7 2.75V2.75Z" fill="#E5E5E5"/>
<path d="M2.32298 1.589C2.12232 1.88767 1.98465 2.12334 1.90998 2.296C1.83532 2.464 1.79565 2.555 1.79098 2.569C1.87965 2.55967 1.96598 2.59467 2.04998 2.674C2.13398 2.74867 2.17598 2.83967 2.17598 2.947C2.17598 3.06834 2.13165 3.17334 2.04298 3.262C1.95898 3.346 1.85632 3.388 1.73498 3.388C1.60898 3.388 1.50632 3.346 1.42698 3.262C1.34765 3.17334 1.30798 3.06367 1.30798 2.933C1.30798 2.513 1.53198 1.988 1.97998 1.358L2.32298 1.589ZM3.35898 1.589C3.17232 1.85967 3.03698 2.086 2.95298 2.268C2.87365 2.45 2.82932 2.55034 2.81998 2.569C2.91332 2.55967 2.99965 2.59467 3.07898 2.674C3.16298 2.74867 3.20498 2.83967 3.20498 2.947C3.20498 3.06834 3.16298 3.17334 3.07898 3.262C2.99498 3.346 2.89232 3.388 2.77098 3.388C2.64498 3.388 2.54232 3.346 2.46298 3.262C2.38365 3.17334 2.34398 3.06367 2.34398 2.933C2.34398 2.513 2.56798 1.988 3.01598 1.358L3.35898 1.589Z" fill="#E5E5E5"/>
<path d="M5 8.5C5 8.22386 5.22386 8 5.5 8H18.5C18.7761 8 19 8.22386 19 8.5V8.5C19 8.77614 18.7761 9 18.5 9H5.5C5.22386 9 5 8.77614 5 8.5V8.5Z" fill="#E5E5E5"/>
<path d="M5 10.5C5 10.2239 5.22386 10 5.5 10H18.5C18.7761 10 19 10.2239 19 10.5V10.5C19 10.7761 18.7761 11 18.5 11H5.5C5.22386 11 5 10.7761 5 10.5V10.5Z" fill="#E5E5E5"/>
<path d="M5 12.5C5 12.2239 5.22386 12 5.5 12H18.5C18.7761 12 19 12.2239 19 12.5V12.5C19 12.7761 18.7761 13 18.5 13H5.5C5.22386 13 5 12.7761 5 12.5V12.5Z" fill="#E5E5E5"/>
<path d="M14 2C14 1.44772 14.4477 1 15 1H18C18.5523 1 19 1.44772 19 2V5C19 5.55228 18.5523 6 18 6H15C14.4477 6 14 5.55228 14 5V2Z" fill="#E5E5E5"/>
</svg>
