<svg width="24" height="18" viewBox="0 0 24 18" fill="none" xmlns="http://www.w3.org/2000/svg">
<path d="M2 3C2 2.44772 2.44772 2 3 2H23C23.5523 2 24 2.44772 24 3V17C24 17.5523 23.5523 18 23 18H3C2.44772 18 2 17.5523 2 17V3Z" fill="#556068"/>
<path d="M15 4C15 3.44772 15.4477 3 16 3H20C20.5523 3 21 3.44772 21 4V5C21 5.55228 20.5523 6 20 6H16C15.4477 6 15 5.55228 15 5V4Z" fill="#E5E5E5"/>
<path d="M7 10.5C7 10.2239 7.22386 10 7.5 10H20.5C20.7761 10 21 10.2239 21 10.5V10.5C21 10.7761 20.7761 11 20.5 11H7.5C7.22386 11 7 10.7761 7 10.5V10.5Z" fill="#E5E5E5"/>
<path d="M7 12.5C7 12.2239 7.22386 12 7.5 12H20.5C20.7761 12 21 12.2239 21 12.5V12.5C21 12.7761 20.7761 13 20.5 13H7.5C7.22386 13 7 12.7761 7 12.5V12.5Z" fill="#E5E5E5"/>
<path d="M7 14.5C7 14.2239 7.22386 14 7.5 14H20.5C20.7761 14 21 14.2239 21 14.5V14.5C21 14.7761 20.7761 15 20.5 15H7.5C7.22386 15 7 14.7761 7 14.5V14.5Z" fill="#E5E5E5"/>
<path d="M0 3C0 1.34315 1.34315 0 3 0V0C4.65685 0 6 1.34315 6 3V3C6 4.65685 4.65685 6 3 6V6C1.34315 6 0 4.65685 0 3V3Z" fill="#E5E5E5"/>
<path fill-rule="evenodd" clip-rule="evenodd" d="M0.3 3C0.3 4.49117 1.50883 5.7 3 5.7C4.49117 5.7 5.7 4.49117 5.7 3C5.7 1.50883 4.49117 0.3 3 0.3C1.50883 0.3 0.3 1.50883 0.3 3ZM3 0C1.34315 0 0 1.34315 0 3C0 4.65685 1.34315 6 3 6C4.65685 6 6 4.65685 6 3C6 1.34315 4.65685 0 3 0Z" fill="#556068"/>
</svg>
