<svg width="22" height="28" viewBox="0 0 22 28" fill="none" xmlns="http://www.w3.org/2000/svg">
<path d="M0 1C0 0.447715 0.447715 0 1 0H21C21.5523 0 22 0.447715 22 1V27C22 27.5523 21.5523 28 21 28H1C0.447716 28 0 27.5523 0 27V1Z" fill="#556068"/>
<path d="M0 1C0 0.447715 0.447715 0 1 0H21C21.5523 0 22 0.447715 22 1V7H0V1Z" fill="#3D454A"/>
<path d="M6 12.5C6 12.2239 6.22386 12 6.5 12H15.5C15.7761 12 16 12.2239 16 12.5V12.5C16 12.7761 15.7761 13 15.5 13H6.5C6.22386 13 6 12.7761 6 12.5V12.5Z" fill="#E5E5E5"/>
<path d="M3 14.5C3 14.2239 3.22386 14 3.5 14H18.5C18.7761 14 19 14.2239 19 14.5V14.5C19 14.7761 18.7761 15 18.5 15H3.5C3.22386 15 3 14.7761 3 14.5V14.5Z" fill="#E5E5E5"/>
<path d="M3 16.5C3 16.2239 3.22386 16 3.5 16H18.5C18.7761 16 19 16.2239 19 16.5V16.5C19 16.7761 18.7761 17 18.5 17H3.5C3.22386 17 3 16.7761 3 16.5V16.5Z" fill="#E5E5E5"/>
<path d="M3 18.5C3 18.2239 3.22386 18 3.5 18H18.5C18.7761 18 19 18.2239 19 18.5V18.5C19 18.7761 18.7761 19 18.5 19H3.5C3.22386 19 3 18.7761 3 18.5V18.5Z" fill="#E5E5E5"/>
<path d="M3 20.5C3 20.2239 3.22386 20 3.5 20H18.5C18.7761 20 19 20.2239 19 20.5V20.5C19 20.7761 18.7761 21 18.5 21H3.5C3.22386 21 3 20.7761 3 20.5V20.5Z" fill="#E5E5E5"/>
<path d="M8 24.75C8 24.6119 8.11193 24.5 8.25 24.5H13.75C13.8881 24.5 14 24.6119 14 24.75V24.75C14 24.8881 13.8881 25 13.75 25H8.25C8.11193 25 8 24.8881 8 24.75V24.75Z" fill="#E5E5E5"/>
<path d="M8 25.75C8 25.6119 8.11193 25.5 8.25 25.5H13.75C13.8881 25.5 14 25.6119 14 25.75V25.75C14 25.8881 13.8881 26 13.75 26H8.25C8.11193 26 8 25.8881 8 25.75V25.75Z" fill="#E5E5E5"/>
<path d="M8 7C8 5.34315 9.34315 4 11 4V4C12.6569 4 14 5.34315 14 7V7C14 8.65685 12.6569 10 11 10V10C9.34315 10 8 8.65685 8 7V7Z" fill="#E5E5E5"/>
<path fill-rule="evenodd" clip-rule="evenodd" d="M8.3 7C8.3 8.49117 9.50883 9.7 11 9.7C12.4912 9.7 13.7 8.49117 13.7 7C13.7 5.50883 12.4912 4.3 11 4.3C9.50883 4.3 8.3 5.50883 8.3 7ZM11 4C9.34315 4 8 5.34315 8 7C8 8.65685 9.34315 10 11 10C12.6569 10 14 8.65685 14 7C14 5.34315 12.6569 4 11 4Z" fill="#556068"/>
</svg>
