<svg width="28" height="10" viewBox="0 0 28 10" fill="none" xmlns="http://www.w3.org/2000/svg">
<path d="M0 0H18V10H0V0Z" fill="#D9D9D9"/>
<path d="M18 0H28V10H18V0Z" fill="#556068"/>
<path d="M11 2.25C11 2.11193 11.1119 2 11.25 2H16.75C16.8881 2 17 2.11193 17 2.25V2.25C17 2.38807 16.8881 2.5 16.75 2.5H11.25C11.1119 2.5 11 2.38807 11 2.25V2.25Z" fill="#A2A2A2"/>
<path d="M8 3.25C8 3.11193 8.11193 3 8.25 3H16.75C16.8881 3 17 3.11193 17 3.25V3.25C17 3.38807 16.8881 3.5 16.75 3.5H8.25C8.11193 3.5 8 3.38807 8 3.25V3.25Z" fill="#A2A2A2"/>
<path d="M8 4.25C8 4.11193 8.11193 4 8.25 4H16.75C16.8881 4 17 4.11193 17 4.25V4.25C17 4.38807 16.8881 4.5 16.75 4.5H8.25C8.11193 4.5 8 4.38807 8 4.25V4.25Z" fill="#A2A2A2"/>
<path d="M8 5.25C8 5.11193 8.11193 5 8.25 5H16.75C16.8881 5 17 5.11193 17 5.25V5.25C17 5.38807 16.8881 5.5 16.75 5.5H8.25C8.11193 5.5 8 5.38807 8 5.25V5.25Z" fill="#A2A2A2"/>
<path d="M1 7.25C1 7.11193 1.11193 7 1.25 7H4.75C4.88807 7 5 7.11193 5 7.25V7.25C5 7.38807 4.88807 7.5 4.75 7.5H1.25C1.11193 7.5 1 7.38807 1 7.25V7.25Z" fill="#A2A2A2"/>
<path d="M1 8.25C1 8.11193 1.11193 8 1.25 8H4.75C4.88807 8 5 8.11193 5 8.25V8.25C5 8.38807 4.88807 8.5 4.75 8.5H1.25C1.11193 8.5 1 8.38807 1 8.25V8.25Z" fill="#A2A2A2"/>
</svg>
