<svg width="22" height="16" viewBox="0 0 22 16" fill="none" xmlns="http://www.w3.org/2000/svg">
<path d="M0 1C0 0.447715 0.447715 0 1 0H21C21.5523 0 22 0.447715 22 1V15C22 15.5523 21.5523 16 21 16H1C0.447716 16 0 15.5523 0 15V1Z" fill="#556068"/>
<path d="M8 11.75C8 11.6119 8.11193 11.5 8.25 11.5H13.75C13.8881 11.5 14 11.6119 14 11.75V11.75C14 11.8881 13.8881 12 13.75 12H8.25C8.11193 12 8 11.8881 8 11.75V11.75Z" fill="#E5E5E5"/>
<path d="M10 12.75C10 12.6119 10.1119 12.5 10.25 12.5H13.75C13.8881 12.5 14 12.6119 14 12.75V12.75C14 12.8881 13.8881 13 13.75 13H10.25C10.1119 13 10 12.8881 10 12.75V12.75Z" fill="#E5E5E5"/>
<path d="M5 3.5C5 3.22386 5.22386 3 5.5 3H18.5C18.7761 3 19 3.22386 19 3.5V3.5C19 3.77614 18.7761 4 18.5 4H5.5C5.22386 4 5 3.77614 5 3.5V3.5Z" fill="#E5E5E5"/>
<path d="M5 5.5C5 5.22386 5.22386 5 5.5 5H18.5C18.7761 5 19 5.22386 19 5.5V5.5C19 5.77614 18.7761 6 18.5 6H5.5C5.22386 6 5 5.77614 5 5.5V5.5Z" fill="#E5E5E5"/>
<path d="M5 7.5C5 7.22386 5.22386 7 5.5 7H18.5C18.7761 7 19 7.22386 19 7.5V7.5C19 7.77614 18.7761 8 18.5 8H5.5C5.22386 8 5 7.77614 5 7.5V7.5Z" fill="#E5E5E5"/>
<path d="M15 12.5C15 11.1193 16.1193 10 17.5 10V10C18.8807 10 20 11.1193 20 12.5V12.5C20 13.8807 18.8807 15 17.5 15V15C16.1193 15 15 13.8807 15 12.5V12.5Z" fill="#E5E5E5"/>
<path d="M1.90484 13.2927C1.93478 13.2006 2.06512 13.2006 2.09506 13.2927L2.20201 13.6219C2.2154 13.6631 2.2538 13.691 2.29712 13.691H2.64324C2.74011 13.691 2.78039 13.8149 2.70202 13.8719L2.422 14.0753C2.38695 14.1008 2.37228 14.1459 2.38567 14.1871L2.49263 14.5163C2.52256 14.6084 2.41712 14.6851 2.33875 14.6281L2.05873 14.4247C2.02368 14.3992 1.97622 14.3992 1.94117 14.4247L1.66115 14.6281C1.58278 14.6851 1.47733 14.6084 1.50727 14.5163L1.61423 14.1871C1.62761 14.1459 1.61295 14.1008 1.5779 14.0753L1.29788 13.8719C1.21951 13.8149 1.25979 13.691 1.35666 13.691H1.70278C1.7461 13.691 1.7845 13.6631 1.79789 13.6219L1.90484 13.2927Z" fill="#D9D9D9"/>
<path d="M3.90484 13.2927C3.93478 13.2006 4.06512 13.2006 4.09506 13.2927L4.20201 13.6219C4.2154 13.6631 4.2538 13.691 4.29712 13.691H4.64324C4.74011 13.691 4.78039 13.8149 4.70202 13.8719L4.422 14.0753C4.38695 14.1008 4.37228 14.1459 4.38567 14.1871L4.49263 14.5163C4.52256 14.6084 4.41712 14.6851 4.33875 14.6281L4.05873 14.4247C4.02368 14.3992 3.97622 14.3992 3.94117 14.4247L3.66115 14.6281C3.58278 14.6851 3.47733 14.6084 3.50727 14.5163L3.61423 14.1871C3.62761 14.1459 3.61295 14.1008 3.5779 14.0753L3.29788 13.8719C3.21951 13.8149 3.25979 13.691 3.35666 13.691H3.70278C3.7461 13.691 3.7845 13.6631 3.79789 13.6219L3.90484 13.2927Z" fill="#D9D9D9"/>
<path d="M5.90484 13.2927C5.93478 13.2006 6.06512 13.2006 6.09506 13.2927L6.20201 13.6219C6.2154 13.6631 6.2538 13.691 6.29712 13.691H6.64324C6.74011 13.691 6.78039 13.8149 6.70202 13.8719L6.422 14.0753C6.38695 14.1008 6.37228 14.1459 6.38567 14.1871L6.49263 14.5163C6.52256 14.6084 6.41712 14.6851 6.33875 14.6281L6.05873 14.4247C6.02368 14.3992 5.97622 14.3992 5.94117 14.4247L5.66115 14.6281C5.58278 14.6851 5.47733 14.6084 5.50727 14.5163L5.61423 14.1871C5.62761 14.1459 5.61295 14.1008 5.5779 14.0753L5.29788 13.8719C5.21951 13.8149 5.25979 13.691 5.35666 13.691H5.70278C5.7461 13.691 5.7845 13.6631 5.79789 13.6219L5.90484 13.2927Z" fill="#D9D9D9"/>
</svg>
