<svg width="22" height="16" viewBox="0 0 22 16" fill="none" xmlns="http://www.w3.org/2000/svg">
<path d="M0 1C0 0.447715 0.447715 0 1 0H21C21.5523 0 22 0.447715 22 1V15C22 15.5523 21.5523 16 21 16H1C0.447716 16 0 15.5523 0 15V1Z" fill="#556068"/>
<path d="M7 2.75C7 2.61193 7.11193 2.5 7.25 2.5H12.75C12.8881 2.5 13 2.61193 13 2.75V2.75C13 2.88807 12.8881 3 12.75 3H7.25C7.11193 3 7 2.88807 7 2.75V2.75Z" fill="#E5E5E5"/>
<path d="M2.32298 1.589C2.12232 1.88767 1.98465 2.12334 1.90998 2.296C1.83532 2.464 1.79565 2.555 1.79098 2.569C1.87965 2.55967 1.96598 2.59467 2.04998 2.674C2.13398 2.74867 2.17598 2.83967 2.17598 2.947C2.17598 3.06834 2.13165 3.17334 2.04298 3.262C1.95898 3.346 1.85632 3.388 1.73498 3.388C1.60898 3.388 1.50632 3.346 1.42698 3.262C1.34765 3.17334 1.30798 3.06367 1.30798 2.933C1.30798 2.513 1.53198 1.988 1.97998 1.358L2.32298 1.589ZM3.35898 1.589C3.17232 1.85967 3.03698 2.086 2.95298 2.268C2.87365 2.45 2.82932 2.55034 2.81998 2.569C2.91332 2.55967 2.99965 2.59467 3.07898 2.674C3.16298 2.74867 3.20498 2.83967 3.20498 2.947C3.20498 3.06834 3.16298 3.17334 3.07898 3.262C2.99498 3.346 2.89232 3.388 2.77098 3.388C2.64498 3.388 2.54232 3.346 2.46298 3.262C2.38365 3.17334 2.34398 3.06367 2.34398 2.933C2.34398 2.513 2.56798 1.988 3.01598 1.358L3.35898 1.589Z" fill="#E5E5E5"/>
<path d="M5 8.5C5 8.22386 5.22386 8 5.5 8H18.5C18.7761 8 19 8.22386 19 8.5V8.5C19 8.77614 18.7761 9 18.5 9H5.5C5.22386 9 5 8.77614 5 8.5V8.5Z" fill="#E5E5E5"/>
<path d="M5 10.5C5 10.2239 5.22386 10 5.5 10H18.5C18.7761 10 19 10.2239 19 10.5V10.5C19 10.7761 18.7761 11 18.5 11H5.5C5.22386 11 5 10.7761 5 10.5V10.5Z" fill="#E5E5E5"/>
<path d="M5 12.5C5 12.2239 5.22386 12 5.5 12H18.5C18.7761 12 19 12.2239 19 12.5V12.5C19 12.7761 18.7761 13 18.5 13H5.5C5.22386 13 5 12.7761 5 12.5V12.5Z" fill="#E5E5E5"/>
<path d="M14 2C14 1.44772 14.4477 1 15 1H18C18.5523 1 19 1.44772 19 2V5C19 5.55228 18.5523 6 18 6H15C14.4477 6 14 5.55228 14 5V2Z" fill="#E5E5E5"/>
<path d="M7.90484 4.29271C7.93478 4.20058 8.06512 4.20058 8.09506 4.29271L8.20201 4.62189C8.2154 4.66309 8.2538 4.69099 8.29712 4.69099H8.64324C8.74011 4.69099 8.78039 4.81495 8.70202 4.87189L8.422 5.07533C8.38695 5.1008 8.37228 5.14593 8.38567 5.18714L8.49263 5.51631C8.52256 5.60845 8.41712 5.68506 8.33875 5.62812L8.05873 5.42467C8.02368 5.39921 7.97622 5.39921 7.94117 5.42467L7.66115 5.62812C7.58278 5.68506 7.47733 5.60845 7.50727 5.51632L7.61423 5.18714C7.62761 5.14593 7.61295 5.1008 7.5779 5.07533L7.29788 4.87189C7.21951 4.81495 7.25979 4.69099 7.35666 4.69099H7.70278C7.7461 4.69099 7.7845 4.66309 7.79789 4.62189L7.90484 4.29271Z" fill="#D9D9D9"/>
<path d="M9.90484 4.29271C9.93478 4.20058 10.0651 4.20058 10.0951 4.29271L10.202 4.62189C10.2154 4.66309 10.2538 4.69099 10.2971 4.69099H10.6432C10.7401 4.69099 10.7804 4.81495 10.702 4.87189L10.422 5.07533C10.387 5.1008 10.3723 5.14593 10.3857 5.18714L10.4926 5.51631C10.5226 5.60845 10.4171 5.68506 10.3387 5.62812L10.0587 5.42467C10.0237 5.39921 9.97622 5.39921 9.94117 5.42467L9.66115 5.62812C9.58278 5.68506 9.47733 5.60845 9.50727 5.51632L9.61423 5.18714C9.62761 5.14593 9.61295 5.1008 9.5779 5.07533L9.29788 4.87189C9.21951 4.81495 9.25979 4.69099 9.35666 4.69099H9.70278C9.7461 4.69099 9.7845 4.66309 9.79789 4.62189L9.90484 4.29271Z" fill="#D9D9D9"/>
<path d="M11.9048 4.29271C11.9348 4.20058 12.0651 4.20058 12.0951 4.29271L12.202 4.62189C12.2154 4.66309 12.2538 4.69099 12.2971 4.69099H12.6432C12.7401 4.69099 12.7804 4.81495 12.702 4.87189L12.422 5.07533C12.387 5.1008 12.3723 5.14593 12.3857 5.18714L12.4926 5.51631C12.5226 5.60845 12.4171 5.68506 12.3387 5.62812L12.0587 5.42467C12.0237 5.39921 11.9762 5.39921 11.9412 5.42467L11.6612 5.62812C11.5828 5.68506 11.4773 5.60845 11.5073 5.51632L11.6142 5.18714C11.6276 5.14593 11.6129 5.1008 11.5779 5.07533L11.2979 4.87189C11.2195 4.81495 11.2598 4.69099 11.3567 4.69099H11.7028C11.7461 4.69099 11.7845 4.66309 11.7979 4.62189L11.9048 4.29271Z" fill="#D9D9D9"/>
</svg>
