<svg width="26" height="21" viewBox="0 0 26 21" fill="none" xmlns="http://www.w3.org/2000/svg">
<path d="M12.5 6.5C12.5 6.22386 12.7239 6 13 6V6C13.2761 6 13.5 6.22386 13.5 6.5V15.5C13.5 15.7761 13.2761 16 13 16V16C12.7239 16 12.5 15.7761 12.5 15.5V6.5Z" fill="#E5E5E5"/>
<path d="M12 4C12 3.44772 12.4477 3 13 3V3C13.5523 3 14 3.44772 14 4V4C14 4.55228 13.5523 5 13 5V5C12.4477 5 12 4.55228 12 4V4Z" fill="#556068"/>
<path d="M12 18C12 17.4477 12.4477 17 13 17V17C13.5523 17 14 17.4477 14 18V18C14 18.5523 13.5523 19 13 19V19C12.4477 19 12 18.5523 12 18V18Z" fill="#556068"/>
<path d="M16 0.5C16 0.223858 16.2239 0 16.5 0H25.5C25.7761 0 26 0.223858 26 0.5V6.5C26 6.77614 25.7761 7 25.5 7H16.5C16.2239 7 16 6.77614 16 6.5V0.5Z" fill="#556068"/>
<path d="M19 2.25C19 2.11193 19.1119 2 19.25 2H24.75C24.8881 2 25 2.11193 25 2.25V2.25C25 2.38807 24.8881 2.5 24.75 2.5H19.25C19.1119 2.5 19 2.38807 19 2.25V2.25Z" fill="#D5DDE2"/>
<path d="M17 3.25C17 3.11193 17.1119 3 17.25 3H24.75C24.8881 3 25 3.11193 25 3.25V3.25C25 3.38807 24.8881 3.5 24.75 3.5H17.25C17.1119 3.5 17 3.38807 17 3.25V3.25Z" fill="#D5DDE2"/>
<path d="M17 4.25C17 4.11193 17.1119 4 17.25 4H24.75C24.8881 4 25 4.11193 25 4.25V4.25C25 4.38807 24.8881 4.5 24.75 4.5H17.25C17.1119 4.5 17 4.38807 17 4.25V4.25Z" fill="#D5DDE2"/>
<path d="M0 14.5C0 14.2239 0.223858 14 0.5 14H9.5C9.77614 14 10 14.2239 10 14.5V20.5C10 20.7761 9.77614 21 9.5 21H0.5C0.223858 21 0 20.7761 0 20.5V14.5Z" fill="#556068"/>
<path d="M3 16.25C3 16.1119 3.11193 16 3.25 16H8.75C8.88807 16 9 16.1119 9 16.25V16.25C9 16.3881 8.88807 16.5 8.75 16.5H3.25C3.11193 16.5 3 16.3881 3 16.25V16.25Z" fill="#D5DDE2"/>
<path d="M1 17.25C1 17.1119 1.11193 17 1.25 17H8.75C8.88807 17 9 17.1119 9 17.25V17.25C9 17.3881 8.88807 17.5 8.75 17.5H1.25C1.11193 17.5 1 17.3881 1 17.25V17.25Z" fill="#D5DDE2"/>
<path d="M1 18.25C1 18.1119 1.11193 18 1.25 18H8.75C8.88807 18 9 18.1119 9 18.25V18.25C9 18.3881 8.88807 18.5 8.75 18.5H1.25C1.11193 18.5 1 18.3881 1 18.25V18.25Z" fill="#D5DDE2"/>
</svg>
