<svg width="26" height="13" viewBox="0 0 26 13" fill="none" xmlns="http://www.w3.org/2000/svg">
<path d="M10 0.5C10 0.223858 10.2239 0 10.5 0H25.5C25.7761 0 26 0.223858 26 0.5V12.5C26 12.7761 25.7761 13 25.5 13H10.5C10.2239 13 10 12.7761 10 12.5V0.5Z" fill="#556068"/>
<path d="M10 10.5H26V12.5C26 12.7761 25.7761 13 25.5 13H10.5C10.2239 13 10 12.7761 10 12.5V10.5Z" fill="#E5E5E5"/>
<path d="M20 6C20 7.10457 19.1046 8 18 8C16.8954 8 16 7.10457 16 6C16 4.89543 16.8954 4 18 4C19.1046 4 20 4.89543 20 6Z" fill="white"/>
<path d="M19.2 5.82677C19.3333 5.90375 19.3333 6.0962 19.2 6.17318L17.55 7.1258C17.4167 7.20278 17.25 7.10656 17.25 6.9526L17.25 5.04734C17.25 4.89338 17.4167 4.79716 17.55 4.87414L19.2 5.82677Z" fill="#556068"/>
<path d="M0 0.5C0 0.223858 0.223858 0 0.5 0H8.5C8.77614 0 9 0.223858 9 0.5V5.5C9 5.77614 8.77614 6 8.5 6H0.5C0.223858 6 0 5.77614 0 5.5V0.5Z" fill="#556068"/>
<path d="M0 5H9V5.5C9 5.77614 8.77614 6 8.5 6H0.5C0.223858 6 0 5.77614 0 5.5V5Z" fill="#E5E5E5"/>
<path d="M5.5 3C5.5 3.55228 5.05228 4 4.5 4C3.94772 4 3.5 3.55228 3.5 3C3.5 2.44772 3.94772 2 4.5 2C5.05228 2 5.5 2.44772 5.5 3Z" fill="white"/>
<path d="M5.10002 2.91338C5.16669 2.95187 5.16669 3.0481 5.10002 3.08659L4.27502 3.5629C4.20836 3.60139 4.12502 3.55328 4.12502 3.4763L4.12502 2.52367C4.12502 2.44669 4.20836 2.39858 4.27502 2.43707L5.10002 2.91338Z" fill="#556068"/>
<path d="M0 7.5C0 7.22386 0.223858 7 0.5 7H8.5C8.77614 7 9 7.22386 9 7.5V12.5C9 12.7761 8.77614 13 8.5 13H0.5C0.223858 13 0 12.7761 0 12.5V7.5Z" fill="#556068"/>
<path d="M0 12H9V12.5C9 12.7761 8.77614 13 8.5 13H0.5C0.223858 13 0 12.7761 0 12.5V12Z" fill="#E5E5E5"/>
<path d="M5.5 10C5.5 10.5523 5.05228 11 4.5 11C3.94772 11 3.5 10.5523 3.5 10C3.5 9.44772 3.94772 9 4.5 9C5.05228 9 5.5 9.44772 5.5 10Z" fill="white"/>
<path d="M5.10002 9.91338C5.16669 9.95187 5.16669 10.0481 5.10002 10.0866L4.27502 10.5629C4.20836 10.6014 4.12502 10.5533 4.12502 10.4763L4.12502 9.52367C4.12502 9.44669 4.20836 9.39858 4.27502 9.43707L5.10002 9.91338Z" fill="#556068"/>
</svg>
