<svg width="28" height="22" viewBox="0 0 28 22" fill="none" xmlns="http://www.w3.org/2000/svg">
<path d="M0 1C0 0.447715 0.447715 0 1 0H27C27.5523 0 28 0.447715 28 1V18C28 18.5523 27.5523 19 27 19H1C0.447715 19 0 18.5523 0 18V1Z" fill="#556068"/>
<path d="M16 10C16 11.1046 15.1046 12 14 12C12.8954 12 12 11.1046 12 10C12 8.89543 12.8954 8 14 8C15.1046 8 16 8.89543 16 10Z" fill="white"/>
<path d="M15.2 9.82677C15.3333 9.90375 15.3333 10.0962 15.2 10.1732L13.55 11.1258C13.4167 11.2028 13.25 11.1066 13.25 10.9526L13.25 9.04734C13.25 8.89338 13.4167 8.79716 13.55 8.87414L15.2 9.82677Z" fill="#556068"/>
<path d="M0 16H28V18C28 18.5523 27.5523 19 27 19H1C0.447715 19 0 18.5523 0 18V16Z" fill="#3A3E41"/>
<path d="M11 17.5C11 17.2239 11.2239 17 11.5 17H16.5C16.7761 17 17 17.2239 17 17.5V17.5C17 17.7761 16.7761 18 16.5 18H11.5C11.2239 18 11 17.7761 11 17.5V17.5Z" fill="#E5E5E5"/>
<path d="M16 21.25C16 21.1119 16.1119 21 16.25 21H18.75C18.8881 21 19 21.1119 19 21.25V21.25C19 21.3881 18.8881 21.5 18.75 21.5H16.25C16.1119 21.5 16 21.3881 16 21.25V21.25Z" fill="#A2A2A2"/>
<path d="M14 21.25C14 21.1119 14.1119 21 14.25 21H15.25C15.3881 21 15.5 21.1119 15.5 21.25V21.25C15.5 21.3881 15.3881 21.5 15.25 21.5H14.25C14.1119 21.5 14 21.3881 14 21.25V21.25Z" fill="#E5E5E5"/>
<path d="M12 21.25C12 21.1119 12.1119 21 12.25 21H13.25C13.3881 21 13.5 21.1119 13.5 21.25V21.25C13.5 21.3881 13.3881 21.5 13.25 21.5H12.25C12.1119 21.5 12 21.3881 12 21.25V21.25Z" fill="#E5E5E5"/>
<path d="M10 21.25C10 21.1119 10.1119 21 10.25 21H11.25C11.3881 21 11.5 21.1119 11.5 21.25V21.25C11.5 21.3881 11.3881 21.5 11.25 21.5H10.25C10.1119 21.5 10 21.3881 10 21.25V21.25Z" fill="#E5E5E5"/>
</svg>
