<svg width="28" height="7" viewBox="0 0 28 7" fill="none" xmlns="http://www.w3.org/2000/svg">
<path d="M0 2C0 1.44772 0.447715 1 1 1H7C7.55228 1 8 1.44772 8 2V6C8 6.55228 7.55228 7 7 7H1C0.447715 7 0 6.55228 0 6V2Z" fill="#E5E5E5"/>
<path d="M1 5.2C1 5.08954 1.08954 5 1.2 5H6.8C6.91046 5 7 5.08954 7 5.2V5.8C7 5.91046 6.91046 6 6.8 6H1.2C1.08954 6 1 5.91046 1 5.8V5.2Z" fill="#A2A2A2"/>
<path d="M20 2C20 1.44772 20.4477 1 21 1H27C27.5523 1 28 1.44772 28 2V6C28 6.55228 27.5523 7 27 7H21C20.4477 7 20 6.55228 20 6V2Z" fill="#E5E5E5"/>
<path d="M21 5.2C21 5.08954 21.0895 5 21.2 5H26.8C26.9105 5 27 5.08954 27 5.2V5.8C27 5.91046 26.9105 6 26.8 6H21.2C21.0895 6 21 5.91046 21 5.8V5.2Z" fill="#A2A2A2"/>
<path d="M9 1C9 0.447715 9.44772 0 10 0H18C18.5523 0 19 0.447715 19 1V6C19 6.55228 18.5523 7 18 7H10C9.44772 7 9 6.55228 9 6V1Z" fill="#556068"/>
<path d="M10 4.7C10 4.58954 10.0895 4.5 10.2 4.5H17.8C17.9105 4.5 18 4.58954 18 4.7V5.8C18 5.91046 17.9105 6 17.8 6H10.2C10.0895 6 10 5.91046 10 5.8V4.7Z" fill="#E5E5E5"/>
</svg>
